{
.appVersion = "3337";
.formatVersion = 3;
customParameters = (
{
name = "Use Typo Metrics";
value = 1;
}
);
date = "2025-02-19 09:34:30 +0000";
familyName = Exile;
featurePrefixes = (
{
automatic = 1;
code = "languagesystem DFLT dflt;

languagesystem latn dflt;
languagesystem latn CAT;
";
name = Languagesystems;
}
);
features = (
{
automatic = 1;
code = "feature locl;
feature ss01;
";
tag = aalt;
},
{
code = "sub T T by T_T;
sub t t by T_T;";
tag = liga;
},
{
automatic = 1;
code = "script latn;
language CAT;
lookup locl_latn_0 {
	sub  l' periodcentered' l by ldot;
	sub  L' periodcentered' L by Ldot;
} locl_latn_0;
";
tag = locl;
},
{
automatic = 1;
code = "sub ampersand by ampersand.ss01;
";
labels = (
{
language = dflt;
value = "Alternate Ampersand Shape";
}
);
tag = ss01;
}
);
fontMaster = (
{
customParameters = (
{
name = typoAscender;
value = 718;
},
{
name = typoDescender;
value = -18;
},
{
name = typoLineGap;
value = 464;
},
{
name = winAscent;
value = 1182;
},
{
name = winDescent;
value = 482;
},
{
name = underlineThickness;
value = 50;
},
{
name = underlinePosition;
value = -100;
},
{
name = strikeoutPosition;
value = 50;
},
{
name = strikeoutSize;
value = 50;
},
{
name = subscriptXOffset;
value = 0;
},
{
name = subscriptXSize;
value = 650;
},
{
name = subscriptYOffset;
value = 75;
},
{
name = subscriptYSize;
value = 600;
},
{
name = superscriptXOffset;
value = 0;
},
{
name = superscriptXSize;
value = 650;
},
{
name = superscriptYOffset;
value = 350;
},
{
name = superscriptYSize;
value = 600;
},
{
name = hheaAscender;
value = 750;
},
{
name = hheaDescender;
value = -250;
},
{
name = hheaLineGap;
value = 100;
}
);
guides = (
{
pos = (0,640);
},
{
locked = 1;
pos = (0,-18);
},
{
locked = 1;
pos = (0,718);
},
{
locked = 1;
pos = (0,556);
},
{
locked = 1;
pos = (0,145);
},
{
locked = 1;
pos = (0,750);
},
{
locked = 1;
pos = (0,-54);
},
{
pos = (0,-314);
}
);
id = "31EFE2D6-0164-4AD7-8F6B-9BF26915FE8D";
metricValues = (
{
pos = 718;
},
{
pos = 700;
},
{

glyphs = (
{
glyphname = A;
kernLeft = A_2nd;
kernRight = A1_1st;
lastChange = "2025-02-19 09:35:26 +0000";
layers = (
{
anchors = (
{
name = bottom;
pos = (741,-54);
},
{
name = top;
pos = (384,750);
}
);
guides = (
{
angle = 90;
pos = (384,0);
}
);
layerId = "31EFE2D6-0164-4AD7-8F6B-9BF26915FE8D";
shapes = (
{
closed = 1;
nodes = (
(137,700,l),
(137,530,l),
(153,530,ls),
(183,530,o),
(198,511,o),
(190,482,cs),
(163,378,l),
(343,378,l),
(373,491,l),
(441,219,ls),
(448,190,o),
(433,170,o),
(403,170,cs),
(397,170,l),
(397,0,l),
(741,0,l),
(741,170,l),
(715,170,ls),
(685,170,o),
(660,189,o),
(653,218,cs),
(586,482,ls),
(579,511,o),
(594,530,o),
(624,530,cs),
(630,530,l),
(630,700,l)
);
},
{
closed = 1;
nodes = (
(273,-18,o),
(349,24,o),
(349,101,cs),
(349,164,o),
(305,200,o),
(244,200,c),
(244,180,o),
(233,174,o),
(223,174,cs),
(210,174,o),
(198,183,o),
(198,201,cs),
(198,215,o),
(205,252,o),
(369,252,c),
(369,336,l),
(138,336,o),
(10,267,o),
(10,143,cs),
(10,44,o),
(91,-18,o),
(191,-18,cs)
);
}
);
width = 751;
}
);
metricLeft = V;
metricRight = V;
unicode = 65;
},
{
glyphname = B;
lastChange = "2025-02-19 09:35:26 +0000";
layers = (
{
layerId = "31EFE2D6-0164-4AD7-8F6B-9BF26915FE8D";
shapes = (
{
closed = 1;
nodes = (
(30,392,o),
(100,330,o),
(181,330,cs),
(251,330,o),
(293,376,o),
(293,426,cs),
(293,448,o),
(285,466,o),
(274,480,c),
(271,478,o),
(268,477,o),
(264,477,cs),
(253,477,o),
(242,489,o),
(242,504,cs),
(242,533,o),
(281,556,o),
(331,556,cs),
(391,556,o),
(436,524,o),
(436,479,cs),
(436,435,o),
(394,394,o),
(334,394,c),
(334,327,l),
(426,327,o),
(471,301,o),
(471,250,cs),
(471,202,o),
(431,175,o),
(344,171,c),
(344,0,l),
(572,0,o),
(699,63,o),
(699,190,cs),
(699,287,o),
(633,348,o),
(514,376,c),
(592,403,o),
(634,451,o),
(634,514,cs),
(634,628,o),
(500,718,o),
(329,718,cs),
(158,718,o),
(30,617,o),
(30,488,cs)
);
},
{
closed = 1;
nodes = (
(88,220,ls),
(88,190,o),
(68,170,o),
(38,170,cs),
(32,170,l),
(32,0,l),
(288,0,l),
(288,295,l),
(88,295,l)
);
}
);
width = 719;
}
);
metricLeft = I;
metricRight = O;
unicode = 66;
},
{
glyphname = C;
kernLeft = C_2nd;
kernRight = C1_1st;
lastChange = "2025-02-19 09:35:26 +0000";
layers = (
{
anchors = (
{
name = bottom;
pos = (342,-54);
},
{
name = top;
pos = (332,750);
}
);
layerId = "31EFE2D6-0164-4AD7-8F6B-9BF26915FE8D";
shapes = (
{
closed = 1;
nodes = (
(253,389,l),
(260,498,o),
(297,556,o),
(363,556,cs),
(409,556,o),
(449,528,o),
(449,491,cs),
(449,475,o),
(442,464,o),
(434,464,cs),
(431,464,o),
(427,465,o),
(424,468,c),
(416,459,o),
(411,445,o),
(411,428,cs),
(411,381,o),
(448,336,o),
(512,336,cs),
(588,336,o),
(635,398,o),
(635,479,cs),
(635,619,o),
(510,718,o),
(335,718,cs),
(144,718,o),
(33,600,o),
(21,389,c)
);
},
{
closed = 1;
nodes = (
(20,329,l),
(20,92,o),
(127,-18,o),
(340,-18,cs),
(522,-18,o),
(628,81,o),
(642,263,c),
(482,263,l),
(472,188,o),
(432,145,o),
(370,145,cs),
(291,145,o),
(252,199,o),
(252,329,c)
);
}
);
width = 657;
}
);
metricLeft = O;
metricRight = "=O-5";
unicode = 67;
},
{
glyphname = D;
kernLeft = D_2nd;
kernRight = D1_1st;
lastChange = "2025-02-19 09:35:26 +0000";
layers = (
{
anchors = (
{
name = top;
pos = (375,750);
}
);
guides = (
{
pos = (0,350);
},
{
pos = (0,350);
},
{
angle = 90;
pos = (375,0);
}
);
layerId = "31EFE2D6-0164-4AD7-8F6B-9BF26915FE8D";
shapes = (
{
closed = 1;
nodes = (
(30,170,l),
(36,170,ls),
(66,170,o),
(86,190,o),
(86,220,cs),
(86,480,ls),
(86,510,o),
(66,530,o),
(36,530,cs),
(30,530,l),
(30,700,l),
(286,700,l),
(286,271,ls),
(286,205,o),
(339,145,o),
(398,145,cs),
(466,145,o),
(504,221,o),
(504,379,cs),
(504,493,o),
(484,556,o),
(444,556,cs),
(433,556,o),
(427,551,o),
(427,542,cs),
(427,538,o),
(428,534,o),
(431,530,c),
(419,522,o),
(405,518,o),
(391,518,cs),
(355,518,o),
(319,542,o),
(319,596,cs),
(319,670,o),
(388,718,o),
(483,718,cs),
(631,718,o),
(731,600,o),
(731,368,cs),
(731,126,o),
(623,-18,o),
(469,-18,cs),
(376,-18,o),
(313,34,o),
(286,98,c),
(286,0,l),
(30,0,l)
);
}
);
width = 751;
}
);
metricLeft = I;
metricRight = O;
unicode = 68;
},
{
glyphname = Dcroat;
kernLeft = Eth_2nd;
kernRight = D1_1st;
lastChange = "2025-02-19 09:35:26 +0000";
layers = (
{
layerId = "31EFE2D6-0164-4AD7-8F6B-9BF26915FE8D";
shapes = (
{
closed = 1;
nodes = (
(86,296,l),
(86,220,ls),
(86,190,o),
(66,170,o),
(36,170,cs),
(30,170,l),
(30,0,l),
(286,0,l),
(286,98,l),
(313,34,o),
(376,-18,o),
(469,-18,cs),
(623,-18,o),
(731,126,o),
(731,368,cs),
(731,600,o),
(631,718,o),
(483,718,cs),
(388,718,o),
(319,670,o),
(319,596,cs),
(319,542,o),
(355,518,o),
(391,518,cs),
(405,518,o),
(419,522,o),
(431,530,c),
(428,534,o),
(427,538,o),
(427,542,cs),
(427,551,o),
(433,556,o),
(444,556,cs),
(484,556,o),
(504,493,o),
(504,379,cs),
(504,221,o),
(466,145,o),
(398,145,cs),
(339,145,o),
(286,205,o),
(286,271,cs),
(286,296,l),
(397,296,l),
(397,381,l),
(30,381,l),
(30,296,l)
);
},
{
closed = 1;
nodes = (
(30,530,l),
(36,530,ls),
(66,530,o),
(86,510,o),
(86,480,cs),
(86,441,l),
(286,441,l),
(286,700,l),
(30,700,l)
);
}
);
width = 751;
}
);
metricLeft = D;
metricRight = D;
unicode = 272;
},
{
glyphname = Eth;
kernLeft = Eth_2nd;
kernRight = D1_1st;
lastChange = "2025-02-19 09:35:26 +0000";
layers = (
{
guides = (
{
pos = (0,350);
},
{
pos = (0,350);
},
{
pos = (0,350);
},
{
pos = (0,350);
}
);
layerId = "31EFE2D6-0164-4AD7-8F6B-9BF26915FE8D";
shapes = (
{
closed = 1;
nodes = (
(86,296,l),
(86,220,ls),
(86,190,o),
(66,170,o),
(36,170,cs),
(30,170,l),
(30,0,l),
(286,0,l),
(286,98,l),
(313,34,o),
(376,-18,o),
(469,-18,cs),
(623,-18,o),
(731,126,o),
(731,368,cs),
(731,600,o),
(631,718,o),
(483,718,cs),
(388,718,o),
(319,670,o),
(319,596,cs),
(319,542,o),
(355,518,o),
(391,518,cs),
(405,518,o),
(419,522,o),
(431,530,c),
(428,534,o),
(427,538,o),
(427,542,cs),
(427,551,o),
(433,556,o),
(444,556,cs),
(484,556,o),
(504,493,o),
(504,379,cs),
(504,221,o),
(466,145,o),
(398,145,cs),
(339,145,o),
(286,205,o),
(286,271,cs),
(286,296,l),
(397,296,l),
(397,381,l),
(30,381,l),
(30,296,l)
);
},
{
closed = 1;
nodes = (
(30,530,l),
(36,530,ls),
(66,530,o),
(86,510,o),
(86,480,cs),
(86,441,l),
(286,441,l),
(286,700,l),
(30,700,l)
);
}
);
width = 751;
}
);
metricLeft = D;
metricRight = D;
unicode = 208;
},
{
glyphname = E;
kernLeft = E_2nd;
kernRight = E1_1st;
lastChange = "2025-02-19 09:35:26 +0000";
layers = (
{
anchors = (
{
name = bottom;
pos = (596,-54);
},
{
name = top;
pos = (324,750);
}
);
layerId = "31EFE2D6-0164-4AD7-8F6B-9BF26915FE8D";
shapes = (
{
closed = 1;
nodes = (
(25,62,o),
(121,-18,o),
(313,-18,cs),
(506,-18,o),
(628,63,o),
(628,253,c),
(436,253,l),
(431,184,o),
(372,164,o),
(330,164,cs),
(289,164,o),
(262,183,o),
(262,209,cs),
(262,260,o),
(338,306,o),
(551,306,c),
(551,390,l),
(210,390,o),
(25,302,o),
(25,162,cs)
);
},
{
closed = 1;
nodes = (
(25,440,o),
(84,378,o),
(171,378,cs),
(236,378,o),
(292,412,o),
(292,474,c),
(280,474,o),
(268,490,o),
(268,508,cs),
(268,535,o),
(295,554,o),
(331,554,cs),
(394,554,o),
(436,494,o),
(436,451,c),
(596,451,l),
(596,700,l),
(436,700,l),
(436,583,l),
(400,691,o),
(299,718,o),
(233,718,cs),
(115,718,o),
(25,631,o),
(25,524,cs)
);
}
);
width = 648;
}
);
metricLeft = "=I-5";
metricRight = "=I-10";
unicode = 69;
},
{
glyphname = F;
kernLeft = F_2nd;
lastChange = "2025-02-19 09:35:26 +0000";
layers = (
{
layerId = "31EFE2D6-0164-4AD7-8F6B-9BF26915FE8D";
shapes = (
{
closed = 1;
nodes = (
(342,700,l),
(342,530,l),
(336,530,ls),
(306,530,o),
(286,510,o),
(286,480,cs),
(286,324,l),
(310,396,o),
(374,433,o),
(448,433,cs),
(541,433,o),
(613,364,o),
(613,278,cs),
(613,212,o),
(569,154,o),
(499,154,cs),
(451,154,o),
(419,182,o),
(401,239,c),
(413,242,o),
(421,253,o),
(421,266,cs),
(421,287,o),
(399,303,o),
(370,303,cs),
(328,303,o),
(286,263,o),
(286,221,c),
(286,220,l),
(286,190,o),
(306,170,o),
(336,170,cs),
(342,170,l),
(342,0,l),
(30,0,l),
(30,170,l),
(36,170,ls),
(66,170,o),
(86,190,o),
(86,220,cs),
(86,480,ls),
(86,510,o),
(66,530,o),
(36,530,cs),
(30,530,l),
(30,700,l)
);
},
{
closed = 1;
nodes = (
(423,530,l),
(423,700,l),
(649,700,l),
(649,465,l),
(529,465,l),
(529,480,ls),
(529,510,o),
(509,530,o),
(479,530,cs)
);
}
);
width = 674;
}
);
metricLeft = I;
unicode = 70;
},
{
glyphname = G;
kernLeft = G_2nd;
kernRight = G1_1st;
lastChange = "2025-02-19 09:35:26 +0000";
layers = (
{
anchors = (
{
name = bottom;
pos = (348,-54);
},
{
name = top;
pos = (348,750);
}
);
guides = (
{
angle = 90;
pos = (348,0);
}
);
layerId = "31EFE2D6-0164-4AD7-8F6B-9BF26915FE8D";
shapes = (
{
closed = 1;
nodes = (
(311,145,o),
(266,170,o),
(266,213,cs),
(266,234,o),
(277,248,o),
(292,248,cs),
(296,248,o),
(299,247,o),
(304,244,c),
(313,254,o),
(320,271,o),
(320,293,cs),
(320,342,o),
(286,406,o),
(194,406,cs),
(85,406,o),
(20,316,o),
(20,218,cs),
(20,86,o),
(138,-18,o),
(276,-18,cs),
(369,-18,o),
(468,22,o),
(505,122,c),
(505,0,l),
(665,0,l),
(665,313,l),
(386,313,l),
(386,229,l),
(449,229,ls),
(470,229,o),
(483,219,o),
(483,206,cs),
(483,166,o),
(416,145,o),
(365.787,145,cs)
);
},
{
closed = 1;
nodes = (
(265,444,l),
(270,500,o),
(310,555,o),
(378,555,cs),
(427,555,o),
(463,526,o),
(463,493,cs),
(463,478,o),
(455,469,o),
(441,469,c),
(441,394,o),
(479,351,o),
(545,351,cs),
(614,351,o),
(654,398,o),
(654,477,cs),
(654,619,o),
(511,718,o),
(352,718,cs),
(145,718,o),
(43,583,o),
(43,444,c)
);
}
);
width = 695;
}
);
metricLeft = O;
metricRight = "=O+10";
unicode = 71;
},
{
glyphname = H;
kernLeft = H_2nd;
kernRight = H1_1st;
lastChange = "2025-02-19 09:35:26 +0000";
layers = (
{
anchors = (
{
name = top;
pos = (407,750);
}
);
guides = (
{
angle = 90;
pos = (407,0);
}
);
layerId = "31EFE2D6-0164-4AD7-8F6B-9BF26915FE8D";
shapes = (
{
closed = 1;
nodes = (
(451,700,l),
(763,700,l),
(763,530,l),
(757,530,ls),
(727,530,o),
(707,510,o),
(707,480,cs),
(707,220,ls),
(707,190,o),
(727,170,o),
(757,170,cs),
(763,170,l),
(763,0,l),
(451,0,l),
(451,170,l),
(457,170,ls),
(487,170,o),
(507,190,o),
(507,220,cs),
(507,480,ls),
(507,510,o),
(487,530,o),
(457,530,cs),
(451,530,l)
);
},
{
closed = 1;
nodes = (
(22,358,o),
(331,381,o),
(451,381,c),
(451,297,l),
(287,297,o),
(230,256,o),
(230,216,cs),
(230,193,o),
(242,187,o),
(253,187,cs),
(265,187,o),
(276,193,o),
(276,213,c),
(337,213,o),
(381,177,o),
(381,114,cs),
(381,19,o),
(298,-18,o),
(217,-18,cs),
(116,-18,o),
(22,40,o),
(22,149,cs)
);
},
{
closed = 1;
nodes = (
(363,700,l),
(363,530,l),
(357,530,ls),
(327,530,o),
(307,510,o),
(307,480,cs),
(307,411,l),
(107,411,l),
(107,480,ls),
(107,510,o),
(87,530,o),
(57,530,cs),
(51,530,l),
(51,700,l)
);
}
);
width = 793;
}
);
metricLeft = "=I-8";
metricRight = I;
unicode = 72;
},
{
glyphname = Hbar;
lastChange = "2025-02-19 09:35:26 +0000";
layers = (
{
layerId = "31EFE2D6-0164-4AD7-8F6B-9BF26915FE8D";
shapes = (
{
closed = 1;
nodes = (
(457,170,ls),
(487,170,o),
(507,190,o),
(507,220,cs),
(507,480,ls),
(507,510,o),
(487,530,o),
(457,530,cs),
(451,530,l),
(451,700,l),
(763,700,l),
(763,530,l),
(757,530,ls),
(727,530,o),
(707,510,o),
(707,480,cs),
(707,455,l),
(763,455,l),
(763,370,l),
(707,370,l),
(707,220,ls),
(707,190,o),
(727,170,o),
(757,170,cs),
(763,170,l),
(763,0,l),
(451,0,l),
(451,170,l)
);
},
{
closed = 1;
nodes = (
(451,252,l),
(323,252,o),
(230,225,o),
(230,188,cs),
(230,176,o),
(239,167,o),
(253,167,cs),
(265,167,o),
(276,173,o),
(276,193,c),
(337,193,o),
(381,159,o),
(381,103,cs),
(381,17,o),
(298,-18,o),
(216,-18,cs),
(116,-18,o),
(22,33,o),
(22,130,cs),
(22,251,o),
(198,336,o),
(451,336,c)
);
},
{
closed = 1;
nodes = (
(363,700,l),
(363,530,l),
(357,530,ls),
(327,530,o),
(307,510,o),
(307,480,cs),
(307,455,l),
(451,455,l),
(451,370,l),
(51,370,l),
(51,455,l),
(107,455,l),
(107,480,ls),
(107,510,o),
(87,530,o),
(57,530,cs),
(51,530,l),
(51,700,l)
);
}
);
width = 793;
}
);
metricLeft = H;
metricRight = H;
unicode = 294;
},
{
glyphname = I;
kernLeft = F_2nd;
kernRight = I_1st;
lastChange = "2025-02-19 09:35:26 +0000";
layers = (
{
anchors = (
{
name = bottom;
pos = (342,-54);
},
{
name = top;
pos = (186,750);
}
);
guides = (
{
angle = 90;
pos = (186,0);
}
);
layerId = "31EFE2D6-0164-4AD7-8F6B-9BF26915FE8D";
shapes = (
{
closed = 1;
nodes = (
(336,170,ls),
(306,170,o),
(286,190,o),
(286,220,cs),
(286,480,ls),
(286,510,o),
(306,530,o),
(336,530,cs),
(342,530,l),
(342,700,l),
(30,700,l),
(30,530,l),
(36,530,ls),
(66,530,o),
(86,510,o),
(86,480,cs),
(86,220,ls),
(86,190,o),
(66,170,o),
(36,170,cs),
(30,170,l),
(30,0,l),
(342,0,l),
(342,170,l)
);
}
);
width = 372;
}
);
metricLeft = "=30";
metricRight = "=30";
unicode = 73;
},
{
glyphname = J;
kernLeft = J_2nd;
kernRight = J1_1st;
lastChange = "2025-02-19 09:35:26 +0000";
layers = (
{
anchors = (
{
name = top;
pos = (397,750);
}
);
guides = (
{
angle = 90;
pos = (397,0);
}
);
layerId = "31EFE2D6-0164-4AD7-8F6B-9BF26915FE8D";
shapes = (
{
closed = 1;
nodes = (
(10,77,o),
(113,-18,o),
(285,-18,cs),
(449,-18,o),
(547,67,o),
(547,210,cs),
(547,329,l),
(347,329,l),
(347,244,ls),
(347,178,o),
(326,145,o),
(284.58,145,cs),
(250,145,o),
(223,168,o),
(223,195,cs),
(223,212,o),
(234,226,o),
(246,226,cs),
(249,226,o),
(252,225,o),
(254,224,c),
(259,238,o),
(262,251,o),
(262,265,cs),
(262,322,o),
(216,374,o),
(149,374,cs),
(73,374,o),
(10,307,o),
(10,206,cs)
);
},
{
closed = 1;
nodes = (
(191,700,l),
(191,530,l),
(297,530,ls),
(327,530,o),
(347,510,o),
(347,480,cs),
(347,389,l),
(547,389,l),
(547,480,ls),
(547,510,o),
(567,530,o),
(597,530,cs),
(603,530,l),
(603,700,l)
);
}
);
width = 623;
}
);
metricLeft = V;
metricRight = "=I-10";
unicode = 74;
},
{
glyphname = K;
kernLeft = K_2nd;
kernRight = K1_1st;
lastChange = "2025-02-19 09:35:26 +0000";
layers = (
{
anchors = (
{
name = bottom;
pos = (390,-54);
}
);
guides = (
{
angle = 90;
pos = (390,0);
}
);
layerId = "31EFE2D6-0164-4AD7-8F6B-9BF26915FE8D";
shapes = (
{
closed = 1;
nodes = (
(328,324,l),
(460,86,ls),
(499,17,o),
(563,-18,o),
(626.996,-18,cs),
(705,-18,o),
(771,34,o),
(771,126.133,cs),
(771,211,o),
(715,255,o),
(633,255,c),
(633,240,o),
(623,232,o),
(613.557,232,cs),
(603,232,o),
(594,242,o),
(583,262,cs),
(521,374,l),
(569,469,ls),
(586,503,o),
(595,514,o),
(606,514,cs),
(613,514,o),
(621,509,o),
(621,497,c),
(672,497,o),
(721,543,o),
(721,607,cs),
(721,674,o),
(668,718,o),
(601,718,cs),
(535,718,o),
(486,676,o),
(455,606,cs)
);
},
{
closed = 1;
nodes = (
(336,170,ls),
(306,170,o),
(286,190,o),
(286,220,cs),
(286,480,ls),
(286,510,o),
(306,530,o),
(336,530,cs),
(342,530,l),
(342,700,l),
(30,700,l),
(30,530,l),
(36,530,ls),
(66,530,o),
(86,510,o),
(86,480,cs),
(86,220,ls),
(86,190,o),
(66,170,o),
(36,170,cs),
(30,170,l),
(30,0,l),
(342,0,l),
(342,170,l)
);
}
);
width = 781;
}
);
metricLeft = I;
metricRight = V;
unicode = 75;
},
{
glyphname = L;
kernLeft = 2nd;
kernRight = L1_1st;
lastChange = "2025-02-19 09:35:26 +0000";
layers = (
{
anchors = (
{
name = bottom;
pos = (327,-54);
},
{
name = top;
pos = (237,750);
}
);
layerId = "31EFE2D6-0164-4AD7-8F6B-9BF26915FE8D";
shapes = (
{
closed = 1;
nodes = (
(30,160,o),
(53,203,o),
(94,227,c),
(98,214,o),
(106,207,o),
(116,207,cs),
(129,207,o),
(137,217,o),
(137,236,cs),
(137,480,ls),
(137,510,o),
(117,530,o),
(87,530,cs),
(81,530,l),
(81,700,l),
(393,700,l),
(393,530,l),
(387,530,ls),
(357,530,o),
(337,510,o),
(337,480,cs),
(337,172,ls),
(337,47,o),
(280,-18,o),
(180,-18,cs),
(89,-18,o),
(30,36,o),
(30,112,cs)
);
},
{
closed = 1;
nodes = (
(382,170,l),
(448,170,ls),
(478,170,o),
(498,190,o),
(498,220,cs),
(498,285,l),
(638,285,l),
(638,0,l),
(382,0,l)
);
}
);
width = 653;
}
);
metricLeft = I;
unicode = 76;
},
{
glyphname = Ldot;
kernLeft = 2nd;
lastChange = "2025-02-19 09:35:26 +0000";
layers = (
{
layerId = "31EFE2D6-0164-4AD7-8F6B-9BF26915FE8D";
shapes = (
{
closed = 1;
nodes = (
(30,160,o),
(53,203,o),
(94,227,c),
(98,214,o),
(106,207,o),
(116,207,cs),
(129,207,o),
(137,217,o),
(137,236,cs),
(137,480,ls),
(137,510,o),
(117,530,o),
(87,530,cs),
(81,530,l),
(81,700,l),
(393,700,l),
(393,530,l),
(387,530,ls),
(357,530,o),
(337,510,o),
(337,480,cs),
(337,172,ls),
(337,47,o),
(280,-18,o),
(180,-18,cs),
(89,-18,o),
(30,36,o),
(30,112,cs)
);
},
{
closed = 1;
nodes = (
(382,422,o),
(434,470,o),
(512,470,cs),
(589,470,o),
(641,422,o),
(641,351,cs),
(641,279,o),
(589,231,o),
(512,231,cs),
(434,231,o),
(382,279,o),
(382,351,cs)
);
},
{
closed = 1;
nodes = (
(382,0,l),
(382,170,l),
(638,170,l),
(638,0,l)
);
}
);
width = 656;
}
);
metricLeft = L;
metricRight = L;
unicode = 319;
},
{
glyphname = Lslash;
lastChange = "2025-02-19 09:35:26 +0000";
layers = (
{
layerId = "31EFE2D6-0164-4AD7-8F6B-9BF26915FE8D";
shapes = (
{
closed = 1;
nodes = (
(161,170,l),
(167,170,ls),
(197,170,o),
(217,190,o),
(217,220,cs),
(217,480,ls),
(217,510,o),
(197,530,o),
(167,530,cs),
(161,530,l),
(161,700,l),
(473,700,l),
(473,530,l),
(467,530,ls),
(437,530,o),
(417,510,o),
(417,480,cs),
(417,0,l),
(161,0,l)
);
},
{
closed = 1;
nodes = (
(462,0,l),
(462,170,l),
(538,170,ls),
(568,170,o),
(588,190,o),
(588,220,cs),
(588,285,l),
(728,285,l),
(728,0,l)
);
},
{
closed = 1;
nodes = (
(463,386,l),
(488,386,o),
(514,404,o),
(514,423,cs),
(514,432,o),
(507,439,o),
(499,439,cs),
(496,439,o),
(495,439,o),
(492,438,c),
(490,446,o),
(488,454,o),
(488,461,cs),
(488,510,o),
(530,542,o),
(583,542,cs),
(643,542,o),
(683,501,o),
(683,440,cs),
(683,353,o),
(603,303,o),
(463,303,c)
);
},
{
closed = 1;
nodes = (
(10,339,o),
(110,356,o),
(176,356,c),
(176,294,l),
(161,294,o),
(138,282,o),
(138,266,cs),
(138,258,o),
(143,254,o),
(150,254,cs),
(154,254,l),
(155,248,o),
(156,242,o),
(156,236,cs),
(156,200,o),
(126,176,o),
(86,176,cs),
(40,176,o),
(10,207,o),
(10,253,cs)
);
}
);
width = 743;
}
);
metricLeft = V;
metricRight = L;
unicode = 321;
},
{
glyphname = M;
kernRight = I_1st;
lastChange = "2025-02-19 09:35:26 +0000";
layers = (
{
layerId = "31EFE2D6-0164-4AD7-8F6B-9BF26915FE8D";
shapes = (
{
closed = 1;
nodes = (
(988,700,l),
(988,530,l),
(982,530,ls),
(952,530,o),
(932,510,o),
(932,480,cs),
(932,220,ls),
(932,190,o),
(952,170,o),
(982,170,cs),
(988,170,l),
(988,0,l),
(676,0,l),
(676,170,l),
(682,170,ls),
(712,170,o),
(732,190,o),
(732,220,cs),
(732,477,l),
(568,196,ls),
(566,192,o),
(565,189,o),
(565,185,cs),
(565,179,o),
(568,173,o),
(572,170,cs),
(575,168,o),
(578,167,o),
(582,167,cs),
(585,167,o),
(588,168,o),
(592,170,c),
(599,156,o),
(603,142,o),
(603,123,cs),
(603,60,o),
(561,17,o),
(498,17,cs),
(431,17,o),
(383,65,o),
(383,133,cs),
(383,171,o),
(399,208,o),
(419,240,cs),
(574,488,ls),
(579,496,o),
(582,503,o),
(582,509,cs),
(582,522,o),
(570,530,o),
(550,530,cs),
(544,530,l),
(544,700,l)
);
},
{
closed = 1;
nodes = (
(364,229,l),
(234,462,ls),
(229,471,o),
(223,475,o),
(214,475,cs),
(199,475,o),
(192,464,o),
(192,452,cs),
(192,448,o),
(193,444,o),
(194,440,c),
(180,435,o),
(165,433,o),
(151,433,cs),
(76,433,o),
(20,492,o),
(20,569,cs),
(20,651,o),
(85,718,o),
(180,718,cs),
(250,718,o),
(311,682,o),
(348,616,cs),
(468,407,l)
);
},
{
closed = 1;
nodes = (
(288,0,l),
(36,0,l),
(36,170,l),
(42,170,ls),
(72,170,o),
(92,190,o),
(92,220,cs),
(92,362,l),
(232,362,l),
(232,220,ls),
(232,190,o),
(252,170,o),
(282,170,cs),
(288,170,l)
);
}
);
width = 1018;
}
);
metricLeft = "=I-10";
metricRight = I;
unicode = 77;
},
{
glyphname = N;
kernLeft = N_2nd;
kernRight = N1_1st;
lastChange = "2025-02-19 09:35:26 +0000";
layers = (
{
anchors = (
{
name = bottom;
pos = (368,-54);
},
{
name = top;
pos = (368,750);
}
);
guides = (
{
angle = 123.179;
pos = (663,79);
showMeasurement = 1;
},
{
angle = 90;
pos = (368,0);
}
);
layerId = "31EFE2D6-0164-4AD7-8F6B-9BF26915FE8D";
shapes = (
{
closed = 1;
nodes = (
(30,700,l),
(270,700,l),
(500,240,ls),
(507,226,o),
(515,220,o),
(526,220,cs),
(538,220,o),
(545,227,o),
(545,237,cs),
(545,240,o),
(544,243,o),
(543,245,c),
(558,254,o),
(577,260,o),
(598,260,cs),
(664,260,o),
(715,201,o),
(715,127,cs),
(715,42,o),
(649,-18,o),
(554,-18,cs),
(467,-18,o),
(404,30,o),
(354,133,cs),
(226,397,l),
(226,220,ls),
(226,190,o),
(246,170,o),
(276,170,cs),
(282,170,l),
(282,0,l),
(30,0,l),
(30,170,l),
(36,170,ls),
(66,170,o),
(86,190,o),
(86,220,cs),
(86,480,ls),
(86,510,o),
(66,530,o),
(36,530,cs),
(30,530,l)
);
},
{
closed = 1;
nodes = (
(452,700,l),
(704,700,l),
(704,530,l),
(698,530,ls),
(668,530,o),
(648,510,o),
(648,480,cs),
(648,351,l),
(508,351,l),
(508,480,ls),
(508,510,o),
(488,530,o),
(458,530,cs),
(452,530,l)
);
}
);
width = 735;
}
);
metricLeft = I;
metricRight = "=I-10";
unicode = 78;
},
{
glyphname = Eng;
lastChange = "2025-02-19 09:41:32 +0000";
layers = (
{
anchors = (
{
name = bottom;
pos = (368,-54);
},
{
name = top;
pos = (368,353);
}
);
guides = (
{
angle = 90;
pos = (368,0);
},
{
angle = 90;
pos = (648,0);
},
{
angle = 90;
pos = (368,0);
}
);
layerId = "31EFE2D6-0164-4AD7-8F6B-9BF26915FE8D";
shapes = (
{
closed = 1;
nodes = (
(273,-290,o),
(345,-356,o),
(465,-356,cs),
(580,-356,o),
(648,-297,o),
(648,-197,cs),
(648,-74,l),
(508,-74,l),
(508,-174,ls),
(508,-220,o),
(494,-243,o),
(465,-243,cs),
(441,-243,o),
(422,-227,o),
(422,-208,cs),
(422,-196,o),
(429,-186,o),
(437,-186,cs),
(439,-186,o),
(442,-187,o),
(444,-188,c),
(448,-178,o),
(451,-169,o),
(451,-159,cs),
(451,-119,o),
(419,-83,o),
(371,-83,cs),
(318,-83,o),
(273,-130,o),
(273,-200,cs)
);
},
{
closed = 1;
nodes = (
(30,530,l),
(36,530,ls),
(66,530,o),
(86,510,o),
(86,480,cs),
(86,220,ls),
(86,190,o),
(66,170,o),
(36,170,cs),
(30,170,l),
(30,0,l),
(282,0,l),
(282,170,l),
(276,170,ls),
(246,170,o),
(226,190,o),
(226,220,cs),
(226,397,l),
(354,133,ls),
(404,30,o),
(467,-18,o),
(554,-18,cs),
(649,-18,o),
(715,42,o),
(715,127,cs),
(715,201,o),
(664,260,o),
(598,260,cs),
(577,260,o),
(558,254,o),
(543,245,c),
(544,243,o),
(545,240,o),
(545,237,cs),
(545,227,o),
(538,220,o),
(526,220,cs),
(515,220,o),
(507,226,o),
(500,240,cs),
(270,700,l),
(30,700,l)
);
},
{
closed = 1;
nodes = (
(452,530,l),
(458,530,ls),
(488,530,o),
(508,510,o),
(508,480,cs),
(508,351,l),
(648,351,l),
(648,480,ls),
(648,510,o),
(668,530,o),
(698,530,cs),
(704,530,l),
(704,700,l),
(452,700,l)
);
}
);
width = 735;
}
);
unicode = 330;
},
{
glyphname = O;
kernLeft = O_2nd;
kernRight = O1_1st;
lastChange = "2025-02-19 09:35:26 +0000";
layers = (
{
anchors = (
{
name = top;
pos = (338,750);
}
);
guides = (
{
angle = 90;
pos = (338,0);
}
);
layerId = "31EFE2D6-0164-4AD7-8F6B-9BF26915FE8D";
shapes = (
{
closed = 1;
nodes = (
(264,466,l),
(274,520,o),
(305,555,o),
(356,555,cs),
(398,555,o),
(441,532,o),
(441,484,cs),
(441,462,o),
(432,444,o),
(417,444,cs),
(411,444,o),
(406,446,o),
(403,449,c),
(387,429,o),
(380,405,o),
(380,380,cs),
(380,315,o),
(430,272,o),
(504,272,cs),
(596,272,o),
(656,339,o),
(656,441,cs),
(656,581,o),
(542,718,o),
(341,718,cs),
(165,718,o),
(49,629,o),
(31,466,c)
);
},
{
closed = 1;
nodes = (
(412,234,l),
(402,180,o),
(371,145,o),
(320,145,cs),
(278,145,o),
(235,168,o),
(235,216,cs),
(235,238,o),
(244,256,o),
(259,256,cs),
(265,256,o),
(270,254,o),
(273,251,c),
(289,271,o),
(296,295,o),
(296,320,cs),
(296,385,o),
(246,428,o),
(172,428,cs),
(80,428,o),
(20,361,o),
(20,259,cs),
(20,119,o),
(134,-18,o),
(335,-18,cs),
(511,-18,o),
(627,71,o),
(645,234,c)
);
}
);
width = 676;
}
);
metricLeft = "=20";
metricRight = "=20";
unicode = 79;
},
{
glyphname = Oslash;
lastChange = "2025-02-19 09:35:26 +0000";
layers = (
{
layerId = "31EFE2D6-0164-4AD7-8F6B-9BF26915FE8D";
shapes = (
{
closed = 1;
nodes = (
(264,466,l),
(274,520,o),
(305,555,o),
(356,555,cs),
(398,555,o),
(441,532,o),
(441,484,cs),
(441,462,o),
(432,444,o),
(417,444,cs),
(411,444,o),
(406,446,o),
(403,449,c),
(387,429,o),
(380,405,o),
(380,380,cs),
(380,315,o),
(430,272,o),
(504,272,cs),
(596,272,o),
(656,339,o),
(656,441,cs),
(656,505,o),
(632,568,o),
(588,618,c),
(634,702,l),
(481,776,l),
(442,705,l),
(411,713,o),
(378,718,o),
(341,718,cs),
(165,718,o),
(49,629,o),
(31,466,c)
);
},
{
closed = 1;
nodes = (
(20,193,o),
(46,127,o),
(94,76,c),
(50,-4,l),
(201,-80,l),
(241,-7,l),
(270,-14,o),
(301,-18,o),
(335,-18,cs),
(511,-18,o),
(627,71,o),
(645,234,c),
(412,234,l),
(402,180,o),
(371,145,o),
(320,145,cs),
(278,145,o),
(235,168,o),
(235,216,cs),
(235,238,o),
(244,256,o),
(259,256,cs),
(265,256,o),
(270,254,o),
(273,251,c),
(289,271,o),
(296,295,o),
(296,320,cs),
(296,385,o),
(246,428,o),
(172,428,cs),
(80,428,o),
(20,361,o),
(20,259,cs)
);
}
);
width = 676;
}
);
metricLeft = O;
metricRight = O;
unicode = 216;
},
{
glyphname = P;
kernLeft = F_2nd;
lastChange = "2025-02-19 09:35:26 +0000";
layers = (
{
layerId = "31EFE2D6-0164-4AD7-8F6B-9BF26915FE8D";
shapes = (
{
closed = 1;
nodes = (
(36,170,ls),
(66,170,o),
(86,190,o),
(86,220,cs),
(86,480,ls),
(86,510,o),
(66,530,o),
(36,530,cs),
(30,530,l),
(30,700,l),
(286,700,l),
(286,431,ls),
(286,388,o),
(323,360,o),
(368,360,cs),
(430,360,o),
(467,415,o),
(467,474,cs),
(467,516,o),
(449,534,o),
(425,534,cs),
(408,534,o),
(395,525,o),
(389,503,c),
(345,516,o),
(322,554,o),
(322,595,cs),
(322,668,o),
(395,718,o),
(482,718,cs),
(593,718,o),
(694,636,o),
(694,487,cs),
(694,333,o),
(585,222,o),
(446,222,cs),
(379,222,o),
(321,247,o),
(286,300,c),
(286,220,ls),
(286,190,o),
(306,170,o),
(336,170,cs),
(342,170,l),
(342,0,l),
(30,0,l),
(30,170,l)
);
}
);
width = 704;
}
);
metricLeft = I;
metricRight = V;
unicode = 80;
},
{
glyphname = Thorn;
kernLeft = F_2nd;
lastChange = "2025-02-19 09:35:26 +0000";
layers = (
{
guides = (
{
pos = (0,350);
}
);
layerId = "31EFE2D6-0164-4AD7-8F6B-9BF26915FE8D";
shapes = (
{
closed = 1;
nodes = (
(30,700,l),
(286,700,l),
(286,311,ls),
(286,268,o),
(323,240,o),
(368,240,cs),
(430,240,o),
(467,295,o),
(467,354,cs),
(467,396,o),
(449,414,o),
(425,414,cs),
(408,414,o),
(395,405,o),
(389,383,c),
(345,396,o),
(322,434,o),
(322,475,cs),
(322,548,o),
(395,598,o),
(482,598,cs),
(593,598,o),
(694,516,o),
(694,367,cs),
(694,213,o),
(585,102,o),
(446,102,cs),
(379,102,o),
(321,127,o),
(286,180,c),
(286,0,l),
(30,0,l),
(30,170,l),
(36,170,ls),
(66,170,o),
(86,190,o),
(86,220,cs),
(86,480,ls),
(86,510,o),
(66,530,o),
(36,530,cs),
(30,530,l)
);
}
);
width = 704;
}
);
metricLeft = P;
metricRight = P;
unicode = 222;
},
{
glyphname = Q;
kernLeft = O_2nd;
lastChange = "2025-02-19 09:35:26 +0000";
layers = (
{
anchors = (
{
name = top;
pos = (338,750);
}
);
guides = (
{
pos = (0,149);
}
);
layerId = "31EFE2D6-0164-4AD7-8F6B-9BF26915FE8D";
shapes = (
{
closed = 1;
nodes = (
(264,466,l),
(274,520,o),
(305,555,o),
(356,555,cs),
(398,555,o),
(441,532,o),
(441,484,cs),
(441,462,o),
(432,444,o),
(417,444,cs),
(411,444,o),
(406,446,o),
(403,449,c),
(387,429,o),
(380,405,o),
(380,380,cs),
(380,315,o),
(430,272,o),
(504,272,cs),
(596,272,o),
(656,339,o),
(656,441,cs),
(656,581,o),
(542,718,o),
(341,718,cs),
(165,718,o),
(49,629,o),
(31,466,c)
);
},
{
closed = 1;
nodes = (
(412,234,l),
(402,180,o),
(371,145,o),
(320,145,cs),
(278,145,o),
(235,168,o),
(235,216,cs),
(235,238,o),
(244,256,o),
(259,256,cs),
(265,256,o),
(270,254,o),
(273,251,c),
(289,271,o),
(296,295,o),
(296,320,cs),
(296,385,o),
(246,428,o),
(172,428,cs),
(80,428,o),
(20,361,o),
(20,259,cs),
(20,119,o),
(134,-18,o),
(335,-18,cs),
(511,-18,o),
(627,71,o),
(645,234,c)
);
},
{
closed = 1;
nodes = (
(295,-54,l),
(295,-196,o),
(391,-290,o),
(530.527,-290,cs),
(642,-290,o),
(727,-230,o),
(727,-126,cs),
(727,-52,o),
(685,6,o),
(610.943,6,cs),
(551,6,o),
(512,-32,o),
(512,-76.688,cs),
(512,-91,o),
(516,-105,o),
(524,-119,c),
(527,-116,o),
(531,-115,o),
(535,-115,cs),
(545,-115,o),
(551,-123,o),
(551,-134.347,cs),
(551,-154,o),
(533,-174,o),
(493.938,-174,cs),
(436,-174,o),
(395,-130,o),
(395,-54,c)
);
}
);
width = 661;
}
);
metricLeft = O;
metricRight = "=O-86";
unicode = 81;
},
{
glyphname = R;
kernLeft = 2nd;
kernRight = R1_1st;
lastChange = "2025-02-19 09:35:26 +0000";
layers = (
{
anchors = (
{
name = bottom;
pos = (334,-54);
},
{
name = top;
pos = (334,750);
}
);
guides = (
{
pos = (0,749);
}
);
layerId = "31EFE2D6-0164-4AD7-8F6B-9BF26915FE8D";
shapes = (
{
closed = 1;
nodes = (
(30,392,o),
(100,330,o),
(181,330,cs),
(251,330,o),
(293,376,o),
(293,428,cs),
(293,448,o),
(285,466,o),
(274,480,c),
(271,478,o),
(268,477,o),
(264,477,cs),
(253,477,o),
(242,489,o),
(242,504,cs),
(242,533,o),
(279,556,o),
(325,556,cs),
(383,556,o),
(426,518,o),
(426,469,cs),
(426,419,o),
(383,374,o),
(323,374,c),
(323,311,ls),
(323,118,o),
(426,-18,o),
(564,-18,cs),
(663,-18,o),
(741,53,o),
(741,147,cs),
(741,226,o),
(686,291,o),
(608,291,cs),
(572,291,o),
(539,277,o),
(509,249,c),
(518,238,o),
(521,230,o),
(521,223,cs),
(521,211,o),
(510,203,o),
(493,203,cs),
(452,203,o),
(419,250,o),
(419,318,c),
(557,337,o),
(644,402,o),
(644,499,cs),
(644,621,o),
(508,718,o),
(334,718,cs),
(160,718,o),
(30,617,o),
(30,487,cs)
);
},
{
closed = 1;
nodes = (
(91,220,ls),
(91,190,o),
(71,170,o),
(41,170,cs),
(35,170,l),
(35,0,l),
(281,0,l),
(281,301,l),
(91,301,l)
);
}
);
width = 751;
}
);
metricLeft = I;
metricRight = V;
unicode = 82;
},
{
glyphname = S;
kernLeft = S_2nd;
kernRight = S1_1st;
lastChange = "2025-02-19 09:35:26 +0000";
layers = (
{
anchors = (
{
name = bottom;
pos = (326,-54);
},
{
name = top;
pos = (321,750);
}
);
guides = (
{
angle = 107.85;
pos = (355,260);
},
{
angle = 90;
pos = (321,0);
}
);
layerId = "31EFE2D6-0164-4AD7-8F6B-9BF26915FE8D";
shapes = (
{
closed = 1;
nodes = (
(190,0,l),
(190,137,l),
(227,16,o),
(324,-18,o),
(400,-18,cs),
(531,-18,o),
(622,85,o),
(622,213,cs),
(622,322,o),
(557,398,o),
(454,398,cs),
(361,398,o),
(315,341,o),
(315,287,cs),
(315,279,o),
(316,269,o),
(319,260,c),
(325,263,o),
(328,263,o),
(330,263,cs),
(348,263,o),
(357,247,o),
(357,225.886,cs),
(357,190,o),
(331,167,o),
(291,167,cs),
(219,167,o),
(190,240,o),
(190,302,c),
(190,303,l),
(30,303,l),
(30,0,l)
);
},
{
closed = 1;
nodes = (
(30,426,o),
(99,356,o),
(189,356,cs),
(261,356,o),
(299,401,o),
(299,451,cs),
(299,458,o),
(298,465,o),
(297,472,c),
(294,470,o),
(289,469,o),
(285,469,cs),
(270,469,o),
(257,481,o),
(257,503.23,cs),
(257,537,o),
(287,556,o),
(322,556,cs),
(398,556,o),
(411,467,o),
(411,439,c),
(571,439,l),
(571,700,l),
(411,700,l),
(411,583,l),
(379,686,o),
(297,718,o),
(225,718,cs),
(111,718,o),
(30,636,o),
(30,526,cs)
);
}
);
width = 642;
}
);
metricLeft = I;
metricRight = "=I-10";
unicode = 83;
},
{
glyphname = Germandbls;
lastChange = "2025-02-19 09:41:32 +0000";
layers = (
{
associatedMasterId = "31EFE2D6-0164-4AD7-8F6B-9BF26915FE8D";
layerId = "9B5F0E37-2B56-41F8-BEE6-5DB952F95706";
name = V2;
shapes = (
{
closed = 1;
nodes = (
(274,530,l),
(274,530,l),
(274,0,l),
(74,0,l),
(74,480,ls),
(74,510,o),
(54,530,o),
(24,530,cs),
(18,530,l),
(18,700,l),
(274,700,l)
);
},
{
closed = 1;
nodes = (
(344,700,l),
(635,700,l),
(635,540,l),
(344,540,l)
);
},
{
closed = 1;
nodes = (
(792,48,o),
(685,-18,o),
(548,-18,cs),
(411,-18,o),
(341,85,o),
(341,176.128,cs),
(341,250,o),
(387,299,o),
(462.051,299,cs),
(510,299,o),
(544,279,o),
(544,236.045,cs),
(544,218,o),
(538,204,o),
(529,193,c),
(526,195,o),
(523,196,o),
(520,196,cs),
(511,196,o),
(506,186,o),
(506,176.433,cs),
(506,153,o),
(536,145,o),
(555.358,145,cs),
(577,145,o),
(612,155,o),
(612,204,c),
(613,324,o),
(366,340,o),
(366,454.407,cs),
(366,529,o),
(471,553,o),
(515,553,cs),
(612,553,l),
(621,548,o),
(626,545,o),
(635,540,c),
(561,540,o),
(531,520,o),
(532,490,cs),
(535,409,o),
(792,415,o),
(792,188,cs)
);
}
);
width = 817;
},
{
layerId = "31EFE2D6-0164-4AD7-8F6B-9BF26915FE8D";
shapes = (
{
closed = 1;
nodes = (
(857,69,o),
(748,-18,o),
(591,-18,cs),
(435,-18,o),
(331,67,o),
(331,195,cs),
(331,283,o),
(380,340,o),
(457,340,cs),
(520,340,o),
(564,301,o),
(564,244,cs),
(564,215,o),
(553,197,o),
(540,189,c),
(536,196,o),
(531,199,o),
(524,199,cs),
(512,199,o),
(506,189,o),
(506,180,cs),
(506,162,o),
(529,145,o),
(567,145,cs),
(611,145,o),
(636,168,o),
(636,214,cs),
(636,294,o),
(562,372,o),
(454,417,c),
(569,540,l),
(339,540,l),
(339,700,l),
(750,700,l),
(750,540,l),
(645,435,l),
(778,389,o),
(857,300,o),
(857,194,cs)
);
},
{
closed = 1;
nodes = (
(281,0,l),
(81,0,l),
(81,480,ls),
(81,510,o),
(61,530,o),
(31,530,cs),
(25,530,l),
(25,700,l),
(281,700,l)
);
}
);
width = 862;
}
);
metricLeft = "=25";
unicode = 7838;
},
{
glyphname = T;
kernLeft = T_2nd;
kernRight = T1_1st;
lastChange = "2025-02-19 09:35:26 +0000";
layers = (
{
anchors = (
{
name = top;
pos = (300,750);
}
);
guides = (
{
angle = 90;
pos = (300,0);
}
);
layerId = "31EFE2D6-0164-4AD7-8F6B-9BF26915FE8D";
shapes = (
{
closed = 1;
nodes = (
(10,700,l),
(370,700,ls),
(385,700,o),
(391,704,o),
(391,714,cs),
(391,721,o),
(386,727,o),
(381,732,c),
(414,765,o),
(445,781,o),
(480,781,cs),
(546,781,o),
(590,722,o),
(590,657,cs),
(590,583,o),
(534,530,o),
(456,530,cs),
(180,530,ls),
(150,530,o),
(130,510,o),
(130,480,cs),
(130,439,l),
(10,439,l)
);
},
{
closed = 1;
nodes = (
(142,0,l),
(142,170,l),
(148,170,ls),
(178,170,o),
(198,190,o),
(198,220,cs),
(198,470,l),
(398,470,l),
(398,220,ls),
(398,190,o),
(418,170,o),
(448,170,cs),
(454,170,l),
(454,0,l)
);
}
);
width = 600;
}
);
unicode = 84;
},
{
glyphname = Tbar;
lastChange = "2025-02-19 09:35:26 +0000";
layers = (
{
anchors = (
{
name = top;
pos = (300,750);
}
);
guides = (
{
angle = 90;
pos = (298,0);
},
{
angle = 90;
pos = (300,0);
}
);
layerId = "31EFE2D6-0164-4AD7-8F6B-9BF26915FE8D";
shapes = (
{
closed = 1;
nodes = (
(198,362,l),
(198,470,l),
(398,470,l),
(398,362,l),
(498,362,l),
(498,277,l),
(398,277,l),
(398,220,ls),
(398,190,o),
(418,170,o),
(448,170,cs),
(454,170,l),
(454,0,l),
(142,0,l),
(142,170,l),
(148,170,ls),
(178,170,o),
(198,190,o),
(198,220,cs),
(198,277,l),
(98,277,l),
(98,362,l)
);
},
{
closed = 1;
nodes = (
(10,439,l),
(10,700,l),
(370,700,ls),
(385,700,o),
(391,704,o),
(391,714,cs),
(391,721,o),
(386,727,o),
(381,732,c),
(414,765,o),
(445,781,o),
(480,781,cs),
(546,781,o),
(590,722,o),
(590,657,cs),
(590,583,o),
(534,530,o),
(456,530,cs),
(180,530,ls),
(150,530,o),
(130,510,o),
(130,480,cs),
(130,439,l)
);
}
);
width = 600;
}
);
metricLeft = T;
metricRight = T;
unicode = 358;
},
{
glyphname = U;
kernLeft = U_2nd;
kernRight = U1_1st;
lastChange = "2025-02-19 09:35:26 +0000";
layers = (
{
anchors = (
{
name = bottom;
pos = (558,-54);
},
{
name = top;
pos = (364,750);
}
);
guides = (
{
angle = 90;
pos = (364,0);
}
);
layerId = "31EFE2D6-0164-4AD7-8F6B-9BF26915FE8D";
shapes = (
{
closed = 1;
nodes = (
(22,700,l),
(22,530,l),
(28,530,ls),
(58,530,o),
(78,510,o),
(78,480,cs),
(78,259,ls),
(78,84,o),
(189,-18,o),
(362,-18,cs),
(537,-18,o),
(646,87,o),
(646,237.427,cs),
(646,333,o),
(602,392,o),
(532.318,392,cs),
(481,392,o),
(445,360,o),
(445,317.018,cs),
(445,301,o),
(450,286,o),
(461,268,c),
(465,271,o),
(469,273,o),
(473.783,273,cs),
(485,273,o),
(489,262,o),
(489,244.077,cs),
(489,186,o),
(447,145,o),
(385,145,cs),
(318,145,o),
(278,194,o),
(278,279,cs),
(278,480,ls),
(278,510,o),
(298,530,o),
(328,530,cs),
(334,530,l),
(334,700,l)
);
},
{
closed = 1;
nodes = (
(435,530,l),
(441,530,ls),
(471,530,o),
(491,510,o),
(491,480,cs),
(491,431,l),
(631,431,l),
(631,480,ls),
(631,510,o),
(651,530,o),
(681,530,cs),
(687,530,l),
(687,700,l),
(435,700,l)
);
}
);
width = 709;
}
);
metricLeft = "=I-8";
unicode = 85;
},
{
glyphname = V;
lastChange = "2025-02-19 09:35:26 +0000";
layers = (
{
layerId = "31EFE2D6-0164-4AD7-8F6B-9BF26915FE8D";
shapes = (
{
closed = 1;
nodes = (
(604,0,l),
(604,170,l),
(598,170,ls),
(568,170,o),
(553,189,o),
(561,218,cs),
(588,322,l),
(408,322,l),
(378,209,l),
(310,481,ls),
(303,510,o),
(318,530,o),
(348,530,cs),
(354,530,l),
(354,700,l),
(10,700,l),
(10,530,l),
(36,530,ls),
(66,530,o),
(91,511,o),
(98,482,cs),
(165,218,ls),
(172,189,o),
(157,170,o),
(127,170,cs),
(121,170,l),
(121,0,l)
);
},
{
closed = 1;
nodes = (
(471,718,o),
(397,678,o),
(397,601,cs),
(397,544,o),
(437,510,o),
(492,510,c),
(492,526,o),
(501,536,o),
(515,536,cs),
(529,536,o),
(538,526,o),
(538,510,cs),
(538,478,o),
(502,448,o),
(441,448,c),
(419,364,l),
(630,364,o),
(726,448,o),
(726,563,cs),
(726,667,o),
(647,718,o),
(554,718,cs)
);
}
);
width = 736;
}
);
unicode = 86;
},
{
glyphname = W;
kernLeft = W_2nd;
kernRight = W1_1st;
lastChange = "2025-02-19 09:35:26 +0000";
layers = (
{
anchors = (
{
name = top;
pos = (532,750);
}
);
guides = (
{
angle = 90;
pos = (532,0);
}
);
layerId = "31EFE2D6-0164-4AD7-8F6B-9BF26915FE8D";
shapes = (
{
closed = 1;
nodes = (
(22,700,l),
(22,530,l),
(28,530,ls),
(58,530,o),
(81,510,o),
(84,480,cs),
(112,220,ls),
(115,190,o),
(98,170,o),
(68,170,cs),
(62,170,l),
(62,0,l),
(527,0,l),
(527,170,l),
(522,170,ls),
(502,170,o),
(490,178,o),
(490,191,cs),
(490,197,o),
(493,205,o),
(498,213,cs),
(641,443,ls),
(658,472,o),
(669,506,o),
(669,540,cs),
(669,613,o),
(618,664,o),
(549,664,cs),
(481,664,o),
(431,615,o),
(431,559,cs),
(431,537,o),
(437,519,o),
(449,501,c),
(454,505,o),
(458,507,o),
(463,507,cs),
(471,507,o),
(477,501,o),
(477,490,cs),
(477,484,o),
(475,478,o),
(472,472,cs),
(320,207,l),
(290,480,ls),
(287,510,o),
(304,530,o),
(334,530,cs),
(340,530,l),
(340,700,l)
);
},
{
closed = 1;
nodes = (
(589,266,l),
(643,133,ls),
(686,26,o),
(750,-18,o),
(839,-18,cs),
(937,-18,o),
(1004,42,o),
(1004,127,cs),
(1004,201,o),
(953,260,o),
(887,260,cs),
(866,260,o),
(847,254,o),
(832,245,c),
(833,243,o),
(834,240,o),
(834,237,cs),
(834,227,o),
(827,217,o),
(815,217,cs),
(803,217,o),
(795,226,o),
(789,240,cs),
(699,450,l)
);
},
{
closed = 1;
nodes = (
(770,530,l),
(776,530,ls),
(806,530,o),
(824,510,o),
(820,480,cs),
(801,323,l),
(961,323,l),
(980,480,ls),
(984,510,o),
(1006,530,o),
(1036,530,cs),
(1042,530,l),
(1042,700,l),
(770,700,l)
);
}
);
width = 1064;
}
);
metricLeft = "=I-8";
metricRight = "=I-8";
unicode = 87;
},
{
glyphname = X;
lastChange = "2025-02-19 09:35:26 +0000";
layers = (
{
guides = (
{
angle = 119.919;
pos = (592,170);
},
{
angle = 90;
pos = (352,0);
},
{
angle = 119.919;
pos = (337,170);
}
);
layerId = "31EFE2D6-0164-4AD7-8F6B-9BF26915FE8D";
shapes = (
{
closed = 1;
nodes = (
(238,162,o),
(249,149,o),
(262,149,cs),
(267,149,o),
(273,151,o),
(278,156,c),
(288,140,o),
(294,120,o),
(294,100,cs),
(294,47,o),
(253,-18,o),
(160.689,-18,cs),
(72,-18,o),
(10,42,o),
(10,120.348,cs),
(10,190,o),
(59,252,o),
(197,333,c),
(264,217,l),
(246,203,o),
(238,190,o),
(238,177.112,cs)
);
},
{
closed = 1;
nodes = (
(474,550,o),
(463,562,o),
(451,562,cs),
(446,562,o),
(441,560,o),
(436,556,c),
(427,570,o),
(423,586,o),
(423,603,cs),
(423,657,o),
(466,718,o),
(549.242,718,cs),
(629,718,o),
(687,662,o),
(687,589.006,cs),
(687,524,o),
(641,466,o),
(512,390,c),
(449,499,l),
(466,512,o),
(474,524,o),
(474,535.967,cs)
);
},
{
closed = 1;
nodes = (
(155,487,ls),
(140,513,o),
(110,530,o),
(80,530,cs),
(45,530,l),
(45,700,l),
(287,700,l),
(567,213,ls),
(582,187,o),
(612,170,o),
(642,170,cs),
(668.5,170,l),
(668.5,0,l),
(435,0,l)
);
}
);
width = 697;
}
);
metricLeft = V;
metricRight = V;
unicode = 88;
},
{
glyphname = Y;
kernLeft = Y_2nd;
kernRight = Y1_1st;
lastChange = "2025-02-19 09:35:26 +0000";
layers = (
{
anchors = (
{
name = top;
pos = (392,750);
}
);
guides = (
{
angle = 90;
pos = (392,0);
}
);
layerId = "31EFE2D6-0164-4AD7-8F6B-9BF26915FE8D";
shapes = (
{
closed = 1;
nodes = (
(239,350,o),
(275,285,o),
(275,232,cs),
(275,223,o),
(274,216,o),
(270,208,c),
(268,209,o),
(265,210,o),
(262,210,cs),
(249,210,o),
(238,196,o),
(238,179,cs),
(238,158,o),
(255,145,o),
(273,145,cs),
(293,145,o),
(311,160,o),
(326,187,cs),
(481,474,ls),
(502,513,o),
(509,527,o),
(509,538,cs),
(509,548,o),
(502,554,o),
(497,554,cs),
(490,554,o),
(486,551,o),
(481,546,c),
(468,559,o),
(455,580,o),
(455,612,cs),
(455,674,o),
(506,718,o),
(576,718,cs),
(649,718,o),
(704,670,o),
(704,593,cs),
(704,557,o),
(692,515,o),
(663,462,cs),
(481,133,ls),
(424,29,o),
(353,-18,o),
(253,-18,cs),
(84,-18,o),
(10,73,o),
(10,182,cs),
(10,285,o),
(77,350,o),
(158,350,cs)
);
},
{
closed = 1;
nodes = (
(81,530,l),
(81,700,l),
(413,700,l),
(413,530,l),
(397,530,ls),
(378,530,o),
(368,524,o),
(368,513,cs),
(368,507,o),
(371,499,o),
(378,491,cs),
(410,451,l),
(317,282,l),
(145,506,ls),
(134,520,o),
(117,530,o),
(97,530,cs)
);
}
);
width = 714;
}
);
metricLeft = V;
metricRight = V;
unicode = 89;
},
{
glyphname = Z;
kernLeft = Z_2nd;
kernRight = Z1_1st;
lastChange = "2025-02-19 09:35:26 +0000";
layers = (
{
anchors = (
{
name = top;
pos = (323,750);
}
);
guides = (
{
angle = 41.379;
pos = (113,294);
showMeasurement = 1;
},
{
angle = 41.379;
pos = (113,37);
showMeasurement = 1;
},
{
angle = 90;
pos = (323,0);
}
);
layerId = "31EFE2D6-0164-4AD7-8F6B-9BF26915FE8D";
shapes = (
{
closed = 1;
nodes = (
(25,191,o),
(53,241,o),
(99,282,cs),
(361,512,ls),
(368,518,o),
(374,529,o),
(374,536,cs),
(374,549,o),
(365,558,o),
(353,558,cs),
(350,558,o),
(346,557,o),
(343,556,c),
(338,572,o),
(336,586,o),
(336,601,cs),
(336,670,o),
(393,718,o),
(476,718,cs),
(562,718,o),
(620,659,o),
(620,574.035,cs),
(620,515,o),
(592,459,o),
(550,422,cs),
(282,186,ls),
(275,180,o),
(271,172,o),
(271,164,cs),
(271,150,o),
(281,144,o),
(293,144,cs),
(296,144,o),
(299,144,o),
(302,145,c),
(307,129,o),
(309,114,o),
(309,100,cs),
(309,30,o),
(254,-18,o),
(179,-18,cs),
(93,-18,o),
(25,51,o),
(25,136.278,cs)
);
},
{
closed = 1;
nodes = (
(223,530,ls),
(193,530,o),
(173,510,o),
(173,480,cs),
(173,465,l),
(53,465,l),
(53,700,l),
(279,700,l),
(279,530,l)
);
},
{
closed = 1;
nodes = (
(447,170,ls),
(477,170,o),
(497,190,o),
(497,220,cs),
(497,235,l),
(617,235,l),
(617,0,l),
(380,0,l),
(380,170,l)
);
}
);
width = 645;
}
);
metricLeft = "=I-5";
metricRight = "=I-5";
unicode = 90;
},
{
glyphname = T_T;
kernLeft = T_2nd;
kernRight = T1_1st;
lastChange = "2025-02-19 09:35:26 +0000";
layers = (
{
layerId = "31EFE2D6-0164-4AD7-8F6B-9BF26915FE8D";
shapes = (
{
closed = 1;
nodes = (
(148,170,ls),
(178,170,o),
(198,190,o),
(198,220,cs),
(198,470,l),
(398,470,l),
(398,220,ls),
(398,190,o),
(418,170,o),
(448,170,cs),
(454,170,l),
(454,0,l),
(142,0,l),
(142,170,l)
);
},
{
closed = 1;
nodes = (
(542,170,l),
(548,170,ls),
(578,170,o),
(598,190,o),
(598,220,cs),
(598,470,l),
(798,470,l),
(798,220,ls),
(798,190,o),
(818,170,o),
(848,170,cs),
(854,170,l),
(854,0,l),
(542,0,l)
);
},
{
closed = 1;
nodes = (
(770,700,ls),
(785,700,o),
(791,704,o),
(791,714,cs),
(791,721,o),
(786,727,o),
(781,732,c),
(814,765,o),
(845,781,o),
(880,781,cs),
(946,781,o),
(990,722,o),
(990,657,cs),
(990,583,o),
(934,530,o),
(856,530,cs),
(515,530,l),
(515,700,l)
);
},
{
closed = 1;
nodes = (
(10,439,l),
(10,700,l),
(478,700,l),
(478,530,l),
(180,530,ls),
(150,530,o),
(130,510,o),
(130,480,cs),
(130,439,l)
);
}
);
width = 1000;
}
);
metricLeft = T;
metricRight = T;
},
{
glyphname = a;
kernLeft = a_2nd;
kernRight = a1_1st;
lastChange = "2025-02-19 09:35:26 +0000";
layers = (
{
anchors = (
{
name = bottom;
pos = (741,-54);
},
{
name = top;
pos = (384,750);
}
);
guides = (
{
angle = 90;
pos = (384,0);
},
{
angle = 90;
pos = (384,0);
}
);
layerId = "31EFE2D6-0164-4AD7-8F6B-9BF26915FE8D";
shapes = (
{
closed = 1;
nodes = (
(137,700,l),
(137,530,l),
(153,530,ls),
(183,530,o),
(198,511,o),
(190,482,cs),
(163,378,l),
(343,378,l),
(373,491,l),
(441,219,ls),
(448,190,o),
(433,170,o),
(403,170,cs),
(397,170,l),
(397,0,l),
(741,0,l),
(741,170,l),
(715,170,ls),
(685,170,o),
(660,189,o),
(653,218,cs),
(586,482,ls),
(579,511,o),
(594,530,o),
(624,530,cs),
(630,530,l),
(630,700,l)
);
},
{
closed = 1;
nodes = (
(273,-18,o),
(349,24,o),
(349,101,cs),
(349,164,o),
(305,200,o),
(244,200,c),
(244,180,o),
(233,174,o),
(223,174,cs),
(210,174,o),
(198,183,o),
(198,201,cs),
(198,215,o),
(205,252,o),
(369,252,c),
(369,336,l),
(138,336,o),
(10,267,o),
(10,143,cs),
(10,44,o),
(91,-18,o),
(191,-18,cs)
);
}
);
width = 751;
}
);
metricLeft = A;
metricRight = A;
unicode = 97;
},
{
glyphname = ae;
kernLeft = a_2nd;
lastChange = "2025-02-19 09:35:26 +0000";
layers = (
{
layerId = "31EFE2D6-0164-4AD7-8F6B-9BF26915FE8D";
shapes = (
{
closed = 1;
nodes = (
(137,700,l),
(137,530,l),
(153,530,ls),
(183,530,o),
(198,511,o),
(190,482,cs),
(163,378,l),
(343,378,l),
(373,491,l),
(441,219,ls),
(448,190,o),
(433,170,o),
(403,170,cs),
(397,170,l),
(397,0,l),
(741,0,l),
(741,170,l),
(715,170,ls),
(685,170,o),
(660,189,o),
(653,218,cs),
(586,482,ls),
(579,511,o),
(594,530,o),
(624,530,cs),
(630,530,l),
(630,700,l)
);
},
{
closed = 1;
nodes = (
(273,-18,o),
(349,24,o),
(349,101,cs),
(349,164,o),
(305,200,o),
(244,200,c),
(244,180,o),
(233,174,o),
(223,174,cs),
(210,174,o),
(198,183,o),
(198,201,cs),
(198,215,o),
(205,252,o),
(369,252,c),
(369,336,l),
(138,336,o),
(10,267,o),
(10,143,cs),
(10,44,o),
(91,-18,o),
(191,-18,cs)
);
},
{
closed = 1;
nodes = (
(776,62,o),
(872,-18,o),
(1064,-18,cs),
(1257,-18,o),
(1379,63,o),
(1379,253,c),
(1187,253,l),
(1182,184,o),
(1123,164,o),
(1081,164,cs),
(1040,164,o),
(1013,183,o),
(1013,209,cs),
(1013,260,o),
(1089,306,o),
(1302,306,c),
(1302,390,l),
(961,390,o),
(776,302,o),
(776,162,cs)
);
},
{
closed = 1;
nodes = (
(776,440,o),
(835,378,o),
(922,378,cs),
(987,378,o),
(1043,412,o),
(1043,474,c),
(1031,474,o),
(1019,490,o),
(1019,508,cs),
(1019,535,o),
(1046,554,o),
(1082,554,cs),
(1145,554,o),
(1187,494,o),
(1187,451,c),
(1347,451,l),
(1347,700,l),
(1187,700,l),
(1187,583,l),
(1151,691,o),
(1050,718,o),
(984,718,cs),
(866,718,o),
(776,631,o),
(776,524,cs)
);
}
);
width = 1399;
}
);
metricLeft = AE;
metricRight = AE;
unicode = 230;
},
{
glyphname = b;
lastChange = "2025-02-19 09:35:26 +0000";
layers = (
{
layerId = "31EFE2D6-0164-4AD7-8F6B-9BF26915FE8D";
shapes = (
{
closed = 1;
nodes = (
(30,392,o),
(100,330,o),
(181,330,cs),
(251,330,o),
(293,376,o),
(293,426,cs),
(293,448,o),
(285,466,o),
(274,480,c),
(271,478,o),
(268,477,o),
(264,477,cs),
(253,477,o),
(242,489,o),
(242,504,cs),
(242,533,o),
(281,556,o),
(331,556,cs),
(391,556,o),
(436,524,o),
(436,479,cs),
(436,435,o),
(394,394,o),
(334,394,c),
(334,327,l),
(426,327,o),
(471,301,o),
(471,250,cs),
(471,202,o),
(431,175,o),
(344,171,c),
(344,0,l),
(572,0,o),
(699,63,o),
(699,190,cs),
(699,287,o),
(633,348,o),
(514,376,c),
(592,403,o),
(634,451,o),
(634,514,cs),
(634,628,o),
(500,718,o),
(329,718,cs),
(158,718,o),
(30,617,o),
(30,488,cs)
);
},
{
closed = 1;
nodes = (
(88,220,ls),
(88,190,o),
(68,170,o),
(38,170,cs),
(32,170,l),
(32,0,l),
(288,0,l),
(288,295,l),
(88,295,l)
);
}
);
width = 719;
}
);
metricLeft = B;
metricRight = B;
unicode = 98;
},
{
glyphname = c;
kernLeft = c_2nd;
kernRight = c1_1st;
lastChange = "2025-02-19 09:35:26 +0000";
layers = (
{
anchors = (
{
name = bottom;
pos = (342,-54);
},
{
name = top;
pos = (332,750);
}
);
layerId = "31EFE2D6-0164-4AD7-8F6B-9BF26915FE8D";
shapes = (
{
closed = 1;
nodes = (
(253,389,l),
(260,498,o),
(297,556,o),
(363,556,cs),
(409,556,o),
(449,528,o),
(449,491,cs),
(449,475,o),
(442,464,o),
(434,464,cs),
(431,464,o),
(427,465,o),
(424,468,c),
(416,459,o),
(411,445,o),
(411,428,cs),
(411,381,o),
(448,336,o),
(512,336,cs),
(588,336,o),
(635,398,o),
(635,479,cs),
(635,619,o),
(510,718,o),
(335,718,cs),
(144,718,o),
(33,600,o),
(21,389,c)
);
},
{
closed = 1;
nodes = (
(20,329,l),
(20,92,o),
(127,-18,o),
(340,-18,cs),
(522,-18,o),
(628,81,o),
(642,263,c),
(482,263,l),
(472,188,o),
(432,145,o),
(370,145,cs),
(291,145,o),
(252,199,o),
(252,329,c)
);
}
);
width = 657;
}
);
metricLeft = C;
metricRight = C;
unicode = 99;
},
{
glyphname = d;
kernLeft = d_2nd;
kernRight = d1_1st;
lastChange = "2025-02-19 09:35:26 +0000";
layers = (
{
anchors = (
{
name = top;
pos = (375,750);
}
);
guides = (
{
pos = (0,350);
},
{
pos = (0,350);
},
{
angle = 90;
pos = (375,0);
},
{
pos = (0,350);
},
{
pos = (0,350);
},
{
angle = 90;
pos = (375,0);
}
);
layerId = "31EFE2D6-0164-4AD7-8F6B-9BF26915FE8D";
shapes = (
{
closed = 1;
nodes = (
(30,170,l),
(36,170,ls),
(66,170,o),
(86,190,o),
(86,220,cs),
(86,480,ls),
(86,510,o),
(66,530,o),
(36,530,cs),
(30,530,l),
(30,700,l),
(286,700,l),
(286,271,ls),
(286,205,o),
(339,145,o),
(398,145,cs),
(466,145,o),
(504,221,o),
(504,379,cs),
(504,493,o),
(484,556,o),
(444,556,cs),
(433,556,o),
(427,551,o),
(427,542,cs),
(427,538,o),
(428,534,o),
(431,530,c),
(419,522,o),
(405,518,o),
(391,518,cs),
(355,518,o),
(319,542,o),
(319,596,cs),
(319,670,o),
(388,718,o),
(483,718,cs),
(631,718,o),
(731,600,o),
(731,368,cs),
(731,126,o),
(623,-18,o),
(469,-18,cs),
(376,-18,o),
(313,34,o),
(286,98,c),
(286,0,l),
(30,0,l)
);
}
);
width = 751;
}
);
metricLeft = D;
metricRight = D;
unicode = 100;
},
{
glyphname = e;
kernLeft = e_2nd;
kernRight = e1_1st;
lastChange = "2025-02-19 09:35:26 +0000";
layers = (
{
anchors = (
{
name = bottom;
pos = (596,-54);
},
{
name = top;
pos = (324,750);
}
);
layerId = "31EFE2D6-0164-4AD7-8F6B-9BF26915FE8D";
shapes = (
{
closed = 1;
nodes = (
(25,62,o),
(121,-18,o),
(313,-18,cs),
(506,-18,o),
(628,63,o),
(628,253,c),
(436,253,l),
(431,184,o),
(372,164,o),
(330,164,cs),
(289,164,o),
(262,183,o),
(262,209,cs),
(262,260,o),
(338,306,o),
(551,306,c),
(551,390,l),
(210,390,o),
(25,302,o),
(25,162,cs)
);
},
{
closed = 1;
nodes = (
(25,440,o),
(84,378,o),
(171,378,cs),
(236,378,o),
(292,412,o),
(292,474,c),
(280,474,o),
(268,490,o),
(268,508,cs),
(268,535,o),
(295,554,o),
(331,554,cs),
(394,554,o),
(436,494,o),
(436,451,c),
(596,451,l),
(596,700,l),
(436,700,l),
(436,583,l),
(400,691,o),
(299,718,o),
(233,718,cs),
(115,718,o),
(25,631,o),
(25,524,cs)
);
}
);
width = 648;
}
);
metricLeft = E;
metricRight = E;
unicode = 101;
},
{
glyphname = f;
kernLeft = d_2nd;
lastChange = "2025-02-19 09:35:26 +0000";
layers = (
{
layerId = "31EFE2D6-0164-4AD7-8F6B-9BF26915FE8D";
shapes = (
{
closed = 1;
nodes = (
(342,700,l),
(342,530,l),
(336,530,ls),
(306,530,o),
(286,510,o),
(286,480,cs),
(286,324,l),
(310,396,o),
(374,433,o),
(448,433,cs),
(541,433,o),
(613,364,o),
(613,278,cs),
(613,212,o),
(569,154,o),
(499,154,cs),
(451,154,o),
(419,182,o),
(401,239,c),
(413,242,o),
(421,253,o),
(421,266,cs),
(421,287,o),
(399,303,o),
(370,303,cs),
(328,303,o),
(286,263,o),
(286,221,c),
(286,220,l),
(286,190,o),
(306,170,o),
(336,170,cs),
(342,170,l),
(342,0,l),
(30,0,l),
(30,170,l),
(36,170,ls),
(66,170,o),
(86,190,o),
(86,220,cs),
(86,480,ls),
(86,510,o),
(66,530,o),
(36,530,cs),
(30,530,l),
(30,700,l)
);
},
{
closed = 1;
nodes = (
(423,530,l),
(423,700,l),
(649,700,l),
(649,465,l),
(529,465,l),
(529,480,ls),
(529,510,o),
(509,530,o),
(479,530,cs)
);
}
);
width = 674;
}
);
metricLeft = F;
metricRight = F;
unicode = 102;
},
{
glyphname = g;
kernLeft = g_2nd;
kernRight = g1_1st;
lastChange = "2025-02-19 09:35:26 +0000";
layers = (
{
anchors = (
{
name = bottom;
pos = (348,-54);
},
{
name = top;
pos = (348,750);
}
);
guides = (
{
angle = 90;
pos = (348,0);
},
{
angle = 90;
pos = (348,0);
}
);
layerId = "31EFE2D6-0164-4AD7-8F6B-9BF26915FE8D";
shapes = (
{
closed = 1;
nodes = (
(311,145,o),
(266,170,o),
(266,213,cs),
(266,234,o),
(277,248,o),
(292,248,cs),
(296,248,o),
(299,247,o),
(304,244,c),
(313,254,o),
(320,271,o),
(320,293,cs),
(320,342,o),
(286,406,o),
(194,406,cs),
(85,406,o),
(20,316,o),
(20,218,cs),
(20,86,o),
(138,-18,o),
(276,-18,cs),
(369,-18,o),
(468,22,o),
(505,122,c),
(505,0,l),
(665,0,l),
(665,313,l),
(386,313,l),
(386,229,l),
(449,229,ls),
(470,229,o),
(483,219,o),
(483,206,cs),
(483,166,o),
(416,145,o),
(365.787,145,cs)
);
},
{
closed = 1;
nodes = (
(265,444,l),
(270,500,o),
(310,555,o),
(378,555,cs),
(427,555,o),
(463,526,o),
(463,493,cs),
(463,478,o),
(455,469,o),
(441,469,c),
(441,394,o),
(479,351,o),
(545,351,cs),
(614,351,o),
(654,398,o),
(654,477,cs),
(654,619,o),
(511,718,o),
(352,718,cs),
(145,718,o),
(43,583,o),
(43,444,c)
);
}
);
width = 695;
}
);
metricLeft = G;
metricRight = G;
unicode = 103;
},
{
glyphname = h;
kernLeft = h_2nd;
kernRight = h1_1st;
lastChange = "2025-02-19 09:35:26 +0000";
layers = (
{
anchors = (
{
name = top;
pos = (407,750);
}
);
guides = (
{
angle = 90;
pos = (407,0);
},
{
angle = 90;
pos = (407,0);
}
);
layerId = "31EFE2D6-0164-4AD7-8F6B-9BF26915FE8D";
shapes = (
{
closed = 1;
nodes = (
(451,700,l),
(763,700,l),
(763,530,l),
(757,530,ls),
(727,530,o),
(707,510,o),
(707,480,cs),
(707,220,ls),
(707,190,o),
(727,170,o),
(757,170,cs),
(763,170,l),
(763,0,l),
(451,0,l),
(451,170,l),
(457,170,ls),
(487,170,o),
(507,190,o),
(507,220,cs),
(507,480,ls),
(507,510,o),
(487,530,o),
(457,530,cs),
(451,530,l)
);
},
{
closed = 1;
nodes = (
(22,358,o),
(331,381,o),
(451,381,c),
(451,297,l),
(287,297,o),
(230,256,o),
(230,216,cs),
(230,193,o),
(242,187,o),
(253,187,cs),
(265,187,o),
(276,193,o),
(276,213,c),
(337,213,o),
(381,177,o),
(381,114,cs),
(381,19,o),
(298,-18,o),
(217,-18,cs),
(116,-18,o),
(22,40,o),
(22,149,cs)
);
},
{
closed = 1;
nodes = (
(363,700,l),
(363,530,l),
(357,530,ls),
(327,530,o),
(307,510,o),
(307,480,cs),
(307,411,l),
(107,411,l),
(107,480,ls),
(107,510,o),
(87,530,o),
(57,530,cs),
(51,530,l),
(51,700,l)
);
}
);
width = 793;
}
);
metricLeft = H;
metricRight = H;
unicode = 104;
},
{
glyphname = i;
kernLeft = i_2nd;
kernRight = i1_1st;
lastChange = "2025-02-19 09:35:26 +0000";
layers = (
{
anchors = (
{
name = bottom;
pos = (342,-54);
},
{
name = top;
pos = (186,750);
}
);
guides = (
{
angle = 90;
pos = (186,0);
},
{
angle = 90;
pos = (186,0);
}
);
layerId = "31EFE2D6-0164-4AD7-8F6B-9BF26915FE8D";
shapes = (
{
closed = 1;
nodes = (
(336,170,ls),
(306,170,o),
(286,190,o),
(286,220,cs),
(286,480,ls),
(286,510,o),
(306,530,o),
(336,530,cs),
(342,530,l),
(342,700,l),
(30,700,l),
(30,530,l),
(36,530,ls),
(66,530,o),
(86,510,o),
(86,480,cs),
(86,220,ls),
(86,190,o),
(66,170,o),
(36,170,cs),
(30,170,l),
(30,0,l),
(342,0,l),
(342,170,l)
);
}
);
width = 372;
}
);
metricLeft = I;
metricRight = I;
unicode = 105;
},
{
glyphname = ij;
kernLeft = i_2nd;
lastChange = "2025-02-19 09:35:26 +0000";
layers = (
{
layerId = "31EFE2D6-0164-4AD7-8F6B-9BF26915FE8D";
shapes = (
{
closed = 1;
nodes = (
(336,170,ls),
(306,170,o),
(286,190,o),
(286,220,cs),
(286,480,ls),
(286,510,o),
(306,530,o),
(336,530,cs),
(342,530,l),
(342,700,l),
(30,700,l),
(30,530,l),
(36,530,ls),
(66,530,o),
(86,510,o),
(86,480,cs),
(86,220,ls),
(86,190,o),
(66,170,o),
(36,170,cs),
(30,170,l),
(30,0,l),
(342,0,l),
(342,170,l)
);
},
{
closed = 1;
nodes = (
(387,77,o),
(490,-18,o),
(662,-18,cs),
(826,-18,o),
(924,67,o),
(924,210,cs),
(924,329,l),
(724,329,l),
(724,244,ls),
(724,178,o),
(703,145,o),
(661.58,145,cs),
(627,145,o),
(600,168,o),
(600,195,cs),
(600,212,o),
(611,226,o),
(623,226,cs),
(626,226,o),
(629,225,o),
(631,224,c),
(636,238,o),
(639,251,o),
(639,265,cs),
(639,322,o),
(593,374,o),
(526,374,cs),
(450,374,o),
(387,307,o),
(387,206,cs)
);
},
{
closed = 1;
nodes = (
(568,700,l),
(568,530,l),
(674,530,ls),
(704,530,o),
(724,510,o),
(724,480,cs),
(724,389,l),
(924,389,l),
(924,480,ls),
(924,510,o),
(944,530,o),
(974,530,cs),
(980,530,l),
(980,700,l)
);
}
);
width = 1000;
}
);
metricLeft = IJ;
metricRight = IJ;
unicode = 307;
},
{
glyphname = j;
kernLeft = j_2nd;
kernRight = j1_1st;
lastChange = "2025-02-19 09:35:26 +0000";
layers = (
{
anchors = (
{
name = top;
pos = (387,750);
}
);
guides = (
{
angle = 90;
pos = (387,0);
},
{
angle = 90;
pos = (397,0);
}
);
layerId = "31EFE2D6-0164-4AD7-8F6B-9BF26915FE8D";
shapes = (
{
closed = 1;
nodes = (
(10,77,o),
(113,-18,o),
(285,-18,cs),
(449,-18,o),
(547,67,o),
(547,210,cs),
(547,329,l),
(347,329,l),
(347,244,ls),
(347,178,o),
(326,145,o),
(284.58,145,cs),
(250,145,o),
(223,168,o),
(223,195,cs),
(223,212,o),
(234,226,o),
(246,226,cs),
(249,226,o),
(252,225,o),
(254,224,c),
(259,238,o),
(262,251,o),
(262,265,cs),
(262,322,o),
(216,374,o),
(149,374,cs),
(73,374,o),
(10,307,o),
(10,206,cs)
);
},
{
closed = 1;
nodes = (
(191,700,l),
(191,530,l),
(297,530,ls),
(327,530,o),
(347,510,o),
(347,480,cs),
(347,389,l),
(547,389,l),
(547,480,ls),
(547,510,o),
(567,530,o),
(597,530,cs),
(603,530,l),
(603,700,l)
);
}
);
width = 623;
}
);
metricLeft = J;
metricRight = J;
unicode = 106;
},
{
glyphname = k;
kernLeft = d_2nd;
kernRight = k_1st;
lastChange = "2025-02-19 09:35:26 +0000";
layers = (
{
anchors = (
{
name = bottom;
pos = (390,-54);
}
);
guides = (
{
angle = 90;
pos = (390,0);
},
{
angle = 90;
pos = (390,0);
}
);
layerId = "31EFE2D6-0164-4AD7-8F6B-9BF26915FE8D";
shapes = (
{
closed = 1;
nodes = (
(328,324,l),
(460,86,ls),
(499,17,o),
(563,-18,o),
(626.996,-18,cs),
(705,-18,o),
(771,34,o),
(771,126.133,cs),
(771,211,o),
(715,255,o),
(633,255,c),
(633,240,o),
(623,232,o),
(613.557,232,cs),
(603,232,o),
(594,242,o),
(583,262,cs),
(521,374,l),
(569,469,ls),
(586,503,o),
(595,514,o),
(606,514,cs),
(613,514,o),
(621,509,o),
(621,497,c),
(672,497,o),
(721,543,o),
(721,607,cs),
(721,674,o),
(668,718,o),
(601,718,cs),
(535,718,o),
(486,676,o),
(455,606,cs)
);
},
{
closed = 1;
nodes = (
(336,170,ls),
(306,170,o),
(286,190,o),
(286,220,cs),
(286,480,ls),
(286,510,o),
(306,530,o),
(336,530,cs),
(342,530,l),
(342,700,l),
(30,700,l),
(30,530,l),
(36,530,ls),
(66,530,o),
(86,510,o),
(86,480,cs),
(86,220,ls),
(86,190,o),
(66,170,o),
(36,170,cs),
(30,170,l),
(30,0,l),
(342,0,l),
(342,170,l)
);
}
);
width = 781;
}
);
metricLeft = K;
metricRight = K;
unicode = 107;
},
{
glyphname = l;
kernLeft = l_2nd;
kernRight = l1_1st;
lastChange = "2025-02-19 09:35:26 +0000";
layers = (
{
anchors = (
{
name = bottom;
pos = (327,-54);
},
{
name = top;
pos = (237,750);
}
);
layerId = "31EFE2D6-0164-4AD7-8F6B-9BF26915FE8D";
shapes = (
{
closed = 1;
nodes = (
(30,160,o),
(53,203,o),
(94,227,c),
(98,214,o),
(106,207,o),
(116,207,cs),
(129,207,o),
(137,217,o),
(137,236,cs),
(137,480,ls),
(137,510,o),
(117,530,o),
(87,530,cs),
(81,530,l),
(81,700,l),
(393,700,l),
(393,530,l),
(387,530,ls),
(357,530,o),
(337,510,o),
(337,480,cs),
(337,172,ls),
(337,47,o),
(280,-18,o),
(180,-18,cs),
(89,-18,o),
(30,36,o),
(30,112,cs)
);
},
{
closed = 1;
nodes = (
(382,170,l),
(448,170,ls),
(478,170,o),
(498,190,o),
(498,220,cs),
(498,285,l),
(638,285,l),
(638,0,l),
(382,0,l)
);
}
);
width = 653;
}
);
metricLeft = L;
metricRight = L;
unicode = 108;
},
{
glyphname = ldot;
kernLeft = l_2nd;
lastChange = "2025-02-19 09:35:26 +0000";
layers = (
{
layerId = "31EFE2D6-0164-4AD7-8F6B-9BF26915FE8D";
shapes = (
{
closed = 1;
locked = 1;
nodes = (
(30,160,o),
(53,203,o),
(94,227,c),
(98,214,o),
(106,207,o),
(116,207,cs),
(129,207,o),
(137,217,o),
(137,236,cs),
(137,480,ls),
(137,510,o),
(117,530,o),
(87,530,cs),
(81,530,l),
(81,700,l),
(393,700,l),
(393,530,l),
(387,530,ls),
(357,530,o),
(337,510,o),
(337,480,cs),
(337,172,ls),
(337,47,o),
(280,-18,o),
(180,-18,cs),
(89,-18,o),
(30,36,o),
(30,112,cs)
);
},
{
closed = 1;
locked = 1;
nodes = (
(382,170,l),
(638,170,l),
(638,0,l),
(382,0,l)
);
},
{
closed = 1;
locked = 1;
nodes = (
(382,422,o),
(434,470,o),
(512,470,cs),
(589,470,o),
(641,422,o),
(641,351,cs),
(641,279,o),
(589,231,o),
(512,231,cs),
(434,231,o),
(382,279,o),
(382,351,cs)
);
}
);
width = 656;
}
);
metricLeft = Ldot;
metricRight = Ldot;
unicode = 320;
},
{
glyphname = m;
kernRight = i1_1st;
lastChange = "2025-02-19 09:35:26 +0000";
layers = (
{
layerId = "31EFE2D6-0164-4AD7-8F6B-9BF26915FE8D";
shapes = (
{
closed = 1;
nodes = (
(988,700,l),
(988,530,l),
(982,530,ls),
(952,530,o),
(932,510,o),
(932,480,cs),
(932,220,ls),
(932,190,o),
(952,170,o),
(982,170,cs),
(988,170,l),
(988,0,l),
(676,0,l),
(676,170,l),
(682,170,ls),
(712,170,o),
(732,190,o),
(732,220,cs),
(732,477,l),
(568,196,ls),
(566,192,o),
(565,189,o),
(565,185,cs),
(565,179,o),
(568,173,o),
(572,170,cs),
(575,168,o),
(578,167,o),
(582,167,cs),
(585,167,o),
(588,168,o),
(592,170,c),
(599,156,o),
(603,142,o),
(603,123,cs),
(603,60,o),
(561,17,o),
(498,17,cs),
(431,17,o),
(383,65,o),
(383,133,cs),
(383,171,o),
(399,208,o),
(419,240,cs),
(574,488,ls),
(579,496,o),
(582,503,o),
(582,509,cs),
(582,522,o),
(570,530,o),
(550,530,cs),
(544,530,l),
(544,700,l)
);
},
{
closed = 1;
nodes = (
(364,229,l),
(234,462,ls),
(229,471,o),
(223,475,o),
(214,475,cs),
(199,475,o),
(192,464,o),
(192,452,cs),
(192,448,o),
(193,444,o),
(194,440,c),
(180,435,o),
(165,433,o),
(151,433,cs),
(76,433,o),
(20,492,o),
(20,569,cs),
(20,651,o),
(85,718,o),
(180,718,cs),
(250,718,o),
(311,682,o),
(348,616,cs),
(468,407,l)
);
},
{
closed = 1;
nodes = (
(288,0,l),
(36,0,l),
(36,170,l),
(42,170,ls),
(72,170,o),
(92,190,o),
(92,220,cs),
(92,362,l),
(232,362,l),
(232,220,ls),
(232,190,o),
(252,170,o),
(282,170,cs),
(288,170,l)
);
}
);
width = 1018;
}
);
metricLeft = M;
metricRight = M;
unicode = 109;
},
{
glyphname = n;
kernLeft = i_2nd;
kernRight = n_1st;
lastChange = "2025-02-19 09:35:26 +0000";
layers = (
{
anchors = (
{
name = bottom;
pos = (368,-54);
},
{
name = top;
pos = (368,750);
}
);
guides = (
{
angle = 90;
pos = (368,0);
},
{
angle = 90;
pos = (368,0);
}
);
layerId = "31EFE2D6-0164-4AD7-8F6B-9BF26915FE8D";
shapes = (
{
closed = 1;
nodes = (
(30,700,l),
(270,700,l),
(500,240,ls),
(507,226,o),
(515,220,o),
(526,220,cs),
(538,220,o),
(545,227,o),
(545,237,cs),
(545,240,o),
(544,243,o),
(543,245,c),
(558,254,o),
(577,260,o),
(598,260,cs),
(664,260,o),
(715,201,o),
(715,127,cs),
(715,42,o),
(649,-18,o),
(554,-18,cs),
(467,-18,o),
(404,30,o),
(354,133,cs),
(226,397,l),
(226,220,ls),
(226,190,o),
(246,170,o),
(276,170,cs),
(282,170,l),
(282,0,l),
(30,0,l),
(30,170,l),
(36,170,ls),
(66,170,o),
(86,190,o),
(86,220,cs),
(86,480,ls),
(86,510,o),
(66,530,o),
(36,530,cs),
(30,530,l)
);
},
{
closed = 1;
nodes = (
(452,700,l),
(704,700,l),
(704,530,l),
(698,530,ls),
(668,530,o),
(648,510,o),
(648,480,cs),
(648,351,l),
(508,351,l),
(508,480,ls),
(508,510,o),
(488,530,o),
(458,530,cs),
(452,530,l)
);
}
);
width = 735;
}
);
metricLeft = N;
metricRight = N;
unicode = 110;
},
{
glyphname = o;
kernLeft = o_2nd;
kernRight = o1_1st;
lastChange = "2025-02-19 09:35:26 +0000";
layers = (
{
anchors = (
{
name = top;
pos = (338,750);
}
);
guides = (
{
angle = 90;
pos = (338,0);
},
{
angle = 90;
pos = (338,0);
}
);
layerId = "31EFE2D6-0164-4AD7-8F6B-9BF26915FE8D";
shapes = (
{
closed = 1;
nodes = (
(264,466,l),
(274,520,o),
(305,555,o),
(356,555,cs),
(398,555,o),
(441,532,o),
(441,484,cs),
(441,462,o),
(432,444,o),
(417,444,cs),
(411,444,o),
(406,446,o),
(403,449,c),
(387,429,o),
(380,405,o),
(380,380,cs),
(380,315,o),
(430,272,o),
(504,272,cs),
(596,272,o),
(656,339,o),
(656,441,cs),
(656,581,o),
(542,718,o),
(341,718,cs),
(165,718,o),
(49,629,o),
(31,466,c)
);
},
{
closed = 1;
nodes = (
(412,234,l),
(402,180,o),
(371,145,o),
(320,145,cs),
(278,145,o),
(235,168,o),
(235,216,cs),
(235,238,o),
(244,256,o),
(259,256,cs),
(265,256,o),
(270,254,o),
(273,251,c),
(289,271,o),
(296,295,o),
(296,320,cs),
(296,385,o),
(246,428,o),
(172,428,cs),
(80,428,o),
(20,361,o),
(20,259,cs),
(20,119,o),
(134,-18,o),
(335,-18,cs),
(511,-18,o),
(627,71,o),
(645,234,c)
);
}
);
width = 676;
}
);
metricLeft = O;
metricRight = O;
unicode = 111;
},
{
glyphname = oslash;
lastChange = "2025-02-19 09:35:26 +0000";
layers = (
{
layerId = "31EFE2D6-0164-4AD7-8F6B-9BF26915FE8D";
shapes = (
{
closed = 1;
nodes = (
(264,466,l),
(274,520,o),
(305,555,o),
(356,555,cs),
(398,555,o),
(441,532,o),
(441,484,cs),
(441,462,o),
(432,444,o),
(417,444,cs),
(411,444,o),
(406,446,o),
(403,449,c),
(387,429,o),
(380,405,o),
(380,380,cs),
(380,315,o),
(430,272,o),
(504,272,cs),
(596,272,o),
(656,339,o),
(656,441,cs),
(656,505,o),
(632,568,o),
(588,618,c),
(634,702,l),
(481,776,l),
(442,705,l),
(411,713,o),
(378,718,o),
(341,718,cs),
(165,718,o),
(49,629,o),
(31,466,c)
);
},
{
closed = 1;
nodes = (
(20,193,o),
(46,127,o),
(94,76,c),
(50,-4,l),
(201,-80,l),
(241,-7,l),
(270,-14,o),
(301,-18,o),
(335,-18,cs),
(511,-18,o),
(627,71,o),
(645,234,c),
(412,234,l),
(402,180,o),
(371,145,o),
(320,145,cs),
(278,145,o),
(235,168,o),
(235,216,cs),
(235,238,o),
(244,256,o),
(259,256,cs),
(265,256,o),
(270,254,o),
(273,251,c),
(289,271,o),
(296,295,o),
(296,320,cs),
(296,385,o),
(246,428,o),
(172,428,cs),
(80,428,o),
(20,361,o),
(20,259,cs)
);
}
);
width = 676;
}
);
metricLeft = Oslash;
metricRight = Oslash;
unicode = 248;
},
{
glyphname = oe;
kernLeft = o_2nd;
lastChange = "2025-02-19 09:35:26 +0000";
layers = (
{
layerId = "31EFE2D6-0164-4AD7-8F6B-9BF26915FE8D";
shapes = (
{
closed = 1;
nodes = (
(264,466,l),
(274,520,o),
(305,555,o),
(356,555,cs),
(398,555,o),
(441,532,o),
(441,484,cs),
(441,462,o),
(432,444,o),
(417,444,cs),
(411,444,o),
(406,446,o),
(403,449,c),
(387,429,o),
(380,405,o),
(380,380,cs),
(380,315,o),
(430,272,o),
(504,272,cs),
(596,272,o),
(656,339,o),
(656,441,cs),
(656,581,o),
(542,718,o),
(341,718,cs),
(165,718,o),
(49,629,o),
(31,466,c)
);
},
{
closed = 1;
nodes = (
(412,234,l),
(402,180,o),
(371,145,o),
(320,145,cs),
(278,145,o),
(235,168,o),
(235,216,cs),
(235,238,o),
(244,256,o),
(259,256,cs),
(265,256,o),
(270,254,o),
(273,251,c),
(289,271,o),
(296,295,o),
(296,320,cs),
(296,385,o),
(246,428,o),
(172,428,cs),
(80,428,o),
(20,361,o),
(20,259,cs),
(20,119,o),
(134,-18,o),
(335,-18,cs),
(511,-18,o),
(627,71,o),
(645,234,c)
);
},
{
closed = 1;
nodes = (
(701,62,o),
(797,-18,o),
(989,-18,cs),
(1182,-18,o),
(1304,63,o),
(1304,253,c),
(1112,253,l),
(1107,184,o),
(1048,164,o),
(1006,164,cs),
(965,164,o),
(938,183,o),
(938,209,cs),
(938,260,o),
(1014,306,o),
(1227,306,c),
(1227,390,l),
(886,390,o),
(701,302,o),
(701,162,cs)
);
},
{
closed = 1;
nodes = (
(701,440,o),
(760,378,o),
(847,378,cs),
(912,378,o),
(968,412,o),
(968,474,c),
(956,474,o),
(944,490,o),
(944,508,cs),
(944,535,o),
(971,554,o),
(1007,554,cs),
(1070,554,o),
(1112,494,o),
(1112,451,c),
(1272,451,l),
(1272,700,l),
(1112,700,l),
(1112,583,l),
(1076,691,o),
(975,718,o),
(909,718,cs),
(791,718,o),
(701,631,o),
(701,524,cs)
);
}
);
width = 1324;
}
);
metricLeft = OE;
metricRight = OE;
unicode = 339;
},
{
glyphname = p;
kernLeft = i_2nd;
lastChange = "2025-02-19 09:35:26 +0000";
layers = (
{
layerId = "31EFE2D6-0164-4AD7-8F6B-9BF26915FE8D";
shapes = (
{
closed = 1;
nodes = (
(36,170,ls),
(66,170,o),
(86,190,o),
(86,220,cs),
(86,480,ls),
(86,510,o),
(66,530,o),
(36,530,cs),
(30,530,l),
(30,700,l),
(286,700,l),
(286,431,ls),
(286,388,o),
(323,360,o),
(368,360,cs),
(430,360,o),
(467,415,o),
(467,474,cs),
(467,516,o),
(449,534,o),
(425,534,cs),
(408,534,o),
(395,525,o),
(389,503,c),
(345,516,o),
(322,554,o),
(322,595,cs),
(322,668,o),
(395,718,o),
(482,718,cs),
(593,718,o),
(694,636,o),
(694,487,cs),
(694,333,o),
(585,222,o),
(446,222,cs),
(379,222,o),
(321,247,o),
(286,300,c),
(286,220,ls),
(286,190,o),
(306,170,o),
(336,170,cs),
(342,170,l),
(342,0,l),
(30,0,l),
(30,170,l)
);
}
);
width = 704;
}
);
metricLeft = P;
metricRight = P;
unicode = 112;
},
{
glyphname = q;
kernLeft = o_2nd;
lastChange = "2025-02-19 09:35:26 +0000";
layers = (
{
anchors = (
{
name = top;
pos = (338,750);
}
);
layerId = "31EFE2D6-0164-4AD7-8F6B-9BF26915FE8D";
shapes = (
{
closed = 1;
nodes = (
(264,466,l),
(274,520,o),
(305,555,o),
(356,555,cs),
(398,555,o),
(441,532,o),
(441,484,cs),
(441,462,o),
(432,444,o),
(417,444,cs),
(411,444,o),
(406,446,o),
(403,449,c),
(387,429,o),
(380,405,o),
(380,380,cs),
(380,315,o),
(430,272,o),
(504,272,cs),
(596,272,o),
(656,339,o),
(656,441,cs),
(656,581,o),
(542,718,o),
(341,718,cs),
(165,718,o),
(49,629,o),
(31,466,c)
);
},
{
closed = 1;
nodes = (
(412,234,l),
(402,180,o),
(371,145,o),
(320,145,cs),
(278,145,o),
(235,168,o),
(235,216,cs),
(235,238,o),
(244,256,o),
(259,256,cs),
(265,256,o),
(270,254,o),
(273,251,c),
(289,271,o),
(296,295,o),
(296,320,cs),
(296,385,o),
(246,428,o),
(172,428,cs),
(80,428,o),
(20,361,o),
(20,259,cs),
(20,119,o),
(134,-18,o),
(335,-18,cs),
(511,-18,o),
(627,71,o),
(645,234,c)
);
},
{
closed = 1;
nodes = (
(295,-54,l),
(295,-196,o),
(391,-290,o),
(530.527,-290,cs),
(642,-290,o),
(727,-230,o),
(727,-126,cs),
(727,-52,o),
(685,6,o),
(610.943,6,cs),
(551,6,o),
(512,-32,o),
(512,-76.688,cs),
(512,-91,o),
(516,-105,o),
(524,-119,c),
(527,-116,o),
(531,-115,o),
(535,-115,cs),
(545,-115,o),
(551,-123,o),
(551,-134.347,cs),
(551,-154,o),
(533,-174,o),
(493.938,-174,cs),
(436,-174,o),
(395,-130,o),
(395,-54,c)
);
}
);
width = 661;
}
);
metricLeft = Q;
metricRight = Q;
unicode = 113;
},
{
glyphname = r;
kernLeft = r_2nd;
kernRight = r1_1st;
lastChange = "2025-02-19 09:35:26 +0000";
layers = (
{
anchors = (
{
name = bottom;
pos = (334,-54);
},
{
name = top;
pos = (334,750);
}
);
guides = (
{
pos = (0,749);
}
);
layerId = "31EFE2D6-0164-4AD7-8F6B-9BF26915FE8D";
shapes = (
{
closed = 1;
nodes = (
(30,392,o),
(100,330,o),
(181,330,cs),
(251,330,o),
(293,376,o),
(293,428,cs),
(293,448,o),
(285,466,o),
(274,480,c),
(271,478,o),
(268,477,o),
(264,477,cs),
(253,477,o),
(242,489,o),
(242,504,cs),
(242,533,o),
(279,556,o),
(325,556,cs),
(383,556,o),
(426,518,o),
(426,469,cs),
(426,419,o),
(383,374,o),
(323,374,c),
(323,311,ls),
(323,118,o),
(426,-18,o),
(564,-18,cs),
(663,-18,o),
(741,53,o),
(741,147,cs),
(741,226,o),
(686,291,o),
(608,291,cs),
(572,291,o),
(539,277,o),
(509,249,c),
(518,238,o),
(521,230,o),
(521,223,cs),
(521,211,o),
(510,203,o),
(493,203,cs),
(452,203,o),
(419,250,o),
(419,318,c),
(557,337,o),
(644,402,o),
(644,499,cs),
(644,621,o),
(508,718,o),
(334,718,cs),
(160,718,o),
(30,617,o),
(30,487,cs)
);
},
{
closed = 1;
nodes = (
(91,220,ls),
(91,190,o),
(71,170,o),
(41,170,cs),
(35,170,l),
(35,0,l),
(281,0,l),
(281,301,l),
(91,301,l)
);
}
);
width = 751;
}
);
metricLeft = R;
metricRight = R;
unicode = 114;
},
{
glyphname = s;
kernLeft = s_2nd;
kernRight = s1_1st;
lastChange = "2025-02-19 09:35:26 +0000";
layers = (
{
anchors = (
{
name = bottom;
pos = (326,-54);
},
{
name = top;
pos = (321,750);
}
);
guides = (
{
angle = 107.85;
pos = (355,260);
},
{
angle = 90;
pos = (321,0);
},
{
angle = 107.85;
pos = (355,260);
},
{
angle = 90;
pos = (321,0);
}
);
layerId = "31EFE2D6-0164-4AD7-8F6B-9BF26915FE8D";
shapes = (
{
closed = 1;
nodes = (
(190,0,l),
(190,137,l),
(227,16,o),
(324,-18,o),
(400,-18,cs),
(531,-18,o),
(622,85,o),
(622,213,cs),
(622,322,o),
(557,398,o),
(454,398,cs),
(361,398,o),
(315,341,o),
(315,287,cs),
(315,279,o),
(316,269,o),
(319,260,c),
(325,263,o),
(328,263,o),
(330,263,c),
(348,263,o),
(357,247,o),
(357,225.886,cs),
(357,190,o),
(331,167,o),
(291,167,cs),
(219,167,o),
(190,240,o),
(190,302,c),
(190,303,l),
(30,303,l),
(30,0,l)
);
},
{
closed = 1;
nodes = (
(30,426,o),
(99,356,o),
(189,356,cs),
(261,356,o),
(299,401,o),
(299,451,cs),
(299,458,o),
(298,465,o),
(297,472,c),
(294,470,o),
(289,469,o),
(285,469,cs),
(270,469,o),
(257,481,o),
(257,503.23,cs),
(257,537,o),
(287,556,o),
(322,556,cs),
(398,556,o),
(411,467,o),
(411,439,c),
(571,439,l),
(571,700,l),
(411,700,l),
(411,583,l),
(379,686,o),
(297,718,o),
(225,718,cs),
(111,718,o),
(30,636,o),
(30,526,cs)
);
}
);
width = 642;
}
);
metricLeft = S;
metricRight = S;
unicode = 115;
},
{
glyphname = t;
kernLeft = t_2nd;
kernRight = t1_1st;
lastChange = "2025-02-19 09:35:26 +0000";
layers = (
{
anchors = (
{
name = top;
pos = (300,750);
}
);
guides = (
{
angle = 90;
pos = (300,0);
},
{
angle = 90;
pos = (300,0);
}
);
layerId = "31EFE2D6-0164-4AD7-8F6B-9BF26915FE8D";
shapes = (
{
closed = 1;
nodes = (
(10,700,l),
(370,700,ls),
(385,700,o),
(391,704,o),
(391,714,cs),
(391,721,o),
(386,727,o),
(381,732,c),
(414,765,o),
(445,781,o),
(480,781,cs),
(546,781,o),
(590,722,o),
(590,657,cs),
(590,583,o),
(534,530,o),
(456,530,cs),
(180,530,ls),
(150,530,o),
(130,510,o),
(130,480,cs),
(130,439,l),
(10,439,l)
);
},
{
closed = 1;
nodes = (
(142,0,l),
(142,170,l),
(148,170,ls),
(178,170,o),
(198,190,o),
(198,220,cs),
(198,470,l),
(398,470,l),
(398,220,ls),
(398,190,o),
(418,170,o),
(448,170,cs),
(454,170,l),
(454,0,l)
);
}
);
width = 600;
}
);
metricLeft = T;
metricRight = T;
unicode = 116;
},
{
color = 3;
glyphname = tcedilla;
kernLeft = t_2nd;
kernRight = t1_1st;
lastChange = "2025-02-19 09:41:33 +0000";
layers = (
{
background = {
shapes = (
{
closed = 1;
nodes = (
(358,-356,o),
(436,-305,o),
(436,-224,cs),
(436,-184,o),
(416,-116,o),
(290,-96,c),
(313,-54,l),
(217,-54,l),
(167,-146,l),
(200,-146,o),
(298,-147,o),
(298,-195.006,cs),
(298,-215,o),
(281,-224,o),
(265,-224,cs),
(243,-224,o),
(222,-208,o),
(222,-188,c),
(188,-188,o),
(144,-210,o),
(144,-263,cs),
(144,-334,o),
(224,-356,o),
(277,-356,cs)
);
}
);
};
layerId = "31EFE2D6-0164-4AD7-8F6B-9BF26915FE8D";
shapes = (
{
alignment = -1;
ref = t;
},
{
pos = (119.166,0);
ref = cedilla;
}
);
width = 600;
}
);
metricLeft = "=Tcedilla";
metricRight = "=Tcedilla";
unicode = 355;
},
{
glyphname = u;
kernLeft = u_2nd;
kernRight = u1_1st;
lastChange = "2025-02-19 09:35:26 +0000";
layers = (
{
anchors = (
{
name = bottom;
pos = (558,-54);
},
{
name = top;
pos = (364,750);
}
);
guides = (
{
angle = 90;
pos = (364,0);
},
{
angle = 90;
pos = (364,0);
}
);
layerId = "31EFE2D6-0164-4AD7-8F6B-9BF26915FE8D";
shapes = (
{
closed = 1;
nodes = (
(22,700,l),
(22,530,l),
(28,530,ls),
(58,530,o),
(78,510,o),
(78,480,cs),
(78,259,ls),
(78,84,o),
(189,-18,o),
(362,-18,cs),
(537,-18,o),
(646,87,o),
(646,237.427,cs),
(646,333,o),
(602,392,o),
(532.318,392,cs),
(481,392,o),
(445,360,o),
(445,317.018,cs),
(445,301,o),
(450,286,o),
(461,268,c),
(465,271,o),
(469,273,o),
(473.783,273,cs),
(485,273,o),
(489,262,o),
(489,244.077,cs),
(489,186,o),
(447,145,o),
(385,145,cs),
(318,145,o),
(278,194,o),
(278,279,cs),
(278,480,ls),
(278,510,o),
(298,530,o),
(328,530,cs),
(334,530,l),
(334,700,l)
);
},
{
closed = 1;
nodes = (
(435,530,l),
(441,530,ls),
(471,530,o),
(491,510,o),
(491,480,cs),
(491,431,l),
(631,431,l),
(631,480,ls),
(631,510,o),
(651,530,o),
(681,530,cs),
(687,530,l),
(687,700,l),
(435,700,l)
);
}
);
width = 709;
}
);
metricLeft = U;
metricRight = U;
unicode = 117;
},
{
glyphname = v;
lastChange = "2025-02-19 09:35:26 +0000";
layers = (
{
layerId = "31EFE2D6-0164-4AD7-8F6B-9BF26915FE8D";
shapes = (
{
closed = 1;
nodes = (
(604,0,l),
(604,170,l),
(598,170,ls),
(568,170,o),
(553,189,o),
(561,218,cs),
(588,322,l),
(408,322,l),
(378,209,l),
(310,481,ls),
(303,510,o),
(318,530,o),
(348,530,cs),
(354,530,l),
(354,700,l),
(10,700,l),
(10,530,l),
(36,530,ls),
(66,530,o),
(91,511,o),
(98,482,cs),
(165,218,ls),
(172,189,o),
(157,170,o),
(127,170,cs),
(121,170,l),
(121,0,l)
);
},
{
closed = 1;
nodes = (
(471,718,o),
(397,678,o),
(397,601,cs),
(397,544,o),
(437,510,o),
(492,510,c),
(492,526,o),
(501,536,o),
(515,536,cs),
(529,536,o),
(538,526,o),
(538,510,cs),
(538,478,o),
(502,448,o),
(441,448,c),
(419,364,l),
(630,364,o),
(726,448,o),
(726,563,cs),
(726,667,o),
(647,718,o),
(554,718,cs)
);
}
);
width = 736;
}
);
metricLeft = V;
metricRight = V;
unicode = 118;
},
{
glyphname = w;
kernLeft = w_2nd;
kernRight = w1_1st;
lastChange = "2025-02-19 09:35:26 +0000";
layers = (
{
anchors = (
{
name = top;
pos = (532,750);
}
);
guides = (
{
angle = 90;
pos = (532,0);
},
{
angle = 90;
pos = (532,0);
}
);
layerId = "31EFE2D6-0164-4AD7-8F6B-9BF26915FE8D";
shapes = (
{
closed = 1;
nodes = (
(22,700,l),
(22,530,l),
(28,530,ls),
(58,530,o),
(81,510,o),
(84,480,cs),
(112,220,ls),
(115,190,o),
(98,170,o),
(68,170,cs),
(62,170,l),
(62,0,l),
(527,0,l),
(527,170,l),
(522,170,ls),
(502,170,o),
(490,178,o),
(490,191,cs),
(490,197,o),
(493,205,o),
(498,213,cs),
(641,443,l),
(658,472,o),
(669,506,o),
(669,540,cs),
(669,613,o),
(618,664,o),
(549,664,cs),
(481,664,o),
(431,615,o),
(431,559,cs),
(431,537,o),
(437,519,o),
(449,501,c),
(454,505,o),
(458,507,o),
(463,507,cs),
(471,507,o),
(477,501,o),
(477,490,cs),
(477,484,o),
(475,478,o),
(472,472,cs),
(320,207,l),
(290,480,ls),
(287,510,o),
(304,530,o),
(334,530,cs),
(340,530,l),
(340,700,l)
);
},
{
closed = 1;
nodes = (
(589,266,l),
(643,133,ls),
(686,26,o),
(750,-18,o),
(839,-18,cs),
(937,-18,o),
(1004,42,o),
(1004,127,cs),
(1004,201,o),
(953,260,o),
(887,260,cs),
(866,260,o),
(847,254,o),
(832,245,c),
(833,243,o),
(834,240,o),
(834,237,cs),
(834,227,o),
(827,217,o),
(815,217,cs),
(803,217,o),
(795,226,o),
(789,240,cs),
(699,450,l)
);
},
{
closed = 1;
nodes = (
(770,530,l),
(776,530,ls),
(806,530,o),
(824,510,o),
(820,480,cs),
(801,323,l),
(961,323,l),
(980,480,ls),
(984,510,o),
(1006,530,o),
(1036,530,cs),
(1042,530,l),
(1042,700,l),
(770,700,l)
);
}
);
width = 1064;
}
);
metricLeft = W;
metricRight = W;
unicode = 119;
},
{
color = 3;
glyphname = wdieresis;
kernLeft = w_2nd;
kernRight = w1_1st;
lastChange = "2025-02-19 09:40:35 +0000";
layers = (
{
background = {
shapes = (
{
closed = 1;
nodes = (
(22,700,l),
(22,530,l),
(28,530,ls),
(58,530,o),
(81,510,o),
(84,480,cs),
(112,220,ls),
(115,190,o),
(98,170,o),
(68,170,cs),
(62,170,l),
(62,0,l),
(527,0,l),
(527,170,l),
(522,170,ls),
(502,170,o),
(490,178,o),
(490,191,cs),
(490,197,o),
(493,205,o),
(498,213,cs),
(641,443,ls),
(658,472,o),
(669,506,o),
(669,540,cs),
(669,613,o),
(618,664,o),
(549,664,cs),
(481,664,o),
(431,615,o),
(431,559,cs),
(431,537,o),
(437,519,o),
(449,501,c),
(454,505,o),
(458,507,o),
(463,507,cs),
(471,507,o),
(477,501,o),
(477,490,cs),
(477,484,o),
(475,478,o),
(472,472,cs),
(320,207,l),
(290,480,ls),
(287,510,o),
(304,530,o),
(334,530,cs),
(340,530,l),
(340,700,l)
);
},
{
closed = 1;
nodes = (
(589,266,l),
(643,133,ls),
(686,26,o),
(750,-18,o),
(839,-18,cs),
(937,-18,o),
(1004,42,o),
(1004,127,cs),
(1004,201,o),
(953,260,o),
(887,260,cs),
(866,260,o),
(847,254,o),
(832,245,c),
(833,243,o),
(834,240,o),
(834,237,cs),
(834,227,o),
(827,217,o),
(815,217,cs),
(803,217,o),
(795,226,o),
(789,240,cs),
(699,450,l)
);
},
{
closed = 1;
nodes = (
(770,530,l),
(776,530,ls),
(806,530,o),
(824,510,o),
(820,480,cs),
(801,323,l),
(961,323,l),
(980,480,ls),
(984,510,o),
(1006,530,o),
(1036,530,cs),
(1042,530,l),
(1042,700,l),
(770,700,l)
);
}
);
};
layerId = "31EFE2D6-0164-4AD7-8F6B-9BF26915FE8D";
shapes = (
{
alignment = -1;
pos = (235,0);
ref = dieresis;
},
{
alignment = -1;
ref = w;
}
);
width = 1064;
}
);
metricLeft = Wdieresis;
metricRight = Wdieresis;
unicode = 7813;
},
{
glyphname = x;
lastChange = "2025-02-19 09:35:26 +0000";
layers = (
{
guides = (
{
angle = 90;
pos = (352,0);
},
{
angle = 90;
pos = (352,0);
}
);
layerId = "31EFE2D6-0164-4AD7-8F6B-9BF26915FE8D";
shapes = (
{
closed = 1;
nodes = (
(238,162,o),
(249,149,o),
(262,149,cs),
(267,149,o),
(273,151,o),
(278,156,c),
(288,140,o),
(294,120,o),
(294,100,cs),
(294,47,o),
(253,-18,o),
(160.689,-18,cs),
(72,-18,o),
(10,42,o),
(10,120.348,cs),
(10,190,o),
(59,252,o),
(197,333,c),
(264,217,l),
(246,203,o),
(238,190,o),
(238,177.112,cs)
);
},
{
closed = 1;
nodes = (
(474,550,o),
(463,562,o),
(451,562,cs),
(446,562,o),
(441,560,o),
(436,556,c),
(427,570,o),
(423,586,o),
(423,603,cs),
(423,657,o),
(466,718,o),
(549.242,718,cs),
(629,718,o),
(687,662,o),
(687,589.006,cs),
(687,524,o),
(641,466,o),
(512,390,c),
(449,499,l),
(466,512,o),
(474,524,o),
(474,535.967,cs)
);
},
{
closed = 1;
nodes = (
(155,487,ls),
(140,513,o),
(110,530,o),
(80,530,cs),
(45,530,l),
(45,700,l),
(287,700,l),
(567,213,ls),
(582,187,o),
(612,170,o),
(642,170,cs),
(669,170,l),
(669,0,l),
(435,0,l)
);
}
);
width = 697;
}
);
metricLeft = X;
metricRight = X;
unicode = 120;
},
{
glyphname = y;
kernLeft = y_2nd;
kernRight = y1_1st;
lastChange = "2025-02-19 09:35:26 +0000";
layers = (
{
anchors = (
{
name = top;
pos = (392,750);
}
);
guides = (
{
angle = 90;
pos = (392,0);
},
{
angle = 90;
pos = (392,0);
}
);
layerId = "31EFE2D6-0164-4AD7-8F6B-9BF26915FE8D";
shapes = (
{
closed = 1;
nodes = (
(239,350,o),
(275,285,o),
(275,232,cs),
(275,223,o),
(274,216,o),
(270,208,c),
(268,209,o),
(265,210,o),
(262,210,cs),
(249,210,o),
(238,196,o),
(238,179,cs),
(238,158,o),
(255,145,o),
(273,145,cs),
(293,145,o),
(311,160,o),
(326,187,cs),
(481,474,ls),
(502,513,o),
(509,527,o),
(509,538,cs),
(509,548,o),
(502,554,o),
(497,554,cs),
(490,554,o),
(486,551,o),
(481,546,c),
(468,559,o),
(455,580,o),
(455,612,cs),
(455,674,o),
(506,718,o),
(576,718,cs),
(649,718,o),
(704,670,o),
(704,593,cs),
(704,557,o),
(692,515,o),
(663,462,cs),
(481,133,ls),
(424,29,o),
(353,-18,o),
(253,-18,cs),
(84,-18,o),
(10,73,o),
(10,182,cs),
(10,285,o),
(77,350,o),
(158,350,cs)
);
},
{
closed = 1;
nodes = (
(81,530,l),
(81,700,l),
(413,700,l),
(413,530,l),
(397,530,ls),
(378,530,o),
(368,524,o),
(368,513,cs),
(368,507,o),
(371,499,o),
(378,491,cs),
(410,451,l),
(317,282,l),
(145,506,ls),
(134,520,o),
(117,530,o),
(97,530,cs)
);
}
);
width = 714;
}
);
metricLeft = Y;
metricRight = Y;
unicode = 121;
},
{
glyphname = z;
lastChange = "2025-02-19 09:35:26 +0000";
layers = (
{
anchors = (
{
name = top;
pos = (323,750);
}
);
guides = (
{
angle = 41.379;
pos = (113,294);
showMeasurement = 1;
},
{
angle = 41.379;
pos = (113,37);
showMeasurement = 1;
},
{
angle = 90;
pos = (323,0);
}
);
layerId = "31EFE2D6-0164-4AD7-8F6B-9BF26915FE8D";
shapes = (
{
closed = 1;
nodes = (
(25,191,o),
(53,241,o),
(99,282,cs),
(361,512,ls),
(368,518,o),
(374,529,o),
(374,536,cs),
(374,549,o),
(365,558,o),
(353,558,cs),
(350,558,o),
(346,557,o),
(343,556,c),
(338,572,o),
(336,586,o),
(336,601,cs),
(336,670,o),
(393,718,o),
(476,718,cs),
(562,718,o),
(620,659,o),
(620,574.035,cs),
(620,515,o),
(592,459,o),
(550,422,cs),
(282,186,ls),
(275,180,o),
(271,172,o),
(271,164,cs),
(271,150,o),
(281,144,o),
(293,144,cs),
(296,144,o),
(299,144,o),
(302,145,c),
(307,129,o),
(309,114,o),
(309,100,cs),
(309,30,o),
(254,-18,o),
(179,-18,cs),
(93,-18,o),
(25,51,o),
(25,136.278,cs)
);
},
{
closed = 1;
nodes = (
(223,530,ls),
(193,530,o),
(173,510,o),
(173,480,cs),
(173,465,l),
(53,465,l),
(53,700,l),
(279,700,l),
(279,530,l)
);
},
{
closed = 1;
nodes = (
(447,170,ls),
(477,170,o),
(497,190,o),
(497,220,cs),
(497,235,l),
(617,235,l),
(617,0,l),
(380,0,l),
(380,170,l)
);
}
);
width = 645;
}
);
metricLeft = Z;
metricRight = Z;
unicode = 122;
},
{
glyphname = pi;
lastChange = "2025-02-19 09:35:26 +0000";
layers = (
{
layerId = "31EFE2D6-0164-4AD7-8F6B-9BF26915FE8D";
shapes = (
{
closed = 1;
nodes = (
(650,638,ls),
(665,638,o),
(671,642,o),
(671,652,cs),
(671,659,o),
(666,665,o),
(661,670,c),
(694,703,o),
(725,719,o),
(760,719,cs),
(826,719,o),
(870,660,o),
(870,595,cs),
(870,521,o),
(814,468,o),
(736,468,cs),
(180,468,ls),
(150,468,o),
(130,448,o),
(130,418,cs),
(130,377,l),
(10,377,l),
(10,638,l)
);
},
{
closed = 1;
nodes = (
(504,408,l),
(704,408,l),
(704,236,ls),
(704,217,o),
(712,207,o),
(725,207,cs),
(735,207,o),
(743,214,o),
(747,227,c),
(788,203,o),
(811,160,o),
(811,112,cs),
(811,36,o),
(752,-18,o),
(661,-18,cs),
(561,-18,o),
(504,47,o),
(504,172,cs)
);
},
{
closed = 1;
nodes = (
(132,170,l),
(138,170,ls),
(168,170,o),
(188,190,o),
(188,220,cs),
(188,408,l),
(388,408,l),
(388,220,ls),
(388,190,o),
(408,170,o),
(438,170,cs),
(444,170,l),
(444,0,l),
(132,0,l)
);
}
);
width = 880;
}
);
metricLeft = T;
metricRight = T;
unicode = 960;
},
{
glyphname = zero;
lastChange = "2025-02-19 09:35:26 +0000";
layers = (
{
anchors = (
{
name = top;
pos = (315,750);
}
);
layerId = "31EFE2D6-0164-4AD7-8F6B-9BF26915FE8D";
shapes = (
{
closed = 1;
nodes = (
(372,234,l),
(363,180,o),
(340,145,o),
(300,145,cs),
(268,145,o),
(235,168,o),
(235,216,cs),
(235,238,o),
(244,256,o),
(259,256,cs),
(265,256,o),
(270,254,o),
(273,251,c),
(289,268,o),
(296,286,o),
(296,310,cs),
(296,383,o),
(231,428,o),
(162,428,cs),
(83,428,o),
(20,368,o),
(20,260,cs),
(20,115,o),
(126,-18,o),
(315,-18,cs),
(479,-18,o),
(588,71,o),
(605,234,c)
);
},
{
closed = 1;
nodes = (
(264,466,l),
(273,520,o),
(296,555,o),
(336,555,cs),
(368,555,o),
(401,532,o),
(401,484,cs),
(401,462,o),
(392,444,o),
(377,444,cs),
(371,444,o),
(366,446,o),
(363,449,c),
(347,432,o),
(340,414,o),
(340,390,cs),
(340,317,o),
(405,272,o),
(474,272,cs),
(553,272,o),
(616,332,o),
(616,440,cs),
(616,585,o),
(510,718,o),
(321,718,cs),
(157,718,o),
(48,629,o),
(31,466,c)
);
}
);
width = 636;
}
);
metricLeft = O;
metricRight = O;
unicode = 48;
},
{
glyphname = one;
lastChange = "2025-02-19 09:35:26 +0000";
layers = (
{
layerId = "31EFE2D6-0164-4AD7-8F6B-9BF26915FE8D";
shapes = (
{
closed = 1;
nodes = (
(88,0,l),
(524,0,l),
(524,170,l),
(478,170,ls),
(448,170,o),
(428,190,o),
(428,220,cs),
(428,406,l),
(228,306,l),
(228,220,ls),
(228,190,o),
(208,170,o),
(178,170,cs),
(88,170,l)
);
},
{
closed = 1;
nodes = (
(356,375,o),
(429,505,o),
(429,700,c),
(309,700,l),
(309,597,o),
(276,523,o),
(232,523,cs),
(214,523,o),
(202,535,o),
(202,548,cs),
(202,558,o),
(208,569,o),
(228,569,c),
(228,630,o),
(192,674,o),
(129,674,cs),
(52,674,o),
(10,608,o),
(10,535,cs),
(10,447,o),
(72,375,o),
(193,375,cs)
);
}
);
width = 554;
}
);
metricLeft = V;
metricRight = I;
unicode = 49;
},
{
glyphname = two;
lastChange = "2025-02-19 09:35:26 +0000";
layers = (
{
layerId = "31EFE2D6-0164-4AD7-8F6B-9BF26915FE8D";
shapes = (
{
closed = 1;
nodes = (
(424,220,ls),
(424,190,o),
(403,170,o),
(374,170,cs),
(290,170,ls),
(272,170,o),
(263,175,o),
(263,183,cs),
(263,188,o),
(268,196,o),
(277,204,cs),
(448,362,l),
(218,362,l),
(10,170,l),
(10,0,l),
(564,0,l),
(564,285,l),
(424,285,l)
);
},
{
closed = 1;
nodes = (
(38,700,l),
(38,451,l),
(198,451,l),
(198,520,o),
(236,569,o),
(293,569,cs),
(327,569,o),
(350,551,o),
(350,528,cs),
(350,512,o),
(339,497,o),
(328,497,c),
(328,439,o),
(372,400,o),
(436,400,cs),
(516,400,o),
(560,458,o),
(560,533,cs),
(560,636,o),
(483,718,o),
(382,718,cs),
(322,718,o),
(231,693,o),
(198,596,c),
(198,700,l)
);
}
);
width = 594;
}
);
metricLeft = V;
metricRight = I;
unicode = 50;
},
{
glyphname = three;
lastChange = "2025-02-19 09:35:26 +0000";
layers = (
{
layerId = "31EFE2D6-0164-4AD7-8F6B-9BF26915FE8D";
shapes = (
{
closed = 1;
nodes = (
(498,-18,o),
(621,74,o),
(621,197,cs),
(621,317,o),
(502,383,o),
(290,383,c),
(290,309,l),
(351,309,o),
(394,267,o),
(394,215,cs),
(394,170,o),
(361,145,o),
(310,145,cs),
(262,145,o),
(228,167,o),
(228,195,cs),
(228,209,o),
(238,226,o),
(257,226,c),
(257,304,o),
(216,352,o),
(150,352,cs),
(76,352,o),
(20,293,o),
(20,211,cs),
(20,87,o),
(139,-18,o),
(324,-18,cs)
);
},
{
closed = 1;
nodes = (
(64,700,l),
(64,451,l),
(224,451,l),
(224,520,o),
(262,569,o),
(319,569,cs),
(353,569,o),
(376,551,o),
(376,528,cs),
(376,512,o),
(365,497,o),
(354,497,c),
(354,439,o),
(398,400,o),
(462,400,cs),
(542,400,o),
(586,458,o),
(586,533,cs),
(586,636,o),
(509,718,o),
(408,718,cs),
(348,718,o),
(257,693,o),
(224,596,c),
(224,700,l)
);
}
);
width = 641;
}
);
metricLeft = O;
metricRight = O;
unicode = 51;
},
{
glyphname = four;
lastChange = "2025-02-19 09:35:26 +0000";
layers = (
{
layerId = "31EFE2D6-0164-4AD7-8F6B-9BF26915FE8D";
shapes = (
{
closed = 1;
nodes = (
(279,0,l),
(279,170,l),
(329,170,ls),
(359,170,o),
(379,190,o),
(379,220,cs),
(379,700,l),
(635,700,l),
(635,530,l),
(629,530,ls),
(599,530,o),
(579,510,o),
(579,480,cs),
(579,220,ls),
(579,190,o),
(599,170,o),
(629,170,cs),
(635,170,l),
(635,0,l)
);
},
{
closed = 1;
nodes = (
(10,247,l),
(10,377,l),
(109,377,o),
(189,430,o),
(189,491,cs),
(189,522,o),
(168,541,o),
(148,541,cs),
(133,541,o),
(120,529,o),
(120,517,c),
(60,517,o),
(20,555,o),
(20,612,cs),
(20,675,o),
(71,718,o),
(150,718,cs),
(255,718,o),
(338,641,o),
(338,538,cs),
(338,487,o),
(318,413,o),
(244,377,c),
(319,377,l),
(319,247,l)
);
}
);
width = 665;
}
);
metricLeft = V;
metricRight = I;
unicode = 52;
},
{
glyphname = five;
lastChange = "2025-02-19 09:35:26 +0000";
layers = (
{
layerId = "31EFE2D6-0164-4AD7-8F6B-9BF26915FE8D";
shapes = (
{
closed = 1;
nodes = (
(498,-18,o),
(621,74,o),
(621,197,cs),
(621,317,o),
(502,383,o),
(290,383,c),
(290,309,l),
(351,309,o),
(394,267,o),
(394,215,cs),
(394,170,o),
(361,145,o),
(310,145,cs),
(262,145,o),
(228,167,o),
(228,195,cs),
(228,209,o),
(238,226,o),
(257,226,c),
(257,304,o),
(216,352,o),
(150,352,cs),
(76,352,o),
(20,293,o),
(20,211,cs),
(20,87,o),
(139,-18,o),
(324,-18,cs)
);
},
{
closed = 1;
nodes = (
(244,403,l),
(244,551,l),
(279,451,o),
(374,413,o),
(439,413,cs),
(532,413,o),
(606,491,o),
(606,593,cs),
(606,663,o),
(563,718,o),
(485,718,cs),
(428,718,o),
(380,683,o),
(380,624,c),
(392,624,o),
(403,607,o),
(403,590,cs),
(403,567,o),
(380,550,o),
(348.857,550,cs),
(278,550,o),
(244,638,o),
(244,700,c),
(84,700,l),
(84,403,l)
);
}
);
width = 641;
}
);
metricLeft = O;
metricRight = O;
unicode = 53;
},
{
glyphname = six;
lastChange = "2025-02-19 09:35:26 +0000";
layers = (
{
layerId = "31EFE2D6-0164-4AD7-8F6B-9BF26915FE8D";
shapes = (
{
closed = 1;
nodes = (
(496,-18,o),
(621,76,o),
(621,205.691,cs),
(621,329,o),
(508,393,o),
(290,393,c),
(290,319,l),
(352,319,o),
(394,281,o),
(394,224.808,cs),
(394,175,o),
(361,145,o),
(308.208,145,cs),
(263,145,o),
(228,167,o),
(228,195,cs),
(228,212,o),
(241,226,o),
(257,226,c),
(257,302,o),
(212,352,o),
(144,352,cs),
(71,352,o),
(20,295,o),
(20,211,cs),
(20,80,o),
(148,-18,o),
(323.813,-18,cs)
);
},
{
closed = 1;
nodes = (
(291,579,o),
(239,501,o),
(239,403,c),
(39,403,l),
(39,591,o),
(164,718,o),
(351,718,cs),
(496,718,o),
(600,638,o),
(600,526.284,cs),
(600,457,o),
(560,410,o),
(496.257,410,cs),
(436,410,o),
(395,452,o),
(395,516,c),
(411,516,o),
(420,523,o),
(420,535.386,cs),
(420,558,o),
(390,579,o),
(356.18,579,cs)
);
}
);
width = 641;
}
);
metricLeft = O;
metricRight = O;
unicode = 54;
},
{
glyphname = seven;
lastChange = "2025-02-19 09:35:26 +0000";
layers = (
{
layerId = "31EFE2D6-0164-4AD7-8F6B-9BF26915FE8D";
shapes = (
{
closed = 1;
nodes = (
(10,700,l),
(10,423,l),
(170,423,l),
(170,551,l),
(198,470,o),
(279,413,o),
(365,413,cs),
(458,413,o),
(532,491,o),
(532,589,cs),
(532,663,o),
(489,718,o),
(411,718,cs),
(354,718,o),
(306,683,o),
(306,624,c),
(318,624,o),
(329,607,o),
(329,590,cs),
(329,567,o),
(306,550,o),
(279.756,550,cs),
(225,550,o),
(170,624,o),
(170,700,c)
);
},
{
closed = 1;
nodes = (
(66,170,l),
(66,0,l),
(422,0,l),
(422,170,l),
(416,170,ls),
(386,170,o),
(372,189,o),
(381,218,cs),
(426,361,l),
(233,361,l),
(183,217,ls),
(173,189,o),
(146,170,o),
(116,170,cs)
);
}
);
width = 542;
}
);
metricLeft = V;
metricRight = V;
unicode = 55;
},
{
glyphname = eight;
lastChange = "2025-02-19 09:35:26 +0000";
layers = (
{
layerId = "31EFE2D6-0164-4AD7-8F6B-9BF26915FE8D";
shapes = (
{
closed = 1;
nodes = (
(496,-17,o),
(621,78,o),
(621,192.335,cs),
(621,318,o),
(470,366,o),
(287,366,c),
(287,291,l),
(356,291,o),
(392,252,o),
(392,212.061,cs),
(392,175,o),
(361,144,o),
(307.276,144,cs),
(261,144,o),
(227,167,o),
(227,194,cs),
(227,209,o),
(238,226,o),
(256,226,c),
(256,304,o),
(217,353,o),
(142.471,353,cs),
(60,353,o),
(20,293,o),
(20,217.197,cs),
(20,87,o),
(138,-17,o),
(321.05,-17,cs)
);
},
{
closed = 1;
nodes = (
(168,717,o),
(63,636,o),
(63,539.323,cs),
(63,433,o),
(190,393,o),
(345,393,c),
(345,456,l),
(287,456,o),
(256,489,o),
(256,522.622,cs),
(256,554,o),
(283,580,o),
(328.287,580,cs),
(367,580,o),
(396,561,o),
(396,537,cs),
(396,525,o),
(387,511,o),
(371,511,c),
(371,445,o),
(404,404,o),
(467.203,404,cs),
(537,404,o),
(571,454,o),
(571,518.457,cs),
(571,629,o),
(471,717,o),
(316.361,717,cs)
);
}
);
width = 641;
}
);
metricLeft = O;
metricRight = O;
unicode = 56;
},
{
glyphname = nine;
lastChange = "2025-02-19 09:35:26 +0000";
layers = (
{
layerId = "31EFE2D6-0164-4AD7-8F6B-9BF26915FE8D";
shapes = (
{
closed = 1;
nodes = (
(146,718,o),
(20,632,o),
(20,513.552,cs),
(20,397,o),
(142,328,o),
(330,328,c),
(330,398,l),
(268,398,o),
(221,436,o),
(221,485.495,cs),
(221,530,o),
(259,563,o),
(312.957,563,cs),
(356,563,o),
(389,542,o),
(389,513.095,cs),
(389,498,o),
(380,486,o),
(362,486,c),
(362,414,o),
(406,366,o),
(470.542,366,cs),
(539,366,o),
(587,420,o),
(587,500,cs),
(587,624,o),
(466,718,o),
(302.443,718,cs)
);
},
{
closed = 1;
nodes = (
(347,145,o),
(371,193,o),
(371,287,c),
(371,317,l),
(571,317,l),
(571,287,l),
(571,116,o),
(478,-18,o),
(298,-18,cs),
(153,-18,o),
(37,62,o),
(37,178.368,cs),
(37,254,o),
(86,307,o),
(154.102,307,cs),
(214,307,o),
(255,266,o),
(255,194,c),
(239,194,o),
(228,186,o),
(228,173.901,cs),
(228,158,o),
(247,145,o),
(281.229,145,cs)
);
}
);
width = 607;
}
);
metricLeft = O;
metricRight = O;
unicode = 57;
},
{
glyphname = period;
kernLeft = period_2nd;
kernRight = period1_1st;
lastChange = "2025-02-19 09:35:26 +0000";
layers = (
{
layerId = "31EFE2D6-0164-4AD7-8F6B-9BF26915FE8D";
shapes = (
{
closed = 1;
nodes = (
(25,173,o),
(77,221,o),
(155,221,cs),
(232,221,o),
(284,173,o),
(284,102,cs),
(284,30,o),
(232,-18,o),
(155,-18,cs),
(77,-18,o),
(25,30,o),
(25,102,cs)
);
}
);
width = 309;
}
);
unicode = 46;
},
{
glyphname = comma;
lastChange = "2025-02-19 09:35:26 +0000";
layers = (
{
layerId = "31EFE2D6-0164-4AD7-8F6B-9BF26915FE8D";
shapes = (
{
closed = 1;
nodes = (
(218,-128,l),
(271,-58,o),
(298,-15,o),
(298,54,cs),
(298,143,o),
(253,221,o),
(153,221,cs),
(75,221,o),
(25,174,o),
(25,114,cs),
(25,78,o),
(43,43,o),
(83,28,c),
(92,45,o),
(104,54,o),
(118.243,54,cs),
(140,54,o),
(159,33,o),
(159,-4.001,cs),
(159,-39,o),
(142,-83,o),
(112,-128,c)
);
}
);
width = 323;
}
);
unicode = 44;
},
{
glyphname = semicolon;
lastChange = "2025-02-19 09:35:26 +0000";
layers = (
{
layerId = "31EFE2D6-0164-4AD7-8F6B-9BF26915FE8D";
shapes = (
{
closed = 1;
nodes = (
(28,373,o),
(80,325,o),
(158,325,cs),
(235,325,o),
(287,373,o),
(287,445,cs),
(287,516,o),
(235,564,o),
(158,564,cs),
(80,564,o),
(28,516,o),
(28,445,cs)
);
},
{
closed = 1;
nodes = (
(218,-128,l),
(271,-58,o),
(298,-15,o),
(298,54,cs),
(298,143,o),
(253,221,o),
(151,221,cs),
(75,221,o),
(25,174,o),
(25,114,cs),
(25,78,o),
(43,43,o),
(83,28,c),
(92,45,o),
(104,54,o),
(118.243,54,cs),
(140,54,o),
(152,33,o),
(152,-6.13,cs),
(152,-68,o),
(122,-113,o),
(112,-128,c)
);
}
);
width = 323;
}
);
unicode = 59;
},
{
glyphname = exclam;
lastChange = "2025-02-19 09:35:26 +0000";
layers = (
{
layerId = "31EFE2D6-0164-4AD7-8F6B-9BF26915FE8D";
shapes = (
{
closed = 1;
nodes = (
(25,530,l),
(31,530,ls),
(61,530,o),
(81,510,o),
(81,480,cs),
(81,278,l),
(281,278,l),
(281,480,ls),
(281,510,o),
(301,530,o),
(331,530,cs),
(337,530,l),
(337,700,l),
(25,700,l)
);
},
{
closed = 1;
nodes = (
(257,-18,o),
(309,30,o),
(309,102,cs),
(309,173,o),
(257,221,o),
(180,221,cs),
(102,221,o),
(50,173,o),
(50,102,cs),
(50,30,o),
(102,-18,o),
(180,-18,cs)
);
}
);
width = 362;
}
);
unicode = 33;
},
{
glyphname = question;
lastChange = "2025-02-19 09:35:26 +0000";
layers = (
{
layerId = "31EFE2D6-0164-4AD7-8F6B-9BF26915FE8D";
shapes = (
{
closed = 1;
nodes = (
(128,718,o),
(10,613,o),
(10,489,cs),
(10,407,o),
(66,348,o),
(140,348,cs),
(206,348,o),
(247,396,o),
(247,474,c),
(228,474,o),
(218,491,o),
(218,505,cs),
(218,533,o),
(252,555,o),
(296.499,555,cs),
(351,555,o),
(384,522,o),
(384,464.598,cs),
(384,403,o),
(346,352,o),
(280,352,c),
(280,278,l),
(492,278,o),
(611,351,o),
(611,482.632,cs),
(611,617,o),
(487,718,o),
(309.243,718,cs)
);
},
{
closed = 1;
nodes = (
(179,30,o),
(231,-18,o),
(309,-18,cs),
(386,-18,o),
(438,30,o),
(438,102,cs),
(438,173,o),
(386,221,o),
(309,221,cs),
(231,221,o),
(179,173,o),
(179,102,cs)
);
}
);
width = 621;
}
);
metricLeft = V;
metricRight = V;
unicode = 63;
},
{
glyphname = bullet;
lastChange = "2025-02-19 09:35:26 +0000";
layers = (
{
layerId = "31EFE2D6-0164-4AD7-8F6B-9BF26915FE8D";
shapes = (
{
closed = 1;
nodes = (
(207,277,o),
(211,248,o),
(257,248,cs),
(281,248,o),
(316,255,o),
(367,277,c),
(389,209,l),
(330,181,o),
(276,168,o),
(229,168,cs),
(101,168,o),
(25,260,o),
(25,351,cs),
(25,462,o),
(109,532,o),
(212.387,532,cs),
(298,532,o),
(376,484,o),
(376,399,cs),
(376,328,o),
(327,288,o),
(259,288,c),
(259,311,o),
(246,316,o),
(235.324,316,cs),
(221,316,o),
(207,307,o),
(207,287,cs)
);
}
);
width = 414;
}
);
unicode = 8226;
},
{
glyphname = asterisk;
lastChange = "2025-02-19 09:35:26 +0000";
layers = (
{
layerId = "31EFE2D6-0164-4AD7-8F6B-9BF26915FE8D";
shapes = (
{
closed = 1;
nodes = (
(125,433,o),
(144,441,o),
(159,459,c),
(151,467,o),
(147,476,o),
(147,484,cs),
(147,500,o),
(159,507,o),
(174,507,cs),
(203,507,o),
(240,485,o),
(260,465,c),
(185,442,o),
(105,394,o),
(105,314,cs),
(105,248,o),
(160,198,o),
(214,198,cs),
(258,198,o),
(293,231,o),
(293,273,cs),
(293,285,o),
(290,298,o),
(282,310,c),
(275,306,o),
(268,305,o),
(263,305,cs),
(250,305,o),
(240,313,o),
(240,327,cs),
(240,358,o),
(283,395,o),
(308,408,c),
(308,346,o),
(310,308,o),
(340,267,cs),
(366,231,o),
(402,207,o),
(440,207,cs),
(494,207,o),
(552,254,o),
(552,308,cs),
(552,346,o),
(521,383,o),
(482,383,cs),
(476,383,o),
(469,382,o),
(462,380,c),
(462,365,o),
(461,344,o),
(440,344,cs),
(409,344,o),
(383,391,o),
(377,435,c),
(414,422,o),
(442,415,o),
(469,415,cs),
(535,415,o),
(614,458,o),
(614,533,cs),
(614,589,o),
(571,641,o),
(521,641,cs),
(485,641,o),
(452,613,o),
(450,574,c),
(466,571,o),
(478,564,o),
(478,551,cs),
(478,527,o),
(437,508,o),
(396,508,cs),
(386,508,o),
(378,509,o),
(371,510,c),
(409,559,o),
(428,591,o),
(428,642,cs),
(428,711,o),
(393,771,o),
(317,771,cs),
(257,771,o),
(218,734,o),
(218,688,cs),
(218,661,o),
(232,634,o),
(263,622,c),
(270,635,o),
(279,642,o),
(290,642,cs),
(307,642,o),
(316,626,o),
(316,596,cs),
(316,568,o),
(308,545,o),
(300,528,c),
(258,588,o),
(215,631,o),
(146,631,cs),
(72,631,o),
(28,582,o),
(28,521,cs),
(28,474,o),
(54,433,o),
(103,433,cs)
);
}
);
width = 642;
}
);
unicode = 42;
},
{
glyphname = numbersign;
lastChange = "2025-02-19 09:35:26 +0000";
layers = (
{
guides = (
{
angle = 257.076;
pos = (377,383);
showMeasurement = 1;
},
{
angle = 257.076;
pos = (430,383);
showMeasurement = 1;
},
{
pos = (0,526);
},
{
angle = 257.076;
pos = (502,383);
showMeasurement = 1;
}
);
layerId = "31EFE2D6-0164-4AD7-8F6B-9BF26915FE8D";
shapes = (
{
closed = 1;
nodes = (
(387,190,l),
(458,190,l),
(452,169,o),
(445,131,o),
(445,101,cs),
(445,18,o),
(497,-54,o),
(591,-54,cs),
(668,-54,o),
(731,-5,o),
(731,80,cs),
(731,125,o),
(713,150,o),
(688,164,c),
(684,156,o),
(674,148,o),
(663,148,cs),
(652,148,o),
(644,156,o),
(644,168,cs),
(644,173,o),
(646,182,o),
(649,190,c),
(764,190,l),
(796,327,l),
(682,327,l),
(697,390,l),
(811,390,l),
(843,526,l),
(729,526,l),
(780,747,l),
(586,747,l),
(490,327,l),
(417,327,l)
);
},
{
closed = 1;
nodes = (
(139,190,l),
(88,-31,l),
(282,-31,l),
(378,389,l),
(451,389,l),
(481,526,l),
(409,526,l),
(415,547,o),
(422,585,o),
(422,615,cs),
(422,698,o),
(370,770,o),
(276,770,cs),
(199,770,o),
(136,721,o),
(136,636,cs),
(136,591,o),
(154,566,o),
(179,552,c),
(183,560,o),
(193,568,o),
(204,568,cs),
(215,568,o),
(223,560,o),
(223,548,cs),
(223,543,o),
(221,534,o),
(218,526,c),
(104,526,l),
(72,389,l),
(186,389,l),
(171,326,l),
(57,326,l),
(25,190,l)
);
}
);
width = 868;
}
);
unicode = 35;
},
{
glyphname = slash;
lastChange = "2025-02-19 09:35:26 +0000";
layers = (
{
layerId = "31EFE2D6-0164-4AD7-8F6B-9BF26915FE8D";
shapes = (
{
closed = 1;
nodes = (
(10,-54,l),
(204,-54,l),
(389,747,l),
(195,747,l)
);
}
);
width = 399;
}
);
metricLeft = V;
metricRight = V;
unicode = 47;
},
{
glyphname = hyphen;
kernLeft = minus_2nd;
kernRight = minus1_1st;
lastChange = "2025-02-19 09:35:26 +0000";
layers = (
{
layerId = "31EFE2D6-0164-4AD7-8F6B-9BF26915FE8D";
shapes = (
{
closed = 1;
nodes = (
(25,268,l),
(254,268,l),
(254,433,l),
(25,433,l)
);
}
);
width = 279;
}
);
metricLeft = minus;
metricRight = minus;
unicode = 45;
},
{
glyphname = emdash;
kernLeft = minus_2nd;
kernRight = minus1_1st;
lastChange = "2025-02-19 09:35:26 +0000";
layers = (
{
layerId = "31EFE2D6-0164-4AD7-8F6B-9BF26915FE8D";
shapes = (
{
closed = 1;
nodes = (
(25,268,l),
(939,268,l),
(939,433,l),
(25,433,l)
);
}
);
width = 964;
}
);
metricLeft = endash;
metricRight = endash;
unicode = 8212;
},
{
glyphname = parenleft;
lastChange = "2025-02-19 09:35:26 +0000";
layers = (
{
layerId = "31EFE2D6-0164-4AD7-8F6B-9BF26915FE8D";
shapes = (
{
closed = 1;
nodes = (
(397,-6,o),
(335,-54,o),
(249,-54,cs),
(115,-54,o),
(25,92,o),
(25,359,cs),
(25,619,o),
(115,771,o),
(249,771,cs),
(335,771,o),
(397,723,o),
(397,649,cs),
(397,595,o),
(361,571,o),
(325,571,cs),
(311,571,o),
(297,575,o),
(285,583,c),
(288,587,o),
(289,591,o),
(289,595,cs),
(289,604,o),
(282,609,o),
(270,609,cs),
(224,609,o),
(202,509,o),
(202,359,cs),
(202,208,o),
(224,108,o),
(270,108,cs),
(282,108,o),
(289,113,o),
(289,122,cs),
(289,126,o),
(288,130,o),
(285,134,c),
(297,142,o),
(311,146,o),
(325,146,cs),
(361,146,o),
(397,122,o),
(397,68,cs)
);
}
);
width = 422;
}
);
unicode = 40;
},
{
glyphname = braceleft;
lastChange = "2025-02-19 09:35:26 +0000";
layers = (
{
guides = (
{
pos = (0,358);
}
);
layerId = "31EFE2D6-0164-4AD7-8F6B-9BF26915FE8D";
shapes = (
{
closed = 1;
nodes = (
(10,418,l),
(10,286,l),
(100,286,ls),
(207,286,o),
(277,352,o),
(277,434,cs),
(277,576,o),
(292,619,o),
(334,619,cs),
(352,619,o),
(364,611,o),
(364,598,cs),
(364,594,o),
(362,587,o),
(359,583,c),
(371,575,o),
(385,571,o),
(399,571,cs),
(435,571,o),
(471,595,o),
(471,650,cs),
(471,723,o),
(409,771,o),
(323,771,cs),
(189,771,o),
(103,681,o),
(103,478,cs),
(103,440,o),
(84,418,o),
(25,418,cs)
);
},
{
closed = 1;
nodes = (
(103,261,l),
(103,43,o),
(182,-54,o),
(323,-54,cs),
(409,-54,o),
(471,-6,o),
(471,67,cs),
(471,122,o),
(435,146,o),
(399,146,cs),
(385,146,o),
(371,142,o),
(359,134,c),
(362,130,o),
(364,123,o),
(364,119,cs),
(364,106,o),
(352,98,o),
(334,98,cs),
(292,98,o),
(277,140,o),
(277,261,c)
);
}
);
width = 481;
}
);
metricLeft = V;
metricRight = K;
unicode = 123;
},
{
glyphname = bracketleft;
lastChange = "2025-02-19 09:35:26 +0000";
layers = (
{
guides = (
{
angle = 123.179;
pos = (653,79);
showMeasurement = 1;
}
);
layerId = "31EFE2D6-0164-4AD7-8F6B-9BF26915FE8D";
shapes = (
{
closed = 1;
nodes = (
(22,-31,l),
(22,750,l),
(278,750,l),
(278,580,l),
(272,580,ls),
(242,580,o),
(222,560,o),
(222,530,cs),
(222,190,ls),
(222,160,o),
(242,140,o),
(272,140,cs),
(278,140,l),
(278,-31,l)
);
}
);
width = 308;
}
);
metricLeft = "=I-8";
metricRight = I;
unicode = 91;
},
{
glyphname = quotesinglbase;
kernLeft = quotedblbase_2nd;
kernRight = quotedblbase1_1st;
lastChange = "2025-02-19 09:35:26 +0000";
layers = (
{
layerId = "31EFE2D6-0164-4AD7-8F6B-9BF26915FE8D";
shapes = (
{
closed = 1;
nodes = (
(213,-128,l),
(266,-58,o),
(293,-15,o),
(293,54,cs),
(293,143,o),
(248,221,o),
(148,221,cs),
(70,221,o),
(20,174,o),
(20,114,cs),
(20,78,o),
(38,43,o),
(78,28,c),
(87,45,o),
(99,54,o),
(113.243,54,cs),
(135,54,o),
(147,33,o),
(147,-6.13,cs),
(147,-68,o),
(117,-113,o),
(107,-128,c)
);
}
);
width = 318;
}
);
unicode = 8218;
},
{
glyphname = quoteleft;
lastChange = "2025-02-19 09:35:26 +0000";
layers = (
{
layerId = "31EFE2D6-0164-4AD7-8F6B-9BF26915FE8D";
shapes = (
{
closed = 1;
nodes = (
(105,750,l),
(52,680,o),
(25,627,o),
(25,548,cs),
(25,458,o),
(81,401,o),
(170,401,cs),
(248,401,o),
(298,448,o),
(298,508,cs),
(298,544,o),
(280,579,o),
(240,594,c),
(231,577,o),
(219,568,o),
(204.757,568,cs),
(183,568,o),
(171,589,o),
(171,628.13,cs),
(171,690,o),
(201,735,o),
(211,750,c)
);
}
);
width = 318;
}
);
unicode = 8216;
},
{
glyphname = quoteright;
kernLeft = quoteright_2nd;
lastChange = "2025-02-19 09:35:26 +0000";
layers = (
{
anchors = (
{
name = top;
pos = (107,422);
}
);
layerId = "31EFE2D6-0164-4AD7-8F6B-9BF26915FE8D";
shapes = (
{
closed = 1;
nodes = (
(213,422,l),
(266,492,o),
(293,545,o),
(293,624,cs),
(293,714,o),
(237,771,o),
(148,771,cs),
(70,771,o),
(20,724,o),
(20,664,cs),
(20,628,o),
(38,593,o),
(78,578,c),
(87,595,o),
(99,604,o),
(113.243,604,cs),
(135,604,o),
(147,583,o),
(147,543.87,cs),
(147,482,o),
(117,437,o),
(107,422,c)
);
}
);
width = 318;
}
);
unicode = 8217;
},
{
glyphname = guillemetleft;
kernLeft = guillemotleft_2nd;
kernRight = guillemotleft1_1st;
lastChange = "2025-02-19 09:41:32 +0000";
layers = (
{
layerId = "31EFE2D6-0164-4AD7-8F6B-9BF26915FE8D";
shapes = (
{
closed = 1;
nodes = (
(393,419,o),
(468,569,o),
(596,569,cs),
(659,569,o),
(711,533,o),
(711,472,cs),
(711,422,o),
(677,384,o),
(636,384,cs),
(624,384,o),
(608,387,o),
(594,394,c),
(597,398,o),
(598,401,o),
(598,405,cs),
(598,415,o),
(591,423,o),
(581,423,cs),
(559,423,o),
(527,387,o),
(497,323,c),
(527,259,o),
(559,223,o),
(581,223,cs),
(591,223,o),
(598,231,o),
(598,241,cs),
(598,245,o),
(597,248,o),
(594,252,c),
(608,259,o),
(624,262,o),
(636,262,cs),
(677,262,o),
(711,224,o),
(711,174,cs),
(711,113,o),
(659,77,o),
(596,77,cs),
(468,77,o),
(393,227,o),
(350,323,c)
);
},
{
closed = 1;
nodes = (
(53,419,o),
(128,569,o),
(256,569,cs),
(319,569,o),
(371,533,o),
(371,472,cs),
(371,422,o),
(337,384,o),
(296,384,cs),
(284,384,o),
(268,387,o),
(254,394,c),
(257,398,o),
(258,401,o),
(258,405,cs),
(258,415,o),
(251,423,o),
(241,423,cs),
(219,423,o),
(187,387,o),
(157,323,c),
(187,259,o),
(219,223,o),
(241,223,cs),
(251,223,o),
(258,231,o),
(258,241,cs),
(258,245,o),
(257,248,o),
(254,252,c),
(268,259,o),
(284,262,o),
(296,262,cs),
(337,262,o),
(371,224,o),
(371,174,cs),
(371,113,o),
(319,77,o),
(256,77,cs),
(128,77,o),
(53,227,o),
(10,323,c)
);
}
);
width = 721;
}
);
metricLeft = V;
metricRight = V;
unicode = 171;
},
{
glyphname = guilsinglleft;
kernLeft = guillemotleft_2nd;
kernRight = guillemotleft1_1st;
lastChange = "2025-02-19 09:35:26 +0000";
layers = (
{
layerId = "31EFE2D6-0164-4AD7-8F6B-9BF26915FE8D";
shapes = (
{
closed = 1;
nodes = (
(53,419,o),
(128,569,o),
(256,569,cs),
(319,569,o),
(371,533,o),
(371,472,cs),
(371,422,o),
(337,384,o),
(296,384,cs),
(284,384,o),
(268,387,o),
(254,394,c),
(257,398,o),
(258,401,o),
(258,405,cs),
(258,415,o),
(251,423,o),
(241,423,cs),
(219,423,o),
(187,387,o),
(157,323,c),
(187,259,o),
(219,223,o),
(241,223,cs),
(251,223,o),
(258,231,o),
(258,241,cs),
(258,245,o),
(257,248,o),
(254,252,c),
(268,259,o),
(284,262,o),
(296,262,cs),
(337,262,o),
(371,224,o),
(371,174,cs),
(371,113,o),
(319,77,o),
(256,77,cs),
(128,77,o),
(53,227,o),
(10,323,c)
);
}
);
width = 381;
}
);
metricLeft = V;
metricRight = V;
unicode = 8249;
},
{
glyphname = quotesingle;
kernLeft = quotedbl_2nd;
kernRight = quotedbl1_1st;
lastChange = "2025-02-19 09:35:26 +0000";
layers = (
{
layerId = "31EFE2D6-0164-4AD7-8F6B-9BF26915FE8D";
shapes = (
{
closed = 1;
nodes = (
(25,750,l),
(225,750,l),
(225,422,l),
(25,422,l)
);
}
);
width = 250;
}
);
unicode = 39;
},
{
glyphname = at;
lastChange = "2025-02-19 09:35:26 +0000";
layers = (
{
guides = (
{
pos = (0,350);
},
{
pos = (0,350);
}
);
layerId = "31EFE2D6-0164-4AD7-8F6B-9BF26915FE8D";
shapes = (
{
closed = 1;
nodes = (
(523,-63,o),
(596,-25,o),
(596,45,cs),
(596,94,o),
(561,130,o),
(515,130,cs),
(488,130,o),
(452,117,o),
(441,89,c),
(448,86,o),
(452,81,o),
(452,74,cs),
(452,61,o),
(430,53,o),
(397,53,cs),
(264,53,o),
(170,184,o),
(170,350,cs),
(170,534,o),
(280,649,o),
(456,649,cs),
(629,649,o),
(724,538,o),
(724,350,cs),
(724,274,o),
(708,227,o),
(669,227,cs),
(643,227,o),
(627,247,o),
(627,282,cs),
(627,563,l),
(505,563,l),
(505,503,l),
(489,542,o),
(450,574,o),
(394,574,cs),
(300,574,o),
(235,486,o),
(235,339,cs),
(235,198,o),
(295,126,o),
(386,126,cs),
(443,126,o),
(485,155,o),
(485,200,cs),
(485,233,o),
(463,248,o),
(441,248,cs),
(432,248,o),
(424,245,o),
(417,241,c),
(419,238,o),
(420,236,o),
(420,233,cs),
(420,228,o),
(416,225,o),
(409,225,cs),
(385,225,o),
(373,263,o),
(373,332,cs),
(373,426,o),
(395,474,o),
(437,474,cs),
(473,474,o),
(505,438,o),
(505,398,cs),
(505,256,ls),
(505,166,o),
(572,126,o),
(661,126,cs),
(795,126,o),
(872,220,o),
(872,367,cs),
(872,606,o),
(707,771,o),
(456,771,cs),
(197,771,o),
(20,601,o),
(20,351,cs),
(20,103,o),
(177,-63,o),
(411,-63,cs)
);
}
);
width = 892;
}
);
metricLeft = O;
metricRight = O;
unicode = 64;
},
{
glyphname = ampersand;
lastChange = "2025-02-19 09:35:26 +0000";
layers = (
{
layerId = "31EFE2D6-0164-4AD7-8F6B-9BF26915FE8D";
shapes = (
{
closed = 1;
nodes = (
(173,626,o),
(271,718,o),
(412.61,718,cs),
(543,718,o),
(637,640,o),
(637,530.353,cs),
(637,452,o),
(589,392,o),
(523.464,392,cs),
(472,392,o),
(429,429,o),
(429,469.269,cs),
(429,483,o),
(434,494,o),
(439,505,c),
(442,502,o),
(445,501,o),
(447.606,501,cs),
(457,501,o),
(466,514,o),
(466,524.775,cs),
(466,542,o),
(443,562,o),
(415.342,562,cs),
(387,562,o),
(358,541,o),
(358,498.158,cs),
(358,473,o),
(368,447,o),
(423,386,cs),
(590,202,ls),
(627,161,o),
(650,145,o),
(675,145,cs),
(695,145,o),
(708,155,o),
(708,169,cs),
(708,183,o),
(698,193,o),
(690,196,c),
(699,223,o),
(730,257,o),
(778.626,257,cs),
(837,257,o),
(877,208,o),
(877,141.897,cs),
(877,49,o),
(798,-18,o),
(685,-18,cs),
(588,-18,o),
(528,7,o),
(464,78,cs),
(260,302,ls),
(196,373,o),
(173,424,o),
(173,489.923,cs)
);
},
{
closed = 1;
nodes = (
(784,321,ls),
(754,321,o),
(719,307,o),
(697,287,cs),
(636,231,l),
(555,320,l),
(673,431,l),
(814,431,l),
(814,321,l)
);
},
{
closed = 1;
nodes = (
(244,241,l),
(212,212,o),
(195,187,o),
(195,164.267,cs),
(195,139,o),
(216,122,o),
(248.144,122,cs),
(274,122,o),
(299,133,o),
(322,155,c),
(402,67,l),
(362,30,o),
(291,-18,o),
(202.111,-18,cs),
(91,-18,o),
(10,57,o),
(10,157.735,cs),
(10,223,o),
(44,290,o),
(128,368,c)
);
}
);
width = 909;
}
);
unicode = 38;
},
{
glyphname = paragraph;
lastChange = "2025-02-19 09:35:26 +0000";
layers = (
{
layerId = "31EFE2D6-0164-4AD7-8F6B-9BF26915FE8D";
shapes = (
{
closed = 1;
nodes = (
(10,300,o),
(116,222,o),
(226,222,cs),
(314,222,o),
(382,272,o),
(382,344,cs),
(382,386,o),
(359,424,o),
(315,437,c),
(309,415,o),
(296,406,o),
(278,406,cs),
(252,406,o),
(237,426,o),
(237,457,cs),
(237,505,o),
(273,530,o),
(336,530,cs),
(378,530,ls),
(408,530,o),
(428,510,o),
(428,480,cs),
(428,-144,l),
(628,-144,l),
(628,480,ls),
(628,510,o),
(648,530,o),
(678,530,cs),
(684,530,l),
(684,700,l),
(271,700,ls),
(124,700,o),
(10,592,o),
(10,443,cs)
);
},
{
closed = 1;
nodes = (
(63,-99,o),
(123,-154,o),
(214,-154,cs),
(313,-154,o),
(371,-89,o),
(371,38,cs),
(371,170,l),
(171,170,l),
(171,102,ls),
(171,83,o),
(162,72,o),
(150,72,cs),
(139,72,o),
(130,80,o),
(127,92,c),
(85,69,o),
(63,25,o),
(63,-22,cs)
);
}
);
width = 709;
}
);
metricLeft = V;
metricRight = "=I-5";
unicode = 182;
},
{
glyphname = section;
lastChange = "2025-02-19 09:35:26 +0000";
layers = (
{
anchors = (
{
name = top;
pos = (273,750);
}
);
guides = (
{
angle = 107.85;
pos = (312,260);
},
{
pos = (0,-144);
}
);
layerId = "31EFE2D6-0164-4AD7-8F6B-9BF26915FE8D";
shapes = (
{
closed = 1;
nodes = (
(290,88,ls),
(312,79,o),
(327,66,o),
(327,45,cs),
(327,21,o),
(307,4,o),
(275,4,cs),
(235,4,o),
(186,32,o),
(186,93,c),
(22,93,l),
(22,-144,l),
(186,-144,l),
(186,-27,l),
(220,-130,o),
(308,-162,o),
(368,-162,cs),
(451,-162,o),
(522,-99,o),
(522,-7,cs),
(522,47,o),
(498,121,o),
(382,174,cs),
(183,265,ls),
(164,274,o),
(155,288,o),
(155,298,cs),
(155,305,o),
(159,311,o),
(168,312,c),
(163,378,o),
(109,409,o),
(63,409,cs),
(9,409,o),
(-32,365,o),
(-32,312,cs),
(-32,259,o),
(-4,218,o),
(80,181,cs)
);
},
{
closed = 1;
nodes = (
(19,523,o),
(45,456,o),
(154,404,cs),
(343,312,ls),
(363,302,o),
(371,294,o),
(371,283,cs),
(371,273,o),
(365,269,o),
(357,268,c),
(362,207,o),
(412,177,o),
(458,177,cs),
(506,177,o),
(544,211,o),
(544,269,cs),
(544,317,o),
(517,353,o),
(440,390,cs),
(244,485,ls),
(216,498,o),
(210,512,o),
(210,524,cs),
(210,548,o),
(231,563,o),
(262,563,cs),
(302,563,o),
(339,537,o),
(339,480,c),
(492,480,l),
(492,701,l),
(339,701,l),
(339,604,l),
(308,692,o),
(229,718,o),
(177,718,cs),
(97,718,o),
(19,657,o),
(19,572,cs)
);
}
);
width = 513;
}
);
unicode = 167;
},
{
glyphname = copyright;
lastChange = "2025-02-19 09:35:26 +0000";
layers = (
{
anchors = (
{
name = top;
pos = (451,593);
}
);
layerId = "31EFE2D6-0164-4AD7-8F6B-9BF26915FE8D";
shapes = (
{
closed = 1;
nodes = (
(192,479,l),
(225,594,o),
(311,649,o),
(450,649,cs),
(567,649,o),
(714,570,o),
(714,440,cs),
(714,418,o),
(710,411,o),
(700,411,cs),
(694,411,o),
(688,414,o),
(685,420,c),
(667,411,o),
(659,389,o),
(659,366,cs),
(659,315,o),
(700,276,o),
(758,276,cs),
(826,276,o),
(864,331,o),
(864,417,cs),
(864,608,o),
(679,771,o),
(448,771,cs),
(222,771,o),
(77,670,o),
(37,479,c)
);
},
{
closed = 1;
nodes = (
(558,127,o),
(622,187,o),
(631,298,c),
(533,298,l),
(527,252,o),
(503,226,o),
(465,226,cs),
(415,226,o),
(393,263,o),
(393,351,cs),
(393,432,o),
(417,476,o),
(461,476,cs),
(489,476,o),
(513,459,o),
(513,437,cs),
(513,427,o),
(509,420,o),
(504,420,cs),
(502,420,o),
(500,421,o),
(498,423,c),
(493,417,o),
(490,409,o),
(490,398,cs),
(490,370,o),
(513,342,o),
(552,342,cs),
(598,342,o),
(627,380,o),
(627,429,cs),
(627,515,o),
(551,575,o),
(444,575,cs),
(321,575,o),
(252,494,o),
(252,351,cs),
(252,198,o),
(314,127,o),
(447,127,cs)
);
},
{
closed = 1;
nodes = (
(692,229,l),
(659,114,o),
(573,59,o),
(434,59,cs),
(317,59,o),
(170,138,o),
(170,268,cs),
(170,290,o),
(174,297,o),
(184,297,cs),
(190,297,o),
(196,294,o),
(199,288,c),
(217,297,o),
(225,319,o),
(225,342,cs),
(225,393,o),
(184,432,o),
(126,432,cs),
(58,432,o),
(20,377,o),
(20,291,cs),
(20,100,o),
(205,-63,o),
(436,-63,cs),
(662,-63,o),
(807,38,o),
(847,229,c)
);
}
);
width = 884;
}
);
metricLeft = O;
metricRight = O;
unicode = 169;
},
{
glyphname = registered;
lastChange = "2025-02-19 09:35:26 +0000";
layers = (
{
layerId = "31EFE2D6-0164-4AD7-8F6B-9BF26915FE8D";
shapes = (
{
closed = 1;
nodes = (
(255,391,o),
(297,353,o),
(346,353,cs),
(389,353,o),
(415,381,o),
(415,411.587,cs),
(415,425,o),
(410,436,o),
(403,444,c),
(400,442,o),
(397,441,o),
(395,441,cs),
(389,441,o),
(384,449,o),
(384,458,cs),
(384,476,o),
(406,490,o),
(434,490,cs),
(469,490,o),
(496,467,o),
(496,437,cs),
(496,407,o),
(469,380,o),
(433,380,c),
(433,350,ls),
(433,234,o),
(483,145,o),
(558,145,cs),
(611,145,o),
(648,184,o),
(648,237,cs),
(648,290,o),
(611,319,o),
(575,319,cs),
(555,319,o),
(535,311,o),
(517,294,c),
(522,287,o),
(524,282,o),
(524,278,cs),
(524,271,o),
(518,266,o),
(511,266,cs),
(493,266,o),
(482,295,o),
(482,344,c),
(571,355,o),
(628,394,o),
(628,456,cs),
(628,530,o),
(545,589,o),
(440,589,cs),
(334,589,o),
(255,528,o),
(255,448,cs)
);
},
{
closed = 1;
nodes = (
(292,286,ls),
(292,268,o),
(279,256,o),
(261,256,cs),
(258,256,l),
(258,152,l),
(407,152,l),
(407,326,l),
(292,326,l)
);
},
{
closed = 1;
nodes = (
(192,479,l),
(225,594,o),
(311,649,o),
(450,649,cs),
(567,649,o),
(714,570,o),
(714,440,cs),
(714,418,o),
(710,411,o),
(700,411,cs),
(694,411,o),
(688,414,o),
(685,420,c),
(667,411,o),
(659,389,o),
(659,366,cs),
(659,315,o),
(700,276,o),
(758,276,cs),
(826,276,o),
(864,331,o),
(864,417,cs),
(864,608,o),
(679,771,o),
(448,771,cs),
(222,771,o),
(77,670,o),
(37,479,c)
);
},
{
closed = 1;
nodes = (
(692,229,l),
(659,114,o),
(573,59,o),
(434,59,cs),
(317,59,o),
(170,138,o),
(170,268,cs),
(170,290,o),
(174,297,o),
(184,297,cs),
(190,297,o),
(196,294,o),
(199,288,c),
(217,297,o),
(225,319,o),
(225,342,cs),
(225,393,o),
(184,432,o),
(126,432,cs),
(58,432,o),
(20,377,o),
(20,291,cs),
(20,100,o),
(205,-63,o),
(436,-63,cs),
(662,-63,o),
(807,38,o),
(847,229,c)
);
}
);
width = 884;
}
);
metricLeft = O;
metricRight = O;
unicode = 174;
},
{
glyphname = trademark;
lastChange = "2025-02-19 09:35:26 +0000";
layers = (
{
layerId = "31EFE2D6-0164-4AD7-8F6B-9BF26915FE8D";
shapes = (
{
closed = 1;
nodes = (
(10,713,l),
(267,713,ls),
(278,713,o),
(282,716,o),
(282,723,cs),
(282,728,o),
(278,733,o),
(275,736,c),
(298,760,o),
(320,771,o),
(345,771,cs),
(392,771,o),
(424,729,o),
(424,683,cs),
(424,630,o),
(384,592,o),
(328,592,cs),
(131,592,ls),
(110,592,o),
(96,578,o),
(96,556,cs),
(96,527,l),
(10,527,l)
);
},
{
closed = 1;
nodes = (
(104,214,l),
(104,335,l),
(108,335,ls),
(130,335,o),
(144,350,o),
(144,370,cs),
(144,539,l),
(287,539,l),
(287,370,ls),
(287,350,o),
(301,335,o),
(322,335,cs),
(327,335,l),
(327,214,l)
);
},
{
closed = 1;
nodes = (
(1133,714,l),
(1133,593,l),
(1129,593,ls),
(1107,593,o),
(1093,579,o),
(1093,557,cs),
(1093,372,ls),
(1093,350,o),
(1107,336,o),
(1129,336,cs),
(1133,336,l),
(1133,215,l),
(910,215,l),
(910,336,l),
(915,336,ls),
(936,336,o),
(950,350,o),
(950,372,cs),
(950,555,l),
(833,355,ls),
(832,352,o),
(831,350,o),
(831,347,cs),
(831,342,o),
(833,338,o),
(836,336,cs),
(838,335,o),
(840,334,o),
(843,334,cs),
(845,334,o),
(848,335,o),
(850,336,c),
(855,326,o),
(858,316,o),
(858,302,cs),
(858,258,o),
(828,227,o),
(783,227,cs),
(736,227,o),
(702,261,o),
(702,310,cs),
(702,337,o),
(713,363,o),
(728,386,cs),
(838,563,ls),
(841,569,o),
(843,574,o),
(843,578,cs),
(843,587,o),
(835,593,o),
(820,593,cs),
(816,593,l),
(816,714,l)
);
},
{
closed = 1;
nodes = (
(680,394,l),
(596,544,ls),
(592,551,o),
(588,554,o),
(581,554,cs),
(571,554,o),
(566,546,o),
(566,537,cs),
(566,534,o),
(566,533,o),
(567,529,c),
(557,525,o),
(547,524,o),
(537,524,cs),
(483,524,o),
(443,566,o),
(443,621,cs),
(443,679,o),
(489,727,o),
(557,727,cs),
(607,727,o),
(650,701,o),
(677,654,cs),
(753,521,l)
);
},
{
closed = 1;
nodes = (
(634,215,l),
(454,215,l),
(454,336,l),
(459,336,ls),
(480,336,o),
(494,350,o),
(494,372,cs),
(494,473,l),
(594,473,l),
(594,372,ls),
(594,350,o),
(609,336,o),
(630,336,cs),
(634,336,l)
);
}
);
width = 1163;
}
);
metricLeft = T;
metricRight = M;
unicode = 8482;
},
{
glyphname = degree;
lastChange = "2025-02-19 09:35:26 +0000";
layers = (
{
layerId = "31EFE2D6-0164-4AD7-8F6B-9BF26915FE8D";
shapes = (
{
closed = 1;
nodes = (
(42,582,l),
(52,494,o),
(121,436,o),
(216,436,cs),
(310,436,o),
(377,494,o),
(387,582,c),
(284,582,l),
(275,551,o),
(250,532,o),
(214,532,cs),
(179,532,o),
(154,551,o),
(145,582,c)
);
},
{
closed = 1;
nodes = (
(148,633,l),
(159,658,o),
(183,673,o),
(214,673,cs),
(245,673,o),
(269,658,o),
(281,633,c),
(387,633,l),
(374,717,o),
(308,771,o),
(216,771,cs),
(123,771,o),
(55,717,o),
(42,633,c)
);
}
);
width = 428;
}
);
unicode = 176;
},
{
glyphname = bar;
lastChange = "2025-02-19 09:35:26 +0000";
layers = (
{
layerId = "31EFE2D6-0164-4AD7-8F6B-9BF26915FE8D";
shapes = (
{
closed = 1;
nodes = (
(222,-34,l),
(22,-34,l),
(22,751,l),
(222,751,l)
);
}
);
width = 244;
}
);
metricLeft = "=I-8";
metricRight = "=I-8";
unicode = 124;
},
{
glyphname = brokenbar;
lastChange = "2025-02-19 09:35:26 +0000";
layers = (
{
layerId = "31EFE2D6-0164-4AD7-8F6B-9BF26915FE8D";
shapes = (
{
closed = 1;
nodes = (
(22,-43,l),
(222,-43,l),
(222,320,l),
(22,320,l)
);
},
{
closed = 1;
nodes = (
(22,380,l),
(222,380,l),
(222,743,l),
(22,743,l)
);
}
);
width = 244;
}
);
metricLeft = "=I-8";
metricRight = "=I-8";
unicode = 166;
},
{
glyphname = ampersand.ss01;
lastChange = "2025-02-19 09:35:26 +0000";
layers = (
{
layerId = "31EFE2D6-0164-4AD7-8F6B-9BF26915FE8D";
shapes = (
{
closed = 1;
nodes = (
(715,402,o),
(808,432,o),
(808,486,cs),
(808,503,o),
(799,513,o),
(785,513,cs),
(774,513,o),
(762,506,o),
(762,487,c),
(701,487,o),
(657,523,o),
(657,590,cs),
(657,681,o),
(740,718,o),
(820,718,cs),
(923,718,o),
(1016,655,o),
(1016,544,cs),
(1016,327,o),
(661,316,o),
(541,309,cs),
(338,296,o),
(262,260,o),
(262,212,cs),
(262,183,o),
(289,164,o),
(330,164,cs),
(372,164,o),
(431,184,o),
(436,253,c),
(628,253,l),
(628,63,o),
(492,-18,o),
(299,-18,cs),
(107,-18,o),
(25,62,o),
(25,158,cs),
(25,302,o),
(210,380,o),
(524,394,cs)
);
},
{
closed = 1;
nodes = (
(299,718,o),
(400,691,o),
(436,583,c),
(436,700,l),
(596,700,l),
(596,451,l),
(436,451,l),
(436,494,o),
(394,554,o),
(331,554,cs),
(295,554,o),
(268,535,o),
(268,508,cs),
(268,490,o),
(280,474,o),
(292,474,c),
(292,412,o),
(236,378,o),
(171,378,cs),
(84,378,o),
(25,440,o),
(25,525,cs),
(25,631,o),
(115,718,o),
(233,718,cs)
);
},
{
closed = 1;
nodes = (
(714,0,l),
(714,253,l),
(914,253,l),
(914,220,ls),
(914,190,o),
(934,170,o),
(964,170,cs),
(970,170,l),
(970,0,l)
);
}
);
width = 1036;
}
);
metricLeft = E;
metricRight = E;
},
{
glyphname = cent;
lastChange = "2025-02-19 09:35:26 +0000";
layers = (
{
layerId = "31EFE2D6-0164-4AD7-8F6B-9BF26915FE8D";
shapes = (
{
closed = 1;
nodes = (
(253,389,l),
(260,498,o),
(297,556,o),
(363,556,cs),
(401,556,o),
(449,535,o),
(449,491,cs),
(449,475,o),
(442,464,o),
(434,464,cs),
(431,464,o),
(427,465,o),
(424,468,c),
(416,459,o),
(411,445,o),
(411,428,cs),
(411,381,o),
(448,336,o),
(512,336,cs),
(588,336,o),
(635,398,o),
(635,479,cs),
(635,599,o),
(543,689,o),
(407,712,c),
(407,857,l),
(247,857,l),
(247,708,l),
(110,676,o),
(31,565,o),
(21,389,c)
);
},
{
closed = 1;
nodes = (
(247,-144,l),
(407,-144,l),
(407,-13,l),
(548,9,o),
(630,105,o),
(642,263,c),
(482,263,l),
(473,198,o),
(440,145,o),
(370,145,cs),
(291,145,o),
(252,199,o),
(252,329,c),
(20,329,l),
(20,129,o),
(96,20,o),
(247,-10,c)
);
}
);
width = 657;
}
);
metricLeft = C;
metricRight = C;
unicode = 162;
},
{
color = 2;
glyphname = dollar;
lastChange = "2025-02-19 09:43:03 +0000";
layers = (
{
layerId = "31EFE2D6-0164-4AD7-8F6B-9BF26915FE8D";
shapes = (
{
closed = 1;
nodes = (
(367,640,l),
(367,857,l),
(207,857,l),
(207,640,l)
);
},
{
closed = 1;
nodes = (
(386,-144,l),
(386,73,l),
(226,73,l),
(226,-144,l)
);
},
{
alignment = -1;
ref = S;
}
);
width = 642;
}
);
metricLeft = S;
metricRight = S;
unicode = 36;
},
{
glyphname = euro;
lastChange = "2025-02-19 09:41:32 +0000";
layers = (
{
anchors = (
{
name = top;
pos = (386,750);
}
);
layerId = "31EFE2D6-0164-4AD7-8F6B-9BF26915FE8D";
shapes = (
{
closed = 1;
nodes = (
(85,465,l),
(117,628,o),
(223,718,o),
(389,718,cs),
(564,718,o),
(689,619,o),
(689,479,cs),
(689,398,o),
(642,336,o),
(566,336,cs),
(502,336,o),
(465,381,o),
(465,428,cs),
(465,445,o),
(470,459,o),
(478,468,c),
(481,465,o),
(485,464,o),
(488,464,cs),
(496,464,o),
(503,475,o),
(503,491,cs),
(503,528,o),
(463,556,o),
(417,556,cs),
(368,556,o),
(336,524,o),
(319,465,c),
(383,465,l),
(383,380,l),
(20,380,l),
(20,465,l)
);
},
{
closed = 1;
nodes = (
(20,320,l),
(383,320,l),
(383,235,l),
(317,235,l),
(333,172,o),
(368,145,o),
(424,145,cs),
(486,145,o),
(526,188,o),
(536,263,c),
(696,263,l),
(682,81,o),
(576,-18,o),
(394,-18,cs),
(212,-18,o),
(111,63,o),
(83,235,c),
(20,235,l)
);
}
);
width = 711;
}
);
metricLeft = C;
metricRight = C;
unicode = 8364;
},
{
glyphname = franc;
lastChange = "2025-02-19 09:35:26 +0000";
layers = (
{
layerId = "31EFE2D6-0164-4AD7-8F6B-9BF26915FE8D";
shapes = (
{
closed = 1;
nodes = (
(342,0,l),
(342,170,l),
(336,170,ls),
(306,170,o),
(286,191,o),
(286,220.608,cs),
(286,263,o),
(327,303,o),
(370,303,cs),
(399,303,o),
(421,287,o),
(421,266,cs),
(421,253,o),
(413,242,o),
(401,239,c),
(419,182,o),
(451,154,o),
(499,154,cs),
(569,154,o),
(613,212,o),
(613,278,cs),
(613,364,o),
(541,433,o),
(448,433,cs),
(374,433,o),
(310,396,o),
(286,324,c),
(286,381,l),
(30,381,l),
(30,296,l),
(86,296,l),
(86,220,ls),
(86,190,o),
(66,170,o),
(36,170,cs),
(30,170,l),
(30,0,l)
);
},
{
closed = 1;
nodes = (
(30,530,l),
(36,530,ls),
(66,530,o),
(86,510,o),
(86,480,cs),
(86,441,l),
(286,441,l),
(286,480,ls),
(286,510,o),
(306,530,o),
(336,530,cs),
(342,530,l),
(342,700,l),
(30,700,l)
);
},
{
closed = 1;
nodes = (
(423,700,l),
(423,530,l),
(479,530,ls),
(509,530,o),
(529,510,o),
(529,480,cs),
(529,465,l),
(649,465,l),
(649,700,l)
);
}
);
width = 674;
}
);
metricLeft = F;
metricRight = F;
unicode = 8355;
},
{
glyphname = lira;
lastChange = "2025-02-19 09:35:26 +0000";
layers = (
{
layerId = "31EFE2D6-0164-4AD7-8F6B-9BF26915FE8D";
shapes = (
{
closed = 1;
nodes = (
(30,465,l),
(30,380,l),
(393,380,l),
(393,465,l),
(286,465,l),
(286,480,ls),
(286,510,o),
(306,530,o),
(336,530,cs),
(342,530,l),
(342,700,l),
(30,700,l),
(30,530,l),
(36,530,ls),
(66,530,o),
(86,510,o),
(86,480,cs),
(86,465,l)
);
},
{
closed = 1;
nodes = (
(30,0,l),
(286,0,l),
(286,235,l),
(393,235,l),
(393,320,l),
(30,320,l),
(30,235,l),
(86,235,l),
(86,220,ls),
(86,190,o),
(66,170,o),
(36,170,cs),
(30,170,l)
);
},
{
closed = 1;
nodes = (
(331,170,l),
(331,0,l),
(597,0,l),
(597,285,l),
(457,285,l),
(457,220,ls),
(457,190,o),
(437,170,o),
(407,170,cs)
);
}
);
width = 612;
}
);
metricLeft = L;
metricRight = L;
unicode = 8356;
},
{
glyphname = peseta;
lastChange = "2025-02-19 09:35:26 +0000";
layers = (
{
anchors = (
{
name = top;
pos = (1610,750);
}
);
guides = (
{
pos = (0,350);
},
{
pos = (0,350);
}
);
layerId = "31EFE2D6-0164-4AD7-8F6B-9BF26915FE8D";
shapes = (
{
closed = 1;
nodes = (
(90,370,l),
(30,370,l),
(30,455,l),
(90,455,l),
(90,480,ls),
(90,510,o),
(70,530,o),
(40,530,cs),
(34,530,l),
(34,700,l),
(290,700,l),
(290,431,ls),
(290,385,o),
(330,360,o),
(372,360,cs),
(434,360,o),
(471,415,o),
(471,474,cs),
(471,516,o),
(453,534,o),
(429,534,cs),
(412,534,o),
(399,525,o),
(393,503,c),
(349,516,o),
(326,554,o),
(326,595,cs),
(326,668,o),
(399,718,o),
(486,718,cs),
(597,718,o),
(698,636,o),
(698,487,cs),
(698,476,o),
(697,465,o),
(696,455,c),
(726,455,l),
(726,370,l),
(674,370,l),
(635,280,o),
(550,222,o),
(450,222,cs),
(383,222,o),
(325,247,o),
(290,300,c),
(290,220,ls),
(290,190,o),
(310,170,o),
(340,170,cs),
(346,170,l),
(346,0,l),
(34,0,l),
(34,170,l),
(40,170,ls),
(70,170,o),
(90,190,o),
(90,220,cs)
);
}
);
width = 736;
}
);
metricLeft = P;
metricRight = P;
unicode = 8359;
},
{
glyphname = sterling;
lastChange = "2025-02-19 09:35:26 +0000";
layers = (
{
layerId = "31EFE2D6-0164-4AD7-8F6B-9BF26915FE8D";
shapes = (
{
closed = 1;
nodes = (
(137,441,l),
(337,441,l),
(337,480,ls),
(337,544,o),
(361,582,o),
(414,582,cs),
(456,582,o),
(482,558,o),
(482,531,cs),
(482,517,o),
(475,510,o),
(463,510,c),
(463,447,o),
(496,411,o),
(552,411,cs),
(610,411,o),
(643,450,o),
(643,517,cs),
(643,635,o),
(526,718,o),
(393,718,cs),
(221,718,o),
(137,605,o),
(137,489,cs)
);
},
{
closed = 1;
nodes = (
(30,36,o),
(89,-18,o),
(180,-18,cs),
(280,-18,o),
(337,47,o),
(337,172,cs),
(337,296,l),
(444,296,l),
(444,381,l),
(81,381,l),
(81,296,l),
(137,296,l),
(137,236,ls),
(137,217,o),
(129,207,o),
(116,207,cs),
(106,207,o),
(98,214,o),
(94,227,c),
(53,203,o),
(30,160,o),
(30,112,cs)
);
},
{
closed = 1;
nodes = (
(382,0,l),
(638,0,l),
(638,285,l),
(498,285,l),
(498,220,ls),
(498,190,o),
(478,170,o),
(448,170,cs),
(382,170,l)
);
}
);
width = 658;
}
);
metricLeft = L;
metricRight = L;
unicode = 163;
},
{
glyphname = yen;
lastChange = "2025-02-19 09:35:26 +0000";
layers = (
{
layerId = "31EFE2D6-0164-4AD7-8F6B-9BF26915FE8D";
shapes = (
{
closed = 1;
nodes = (
(10,73,o),
(84,-18,o),
(253,-18,cs),
(353,-18,o),
(424,29,o),
(481,133,cs),
(513,191,l),
(699,191,l),
(699,276,l),
(374,276,l),
(326,187,ls),
(311,160,o),
(293,145,o),
(273,145,cs),
(255,145,o),
(238,158,o),
(238,179,cs),
(238,196,o),
(249,210,o),
(262,210,cs),
(265,210,o),
(268,209,o),
(270,208,c),
(274,216,o),
(275,223,o),
(275,233,cs),
(275,285,o),
(239,350,o),
(158,350,cs),
(77,350,o),
(10,285,o),
(10,182,cs)
);
},
{
closed = 1;
nodes = (
(81,530,l),
(97,530,ls),
(115,530,o),
(134,520,o),
(145,506,cs),
(317,282,l),
(410,451,l),
(378,491,ls),
(371,499,o),
(368,507,o),
(368,513,cs),
(368,524,o),
(378,530,o),
(397,530,cs),
(413,530,l),
(413,700,l),
(81,700,l)
);
},
{
closed = 1;
nodes = (
(406,336,l),
(699,336,l),
(699,421,l),
(640,421,l),
(663,462,ls),
(692,515,o),
(704,557,o),
(704,593,cs),
(704,670,o),
(649,718,o),
(576,718,cs),
(506,718,o),
(455,674,o),
(455,612,cs),
(455,580,o),
(468,559,o),
(481,546,c),
(486,551,o),
(490,554,o),
(497,554,cs),
(502,554,o),
(509,548,o),
(509,538,cs),
(509,527,o),
(502,513,o),
(481,474,cs)
);
}
);
width = 714;
}
);
metricLeft = Y;
metricRight = Y;
unicode = 165;
},
{
glyphname = plus;
lastChange = "2025-02-19 09:35:26 +0000";
layers = (
{
layerId = "31EFE2D6-0164-4AD7-8F6B-9BF26915FE8D";
shapes = (
{
closed = 1;
nodes = (
(25,433,l),
(25,268,l),
(165,268,l),
(165,128,l),
(342,128,l),
(342,268,l),
(482,268,l),
(482,433,l),
(342,433,l),
(342,573,l),
(165,573,l),
(165,433,l)
);
}
);
width = 507;
}
);
unicode = 43;
},
{
glyphname = minus;
kernLeft = minus_2nd;
kernRight = minus1_1st;
lastChange = "2025-02-19 09:35:26 +0000";
layers = (
{
layerId = "31EFE2D6-0164-4AD7-8F6B-9BF26915FE8D";
shapes = (
{
closed = 1;
nodes = (
(25,268,l),
(482,268,l),
(482,433,l),
(25,433,l)
);
}
);
width = 507;
}
);
metricLeft = "=25";
metricRight = "=25";
unicode = 8722;
},
{
glyphname = multiply;
lastChange = "2025-02-19 09:35:26 +0000";
layers = (
{
layerId = "31EFE2D6-0164-4AD7-8F6B-9BF26915FE8D";
shapes = (
{
closed = 1;
nodes = (
(113,573,l),
(233,453,l),
(353,573,l),
(455,471,l),
(335,351,l),
(455,231,l),
(353,128,l),
(233,248,l),
(113,128,l),
(10,231,l),
(130,351,l),
(10,471,l)
);
}
);
width = 465;
}
);
metricLeft = V;
metricRight = V;
unicode = 215;
},
{
glyphname = divide;
lastChange = "2025-02-19 09:35:26 +0000";
layers = (
{
layerId = "31EFE2D6-0164-4AD7-8F6B-9BF26915FE8D";
shapes = (
{
closed = 1;
nodes = (
(25,268,l),
(522,268,l),
(522,433,l),
(25,433,l)
);
},
{
closed = 1;
nodes = (
(390,624,o),
(346,665,o),
(279,665,cs),
(212,665,o),
(168,624,o),
(168,562,cs),
(168,501,o),
(212,459,o),
(279,459,cs),
(346,459,o),
(390,501,o),
(390,562,cs)
);
},
{
closed = 1;
nodes = (
(390,199,o),
(346,240,o),
(279,240,cs),
(212,240,o),
(168,199,o),
(168,137,cs),
(168,76,o),
(212,35,o),
(279,35,cs),
(346,35,o),
(390,76,o),
(390,137,cs)
);
}
);
width = 547;
}
);
metricLeft = minus;
metricRight = minus;
unicode = 247;
},
{
glyphname = equal;
lastChange = "2025-02-19 09:35:26 +0000";
layers = (
{
layerId = "31EFE2D6-0164-4AD7-8F6B-9BF26915FE8D";
shapes = (
{
closed = 1;
nodes = (
(25,156,l),
(482,156,l),
(482,321,l),
(25,321,l)
);
},
{
closed = 1;
nodes = (
(25,536,l),
(25,371,l),
(482,371,l),
(482,536,l)
);
}
);
width = 507;
}
);
metricLeft = minus;
metricRight = minus;
unicode = 61;
},
{
glyphname = notequal;
lastChange = "2025-02-19 09:35:26 +0000";
layers = (
{
layerId = "31EFE2D6-0164-4AD7-8F6B-9BF26915FE8D";
shapes = (
{
closed = 1;
nodes = (
(25,321,l),
(25,156,l),
(113,156,l),
(87,45,l),
(281,45,l),
(307,156,l),
(482,156,l),
(482,321,l)
);
},
{
closed = 1;
nodes = (
(25,371,l),
(482,371,l),
(482,536,l),
(394,536,l),
(419,646,l),
(225,646,l),
(200,536,l),
(25,536,l)
);
}
);
width = 507;
}
);
metricLeft = minus;
metricRight = minus;
unicode = 8800;
},
{
glyphname = less;
lastChange = "2025-02-19 09:35:26 +0000";
layers = (
{
layerId = "31EFE2D6-0164-4AD7-8F6B-9BF26915FE8D";
shapes = (
{
closed = 1;
nodes = (
(25,248,o),
(69,208,o),
(123,208,cs),
(173,208,o),
(214,242,o),
(214,294,c),
(204,294,o),
(197,299,o),
(197,308,cs),
(197,316,o),
(203,323,o),
(211,326,cs),
(427,425,ls),
(473,446,o),
(507,485,o),
(507,539,cs),
(507,593,o),
(472,641,o),
(414,641,cs),
(365,641,o),
(321,607,o),
(321,554,c),
(329,554,o),
(339,549,o),
(339,540,cs),
(339,533,o),
(332,526,o),
(325,523,cs),
(104,422,ls),
(60,402,o),
(25,354,o),
(25,305,cs)
);
},
{
closed = 1;
nodes = (
(195,153,l),
(331,75,ls),
(351,64,o),
(375,57,o),
(400,57,cs),
(461,57,o),
(507,99,o),
(507,157,cs),
(507,211,o),
(467,254,o),
(416,254,cs),
(401,254,o),
(385,250,o),
(371,239,c),
(374,235,o),
(376,231,o),
(376,227,cs),
(376,219,o),
(368,215,o),
(360,215,c),
(359,215,o),
(352,215,o),
(346,218,cs),
(260,268,l)
);
}
);
width = 532;
}
);
unicode = 60;
},
{
glyphname = greaterequal;
lastChange = "2025-02-19 09:35:26 +0000";
layers = (
{
layerId = "31EFE2D6-0164-4AD7-8F6B-9BF26915FE8D";
shapes = (
{
closed = 1;
nodes = (
(25,240,o),
(54,202,o),
(101,202,cs),
(144,202,o),
(176,235,o),
(176,273,c),
(169,273,o),
(161,277,o),
(161,284,cs),
(161,290,o),
(167,295,o),
(172,298,cs),
(351,380,ls),
(387,397,o),
(415,435,o),
(415,475,cs),
(415,521,o),
(380,553,o),
(336,553,cs),
(296,553,o),
(262,525,o),
(262,483,c),
(270,483,o),
(276,479,o),
(276,472,cs),
(276,465,o),
(271,460,o),
(265,457,cs),
(90,377,ls),
(53,360,o),
(25,329,o),
(25,285,cs)
);
},
{
closed = 1;
nodes = (
(62,675,o),
(25,641,o),
(25,594,cs),
(25,550,o),
(57,516,o),
(99,516,cs),
(111,516,o),
(124,519,o),
(135,528,c),
(133,531,o),
(131,534,o),
(131,538,cs),
(131,544,o),
(138,548,o),
(144,548,cs),
(147,548,o),
(151,547,o),
(155,545,cs),
(225,504,l),
(278,597,l),
(168,661,ls),
(151,670,o),
(132,675,o),
(112,675,cs)
);
},
{
closed = 1;
nodes = (
(35,34,l),
(405,34,l),
(405,168,l),
(35,168,l)
);
}
);
width = 439;
}
);
metricLeft = greater;
metricRight = greater;
unicode = 8805;
},
{
glyphname = plusminus;
lastChange = "2025-02-19 09:35:26 +0000";
layers = (
{
layerId = "31EFE2D6-0164-4AD7-8F6B-9BF26915FE8D";
shapes = (
{
closed = 1;
nodes = (
(22,368,l),
(162,368,l),
(162,228,l),
(339,228,l),
(339,368,l),
(479,368,l),
(479,533,l),
(339,533,l),
(339,673,l),
(162,673,l),
(162,533,l),
(22,533,l)
);
},
{
closed = 1;
nodes = (
(22,27,l),
(479,27,l),
(479,192,l),
(22,192,l)
);
}
);
width = 501;
}
);
metricLeft = "=I-8";
metricRight = "=I-8";
unicode = 177;
},
{
glyphname = asciitilde;
lastChange = "2025-02-19 09:35:26 +0000";
layers = (
{
layerId = "31EFE2D6-0164-4AD7-8F6B-9BF26915FE8D";
shapes = (
{
closed = 1;
nodes = (
(209,476,o),
(242,461,o),
(306,420,cs),
(349,392,o),
(372,380,o),
(396,380,cs),
(417,380,o),
(433,389,o),
(433,405.036,cs),
(433,414,o),
(428,423,o),
(411,429,c),
(425,469,o),
(457,487,o),
(491.023,487,cs),
(546,487,o),
(591,440,o),
(591,374.586,cs),
(591,293,o),
(521,229,o),
(430.823,229,cs),
(383,229,o),
(336,247,o),
(285,287,cs),
(263,304,o),
(238,320,o),
(209,320,cs),
(186,320,o),
(169,310,o),
(169,294.439,cs),
(169,286,o),
(174,277,o),
(191,271,c),
(177,231,o),
(145,213,o),
(110.818,213,cs),
(55,213,o),
(10,261,o),
(10,327.304,cs),
(10,410,o),
(80,476,o),
(167.355,476,cs)
);
}
);
width = 601;
}
);
metricLeft = V;
metricRight = V;
unicode = 126;
},
{
glyphname = asciicircum;
lastChange = "2025-02-19 09:35:26 +0000";
layers = (
{
layerId = "31EFE2D6-0164-4AD7-8F6B-9BF26915FE8D";
shapes = (
{
closed = 1;
nodes = (
(25,259,o),
(81,201,o),
(152,201,cs),
(206,201,o),
(252,234,o),
(252,289,cs),
(252,314,o),
(242,330,o),
(234,337,c),
(229,332,o),
(223,330,o),
(217,330,cs),
(203,330,o),
(190,340,o),
(190,367,cs),
(190,416,o),
(235,511,o),
(303,587,c),
(371,511,o),
(416,416,o),
(416,367,cs),
(416,340,o),
(403,330,o),
(389,330,cs),
(383,330,o),
(377,332,o),
(372,337,c),
(364,330,o),
(354,314,o),
(354,289,cs),
(354,234,o),
(400,201,o),
(454,201,cs),
(525,201,o),
(581,259,o),
(581,345,cs),
(581,496,o),
(411,687,o),
(303,771,c),
(195,687,o),
(25,496,o),
(25,345,cs)
);
}
);
width = 606;
}
);
metricLeft = "=25";
metricRight = "=25";
unicode = 94;
},
{
color = 2;
glyphname = micro;
lastChange = "2025-02-19 09:41:32 +0000";
layers = (
{
layerId = "31EFE2D6-0164-4AD7-8F6B-9BF26915FE8D";
shapes = (
{
closed = 1;
nodes = (
(324,-165,ls),
(294,-165,o),
(274,-145,o),
(274,-115,cs),
(274,-55,l),
(74,-55,l),
(74,-336,l),
(330,-336,l),
(330,-165,l)
);
},
{
alignment = -1;
ref = U;
}
);
width = 709;
}
);
metricLeft = U;
metricRight = U;
unicode = 181;
},
{
color = 2;
glyphname = percent;
lastChange = "2025-02-19 09:35:28 +0000";
layers = (
{
layerId = "31EFE2D6-0164-4AD7-8F6B-9BF26915FE8D";
shapes = (
{
closed = 1;
nodes = (
(168,0,l),
(362,0,l),
(751,699,l),
(557,699,l)
);
},
{
alignment = -1;
pos = (29.196,328.165);
ref = zero;
scale = (0.543,0.543);
},
{
alignment = -1;
pos = (532.174,-8.227);
ref = zero;
scale = (0.543,0.543);
}
);
width = 931;
}
);
unicode = 37;
},
{
glyphname = perthousand;
lastChange = "2025-02-19 09:35:26 +0000";
layers = (
{
anchors = (
{
name = top;
pos = (703,399);
}
);
layerId = "31EFE2D6-0164-4AD7-8F6B-9BF26915FE8D";
shapes = (
{
closed = 1;
nodes = (
(156,0,l),
(350,0,l),
(739,699,l),
(545,699,l)
);
},
{
closed = 1;
nodes = (
(1035,245,l),
(1040,274,o),
(1053,293,o),
(1075,293,cs),
(1092,293,o),
(1110,281,o),
(1110,255,cs),
(1110,243,o),
(1105,233,o),
(1097,233,cs),
(1094,233,o),
(1091,234,o),
(1089,236,c),
(1081,226,o),
(1077,217,o),
(1077,204,cs),
(1077,164,o),
(1112,139,o),
(1149,139,cs),
(1192,139,o),
(1227,172,o),
(1227,231,cs),
(1227,309,o),
(1169,382,o),
(1066,382,cs),
(977,382,o),
(918,333,o),
(909,245,c)
);
},
{
closed = 1;
nodes = (
(289,318,o),
(348,367,o),
(358,455,c),
(231,455,l),
(226,426,o),
(214,407,o),
(192,407,cs),
(175,407,o),
(157,419,o),
(157,445,cs),
(157,457,o),
(162,467,o),
(170,467,cs),
(173,467,o),
(176,466,o),
(177,464,c),
(186,474,o),
(190,483,o),
(190,496,cs),
(190,536,o),
(155,561,o),
(117,561,cs),
(74,561,o),
(40,528,o),
(40,469,cs),
(40,391,o),
(98,318,o),
(200,318,cs)
);
},
{
closed = 1;
nodes = (
(172,581,l),
(177,610,o),
(190,629,o),
(212,629,cs),
(229,629,o),
(247,617,o),
(247,591,cs),
(247,579,o),
(242,569,o),
(234,569,cs),
(231,569,o),
(228,570,o),
(226,572,c),
(218,563,o),
(214,553,o),
(214,540,cs),
(214,500,o),
(249,476,o),
(286,476,cs),
(329,476,o),
(364,508,o),
(364,567,cs),
(364,646,o),
(306,718,o),
(203,718,cs),
(114,718,o),
(55,670,o),
(46,581,c)
);
},
{
closed = 1;
nodes = (
(543,54,o),
(601,-18,o),
(703,-18,cs),
(792,-18,o),
(851,30,o),
(861,119,c),
(734,119,l),
(729,89,o),
(717,70,o),
(695,70,cs),
(678,70,o),
(660,83,o),
(660,109,cs),
(660,121,o),
(665,131,o),
(673,131,cs),
(676,131,o),
(679,130,o),
(680,128,c),
(689,137,o),
(693,147,o),
(693,160,cs),
(693,200,o),
(658,224,o),
(620,224,cs),
(577,224,o),
(543,192,o),
(543,133,cs)
);
},
{
closed = 1;
nodes = (
(675,245,l),
(680,274,o),
(693,293,o),
(715,293,cs),
(732,293,o),
(750,281,o),
(750,255,cs),
(750,247,o),
(748,233,o),
(737,233,cs),
(734,233,o),
(731,234,o),
(729,236,c),
(721,226,o),
(717,217,o),
(717,204,cs),
(717,164,o),
(752,139,o),
(789,139,cs),
(832,139,o),
(867,172,o),
(867,231,cs),
(867,236,o),
(867,240,o),
(866,245,c),
(860,318,o),
(803,382,o),
(706,382,cs),
(617,382,o),
(558,333,o),
(549,245,c)
);
},
{
closed = 1;
nodes = (
(910,46,o),
(967,-18,o),
(1063,-18,cs),
(1152,-18,o),
(1211,30,o),
(1221,119,c),
(1094,119,l),
(1089,89,o),
(1077,70,o),
(1055,70,cs),
(1038,70,o),
(1020,83,o),
(1020,109,cs),
(1020,117,o),
(1022,131,o),
(1033,131,cs),
(1036,131,o),
(1039,130,o),
(1040,128,c),
(1049,137,o),
(1053,147,o),
(1053,160,cs),
(1053,200,o),
(1018,224,o),
(980,224,cs),
(937,224,o),
(903,192,o),
(903,133,cs),
(903,128,o),
(903,124,o),
(904,119,c)
);
}
);
width = 1291;
}
);
metricLeft = percent;
metricRight = percent;
unicode = 8240;
},
{
glyphname = upArrow;
lastChange = "2025-02-19 09:41:32 +0000";
layers = (
{
guides = (
{
angle = 90;
pos = (306,0);
}
);
layerId = "31EFE2D6-0164-4AD7-8F6B-9BF26915FE8D";
shapes = (
{
closed = 1;
nodes = (
(220,359,o),
(273,424,o),
(306,504,c),
(339,424,o),
(392,359,o),
(471,359,cs),
(538,359,o),
(587,406,o),
(587,462,cs),
(587,510,o),
(551,549,o),
(506,549,cs),
(484,549,o),
(471,540,o),
(465,534,c),
(469,530,o),
(471,525,o),
(471,520,cs),
(471,508,o),
(462,497,o),
(447,497,cs),
(399,497,o),
(350,616,o),
(350,718,c),
(262,718,l),
(262,616,o),
(213,497,o),
(165,497,cs),
(150,497,o),
(141,508,o),
(141,520,cs),
(141,525,o),
(143,530,o),
(147,534,c),
(141,540,o),
(128,549,o),
(106,549,cs),
(61,549,o),
(25,510,o),
(25,462,cs),
(25,406,o),
(74,359,o),
(141,359,cs)
);
},
{
closed = 1;
nodes = (
(180,0,l),
(432,0,l),
(432,170,l),
(426,170,ls),
(396,170,o),
(376,190,o),
(376,220,cs),
(376,350,l),
(236,350,l),
(236,220,ls),
(236,190,o),
(216,170,o),
(186,170,cs),
(180,170,l)
);
}
);
width = 612;
}
);
unicode = 8593;
},
{
glyphname = northWestArrow;
lastChange = "2025-02-19 09:41:32 +0000";
layers = (
{
layerId = "31EFE2D6-0164-4AD7-8F6B-9BF26915FE8D";
shapes = (
{
closed = 1;
nodes = (
(247,383,o),
(237,423,o),
(221,462,c),
(260,446,o),
(299,435,o),
(333,435,cs),
(407,435,o),
(477,485,o),
(477,558,cs),
(477,611,o),
(439,657,o),
(387.32,657,cs),
(347,657,o),
(312,629,o),
(312,595,c),
(324,595,o),
(333,586,o),
(333,574,cs),
(333,553,o),
(310,546,o),
(290,546,cs),
(241,546,o),
(157,588,o),
(101,644,c),
(38,582,l),
(95,526,o),
(137,442,o),
(137,395,cs),
(137,374,o),
(129,349,o),
(110,349,cs),
(98,349,o),
(87,359,o),
(87,370,c),
(54,370,o),
(25,334,o),
(25,294.167,cs),
(25,244,o),
(71,205,o),
(126,205,cs),
(198,205,o),
(247,274,o),
(247,349,cs)
);
},
{
closed = 1;
nodes = (
(488,16,l),
(666,194,l),
(546,314,l),
(542,310,ls),
(532,300,o),
(519,294,o),
(507,294,cs),
(494,294,o),
(482,300,o),
(471,310,cs),
(379,402,l),
(280,303,l),
(372,211,ls),
(383,201,o),
(388,188,o),
(388,176,cs),
(388,164,o),
(383,152,o),
(372,141,cs),
(368,136,l)
);
}
);
width = 691;
}
);
unicode = 8598;
},
{
glyphname = dieresiscomb;
lastChange = "2025-02-19 09:41:32 +0000";
layers = (
{
anchors = (
{
name = _top;
pos = (294,750);
}
);
layerId = "31EFE2D6-0164-4AD7-8F6B-9BF26915FE8D";
shapes = (
{
closed = 1;
nodes = (
(18,798,o),
(70,750,o),
(148,750,cs),
(225,750,o),
(277,798,o),
(277,870,cs),
(277,941,o),
(225,989,o),
(148,989,cs),
(70,989,o),
(18,941,o),
(18,870,cs)
);
},
{
closed = 1;
nodes = (
(314,798,o),
(366,750,o),
(444,750,cs),
(521,750,o),
(573,798,o),
(573,870,cs),
(573,941,o),
(521,989,o),
(444,989,cs),
(366,989,o),
(314,941,o),
(314,870,cs)
);
}
);
width = 591;
}
);
unicode = 776;
},
{
glyphname = dotaccentcomb;
lastChange = "2025-02-19 09:41:32 +0000";
layers = (
{
anchors = (
{
name = _top;
pos = (150,750);
}
);
layerId = "31EFE2D6-0164-4AD7-8F6B-9BF26915FE8D";
shapes = (
{
closed = 1;
nodes = (
(20,798,o),
(72,750,o),
(150,750,cs),
(227,750,o),
(279,798,o),
(279,870,cs),
(279,941,o),
(227,989,o),
(150,989,cs),
(72,989,o),
(20,941,o),
(20,870,cs)
);
}
);
width = 299;
}
);
unicode = 775;
},
{
glyphname = gravecomb;
lastChange = "2025-02-19 09:41:32 +0000";
layers = (
{
anchors = (
{
name = _top;
pos = (213,750);
}
);
guides = (
{
angle = 90;
pos = (213,0);
}
);
layerId = "31EFE2D6-0164-4AD7-8F6B-9BF26915FE8D";
shapes = (
{
closed = 1;
nodes = (
(368,750,l),
(162,750,o),
(49,821,o),
(49,945.64,cs),
(49,1031,o),
(102,1085,o),
(175.581,1085,cs),
(242,1085,o),
(295,1041,o),
(295,988,cs),
(295,969,o),
(287,951,o),
(273,938,c),
(268,943,o),
(263,945,o),
(257,945,cs),
(240,945,o),
(227,928,o),
(227,905.375,cs),
(227,858,o),
(284,825,o),
(368,825,c)
);
}
);
width = 417;
}
);
unicode = 768;
},
{
glyphname = acutecomb;
lastChange = "2025-02-19 09:41:32 +0000";
layers = (
{
anchors = (
{
name = _top;
pos = (206,750);
}
);
guides = (
{
angle = 58.221;
pos = (1954,265);
},
{
angle = 58.221;
pos = (1954,265);
},
{
angle = 58.221;
pos = (1952,265);
},
{
angle = 58.221;
pos = (1952,265);
},
{
angle = 90;
pos = (206,0);
}
);
layerId = "31EFE2D6-0164-4AD7-8F6B-9BF26915FE8D";
shapes = (
{
closed = 1;
nodes = (
(50,750,l),
(256,750,o),
(367,820,o),
(367,945.161,cs),
(367,1030,o),
(316,1085,o),
(242.099,1085,cs),
(176,1085,o),
(123,1041,o),
(123,988,cs),
(123,969,o),
(131,951,o),
(145,938,c),
(150,943,o),
(155,945,o),
(161,945,cs),
(178,945,o),
(191,928,o),
(191,905.375,cs),
(191,858,o),
(134,825,o),
(50,825,c)
);
}
);
width = 417;
}
);
unicode = 769;
},
{
glyphname = hungarumlautcomb;
lastChange = "2025-02-19 09:41:32 +0000";
layers = (
{
anchors = (
{
name = _top;
pos = (278,750);
}
);
guides = (
{
angle = 58.221;
pos = (1863,265);
},
{
angle = 58.221;
pos = (2280,265);
},
{
angle = 58.221;
pos = (1863,265);
},
{
angle = 58.221;
pos = (2140,265);
},
{
angle = 58.221;
pos = (1863,265);
},
{
angle = 58.221;
pos = (2280,265);
},
{
angle = 58.221;
pos = (1863,265);
},
{
angle = 58.221;
pos = (2140,265);
},
{
angle = 58.221;
pos = (1863,265);
},
{
angle = 58.221;
pos = (2280,265);
},
{
angle = 58.221;
pos = (1863,265);
},
{
angle = 58.221;
pos = (2140,265);
}
);
layerId = "31EFE2D6-0164-4AD7-8F6B-9BF26915FE8D";
shapes = (
{
closed = 1;
nodes = (
(287,750,l),
(453,750,o),
(565,820,o),
(565,946,cs),
(565,1030,o),
(513,1085,o),
(439.099,1085,cs),
(373,1085,o),
(320,1041,o),
(320,988,cs),
(320,969,o),
(328,951,o),
(342,938,c),
(347,943,o),
(352,945,o),
(358,945,cs),
(375,945,o),
(388,929,o),
(388,906,cs),
(388,859,o),
(331,825,o),
(287,825,c)
);
},
{
closed = 1;
nodes = (
(10,750,l),
(176,750,o),
(288,820,o),
(288,946,cs),
(288,1030,o),
(236,1085,o),
(162.099,1085,cs),
(96,1085,o),
(43,1041,o),
(43,988,cs),
(43,969,o),
(51,951,o),
(65,938,c),
(70,943,o),
(75,945,o),
(81,945,cs),
(98,945,o),
(111,929,o),
(111,906,cs),
(111,859,o),
(54,825,o),
(10,825,c)
);
}
);
width = 575;
}
);
unicode = 779;
},
{
glyphname = circumflexcomb;
lastChange = "2025-02-19 09:41:32 +0000";
layers = (
{
anchors = (
{
name = _top;
pos = (259,750);
}
);
guides = (
{
angle = 90;
pos = (259,0);
}
);
layerId = "31EFE2D6-0164-4AD7-8F6B-9BF26915FE8D";
shapes = (
{
closed = 1;
nodes = (
(505,986,o),
(355,1039,o),
(259,1081,c),
(163,1039,o),
(13,986,o),
(13,862,cs),
(13,801,o),
(49,750,o),
(111,750,cs),
(160,750,o),
(198,781,o),
(198,819.252,cs),
(198,830,o),
(195,844,o),
(188,857,c),
(184,854,o),
(181,853,o),
(177,853,cs),
(167,853,o),
(159,860,o),
(159,870,cs),
(159,892,o),
(195,924,o),
(259,954,c),
(323,924,o),
(359,892,o),
(359,870,cs),
(359,860,o),
(351,853,o),
(341,853,cs),
(337,853,o),
(334,854,o),
(330,857,c),
(323,844,o),
(320,830,o),
(320,819.252,cs),
(320,781,o),
(358,750,o),
(407,750,cs),
(469,750,o),
(505,801,o),
(505,862,cs)
);
}
);
width = 518;
}
);
unicode = 770;
},
{
glyphname = caroncomb;
lastChange = "2025-02-19 09:41:32 +0000";
layers = (
{
anchors = (
{
name = _top;
pos = (299,750);
}
);
guides = (
{
angle = 90;
pos = (299,0);
}
);
layerId = "31EFE2D6-0164-4AD7-8F6B-9BF26915FE8D";
shapes = (
{
closed = 1;
nodes = (
(545,1030,o),
(509,1081,o),
(447,1081,cs),
(398,1081,o),
(360,1050,o),
(360,1011.748,cs),
(360,1001,o),
(363,987,o),
(370,974,c),
(374,977,o),
(377,978,o),
(381,978,cs),
(391,978,o),
(399,971,o),
(399,961,cs),
(399,939,o),
(363,907,o),
(299,877,c),
(235,907,o),
(199,939,o),
(199,961,cs),
(199,971,o),
(207,978,o),
(217,978,cs),
(221,978,o),
(224,977,o),
(228,974,c),
(235,987,o),
(238,1001,o),
(238,1011.748,cs),
(238,1050,o),
(200,1081,o),
(151,1081,cs),
(89,1081,o),
(53,1030,o),
(53,969,cs),
(53,845,o),
(203,792,o),
(299,750,c),
(395,792,o),
(545,845,o),
(545,969,cs)
);
}
);
width = 598;
}
);
unicode = 780;
},
{
glyphname = brevecomb;
lastChange = "2025-02-19 09:41:32 +0000";
layers = (
{
anchors = (
{
name = _top;
pos = (306,750);
}
);
guides = (
{
angle = 90;
pos = (306,0);
},
{
angle = 90;
pos = (306,0);
},
{
angle = 90;
pos = (306,0);
}
);
layerId = "31EFE2D6-0164-4AD7-8F6B-9BF26915FE8D";
shapes = (
{
closed = 1;
nodes = (
(25,818,o),
(138,750,o),
(306,750,cs),
(474,750,o),
(587,818,o),
(587,926,cs),
(587,991,o),
(542,1038,o),
(487,1038,cs),
(453,1038,o),
(421,1020,o),
(407,980,c),
(424,974,o),
(429,965,o),
(429,956,cs),
(429,936,o),
(386,901,o),
(306,901,cs),
(226,901,o),
(183,936,o),
(183,956,cs),
(183,965,o),
(188,974,o),
(205,980,c),
(191,1020,o),
(159,1038,o),
(125,1038,cs),
(70,1038,o),
(25,991,o),
(25,926,cs)
);
}
);
width = 612;
}
);
unicode = 774;
},
{
glyphname = ringcomb;
lastChange = "2025-02-19 09:41:32 +0000";
layers = (
{
anchors = (
{
name = _top;
pos = (149,750);
}
);
layerId = "31EFE2D6-0164-4AD7-8F6B-9BF26915FE8D";
shapes = (
{
closed = 1;
nodes = (
(174,975,l),
(198,966,o),
(213,944,o),
(213,916,cs),
(213,888,o),
(198,865,o),
(174,857,c),
(174,752,l),
(263,761,o),
(323,826,o),
(323,918,cs),
(323,1010,o),
(263,1074,o),
(174,1084,c)
);
},
{
closed = 1;
nodes = (
(-23,826,o),
(34,763,o),
(124,752,c),
(124,857,l),
(99,865,o),
(84,888,o),
(84,916,cs),
(84,944,o),
(99,966,o),
(124,975,c),
(124,1084,l),
(34,1073,o),
(-23,1010,o),
(-23,918,cs)
);
}
);
width = 300;
}
);
unicode = 778;
},
{
glyphname = tildecomb;
lastChange = "2025-02-19 09:41:32 +0000";
layers = (
{
anchors = (
{
name = _top;
pos = (316,220);
}
);
guides = (
{
angle = 90;
pos = (316,0);
showMeasurement = 1;
}
);
layerId = "31EFE2D6-0164-4AD7-8F6B-9BF26915FE8D";
shapes = (
{
closed = 1;
nodes = (
(224,474,o),
(257,459,o),
(321,418,cs),
(364,390,o),
(387,378,o),
(411,378,cs),
(432,378,o),
(448,387,o),
(448,403.036,cs),
(448,412,o),
(443,421,o),
(426,427,c),
(440,467,o),
(472,485,o),
(506.023,485,cs),
(561,485,o),
(606,438,o),
(606,372.586,cs),
(606,291,o),
(536,227,o),
(445.823,227,cs),
(398,227,o),
(351,245,o),
(300,285,cs),
(278,302,o),
(253,318,o),
(224,318,cs),
(201,318,o),
(184,308,o),
(184,292.439,cs),
(184,284,o),
(189,275,o),
(206,269,c),
(192,229,o),
(160,211,o),
(125.818,211,cs),
(70,211,o),
(25,259,o),
(25,325.304,cs),
(25,408,o),
(95,474,o),
(182.355,474,cs)
);
}
);
width = 631;
}
);
unicode = 771;
},
{
glyphname = macroncomb;
lastChange = "2025-02-19 09:41:32 +0000";
layers = (
{
anchors = (
{
name = _top;
pos = (251,750);
}
);
layerId = "31EFE2D6-0164-4AD7-8F6B-9BF26915FE8D";
shapes = (
{
closed = 1;
nodes = (
(22,766,l),
(479,766,l),
(479,931,l),
(22,931,l)
);
}
);
width = 500;
}
);
unicode = 772;
},
{
glyphname = commaturnedabovecomb;
lastChange = "2025-02-19 09:41:32 +0000";
layers = (
{
anchors = (
{
name = _top;
pos = (162,750);
}
);
guides = (
{
angle = 90;
pos = (162,0);
}
);
layerId = "31EFE2D6-0164-4AD7-8F6B-9BF26915FE8D";
shapes = (
{
closed = 1;
nodes = (
(105,1099,l),
(52,1029,o),
(25,976,o),
(25,897,cs),
(25,807,o),
(81,750,o),
(170,750,cs),
(248,750,o),
(298,797,o),
(298,857,cs),
(298,893,o),
(280,928,o),
(240,943,c),
(231,926,o),
(219,917,o),
(204.757,917,cs),
(183,917,o),
(171,938,o),
(171,977.13,cs),
(171,1039,o),
(201,1084,o),
(211,1099,c)
);
}
);
width = 323;
}
);
unicode = 786;
},
{
glyphname = commaaccentcomb;
lastChange = "2025-02-19 09:41:32 +0000";
layers = (
{
anchors = (
{
name = _bottom;
pos = (184,-54);
}
);
layerId = "31EFE2D6-0164-4AD7-8F6B-9BF26915FE8D";
shapes = (
{
closed = 1;
nodes = (
(62,-356,l),
(235,-356,o),
(319,-265,o),
(319,-174.51,cs),
(319,-104,o),
(268,-50,o),
(194.419,-50,cs),
(128,-50,o),
(75,-94,o),
(75,-145.854,cs),
(75,-166,o),
(83,-184,o),
(97,-197,c),
(102,-192,o),
(107,-190,o),
(113,-190,cs),
(130,-190,o),
(144,-205,o),
(144,-226.704,cs),
(144,-259,o),
(113,-281,o),
(62,-281,c)
);
}
);
width = 368;
}
);
unicode = 806;
},
{
glyphname = cedillacomb;
lastChange = "2025-02-19 09:41:32 +0000";
layers = (
{
anchors = (
{
name = _bottom;
pos = (171,-54);
}
);
guides = (
{
angle = 90;
pos = (171,0);
}
);
layerId = "31EFE2D6-0164-4AD7-8F6B-9BF26915FE8D";
shapes = (
{
closed = 1;
nodes = (
(239,-356,o),
(317,-305,o),
(317,-224,cs),
(317,-184,o),
(297,-116,o),
(171,-96,c),
(194,-54,l),
(98,-54,l),
(48,-146,l),
(81,-146,o),
(179,-147,o),
(179,-195.006,cs),
(179,-215,o),
(162,-224,o),
(146,-224,cs),
(124,-224,o),
(103,-208,o),
(103,-188,c),
(69,-188,o),
(25,-210,o),
(25,-263,cs),
(25,-334,o),
(105,-356,o),
(158,-356,cs)
);
}
);
width = 342;
}
);
unicode = 807;
},
{
glyphname = ogonekcomb;
lastChange = "2025-02-19 09:41:32 +0000";
layers = (
{
anchors = (
{
name = _bottom;
pos = (384,-33);
}
);
layerId = "31EFE2D6-0164-4AD7-8F6B-9BF26915FE8D";
shapes = (
{
closed = 1;
nodes = (
(193,-136,o),
(220,-89,o),
(384,-89,c),
(384,-33,l),
(163,-33,o),
(25,-91,o),
(25,-202.722,cs),
(25,-277,o),
(86,-339,o),
(200.64,-339,cs),
(283,-339,o),
(344,-307,o),
(344,-237.291,cs),
(344,-183,o),
(307,-151,o),
(239,-151,c),
(239,-171,o),
(228,-177,o),
(217.524,-177,cs),
(204,-177,o),
(193,-167,o),
(193,-154.922,cs)
);
}
);
width = 409;
}
);
unicode = 808;
},
{
glyphname = dieresis;
lastChange = "2025-02-19 09:35:26 +0000";
layers = (
{
anchors = (
{
name = _top;
pos = (296,750);
}
);
layerId = "31EFE2D6-0164-4AD7-8F6B-9BF26915FE8D";
shapes = (
{
closed = 1;
nodes = (
(20,798,o),
(72,750,o),
(150,750,cs),
(227,750,o),
(279,798,o),
(279,870,cs),
(279,941,o),
(227,989,o),
(150,989,cs),
(72,989,o),
(20,941,o),
(20,870,cs)
);
},
{
closed = 1;
nodes = (
(316,798,o),
(368,750,o),
(446,750,cs),
(523,750,o),
(575,798,o),
(575,870,cs),
(575,941,o),
(523,989,o),
(446,989,cs),
(368,989,o),
(316,941,o),
(316,870,cs)
);
}
);
width = 591;
}
);
unicode = 168;
},
{
glyphname = dotaccent;
lastChange = "2025-02-19 09:35:26 +0000";
layers = (
{
anchors = (
{
name = _top;
pos = (150,750);
}
);
layerId = "31EFE2D6-0164-4AD7-8F6B-9BF26915FE8D";
shapes = (
{
closed = 1;
nodes = (
(20,798,o),
(72,750,o),
(150,750,cs),
(227,750,o),
(279,798,o),
(279,870,cs),
(279,941,o),
(227,989,o),
(150,989,cs),
(72,989,o),
(20,941,o),
(20,870,cs)
);
}
);
width = 299;
}
);
unicode = 729;
},
{
glyphname = grave;
lastChange = "2025-02-19 09:35:26 +0000";
layers = (
{
anchors = (
{
name = _top;
pos = (209,750);
}
);
guides = (
{
angle = 90;
pos = (209,0);
}
);
layerId = "31EFE2D6-0164-4AD7-8F6B-9BF26915FE8D";
shapes = (
{
closed = 1;
nodes = (
(364,750,l),
(158,750,o),
(45,821,o),
(45,945.64,cs),
(45,1031,o),
(98,1085,o),
(171.581,1085,cs),
(238,1085,o),
(291,1041,o),
(291,988,cs),
(291,969,o),
(283,951,o),
(269,938,c),
(264,943,o),
(259,945,o),
(253,945,cs),
(236,945,o),
(223,928,o),
(223,905.375,cs),
(223,858,o),
(280,825,o),
(364,825,c)
);
}
);
width = 417;
}
);
unicode = 96;
},
{
glyphname = acute;
lastChange = "2025-02-19 09:35:26 +0000";
layers = (
{
anchors = (
{
name = _top;
pos = (208,750);
}
);
guides = (
{
angle = 58.221;
pos = (1954,265);
},
{
angle = 90;
pos = (208,0);
}
);
layerId = "31EFE2D6-0164-4AD7-8F6B-9BF26915FE8D";
shapes = (
{
closed = 1;
nodes = (
(52,750,l),
(258,750,o),
(369,820,o),
(369,945.161,cs),
(369,1030,o),
(318,1085,o),
(244.099,1085,cs),
(178,1085,o),
(125,1041,o),
(125,988,cs),
(125,969,o),
(133,951,o),
(147,938,c),
(152,943,o),
(157,945,o),
(163,945,cs),
(180,945,o),
(193,928,o),
(193,905.375,cs),
(193,858,o),
(136,825,o),
(52,825,c)
);
}
);
width = 417;
}
);
unicode = 180;
},
{
glyphname = hungarumlaut;
kernRight = breve_1st;
lastChange = "2025-02-19 09:35:26 +0000";
layers = (
{
anchors = (
{
name = _top;
pos = (278,750);
}
);
guides = (
{
angle = 58.221;
pos = (1863,265);
},
{
angle = 58.221;
pos = (2280,265);
},
{
angle = 58.221;
pos = (1863,265);
},
{
angle = 58.221;
pos = (2140,265);
}
);
layerId = "31EFE2D6-0164-4AD7-8F6B-9BF26915FE8D";
shapes = (
{
closed = 1;
nodes = (
(287,750,l),
(453,750,o),
(565,820,o),
(565,946,cs),
(565,1030,o),
(513,1085,o),
(439.099,1085,cs),
(373,1085,o),
(320,1041,o),
(320,988,cs),
(320,969,o),
(328,951,o),
(342,938,c),
(347,943,o),
(352,945,o),
(358,945,cs),
(375,945,o),
(388,929,o),
(388,906,cs),
(388,859,o),
(331,825,o),
(287,825,c)
);
},
{
closed = 1;
nodes = (
(10,750,l),
(176,750,o),
(288,820,o),
(288,946,cs),
(288,1030,o),
(236,1085,o),
(162.099,1085,cs),
(96,1085,o),
(43,1041,o),
(43,988,cs),
(43,969,o),
(51,951,o),
(65,938,c),
(70,943,o),
(75,945,o),
(81,945,cs),
(98,945,o),
(111,929,o),
(111,906,cs),
(111,859,o),
(54,825,o),
(10,825,c)
);
}
);
width = 575;
}
);
unicode = 733;
},
{
glyphname = circumflex;
lastChange = "2025-02-19 09:35:26 +0000";
layers = (
{
anchors = (
{
name = _top;
pos = (259,750);
}
);
guides = (
{
angle = 90;
pos = (259,0);
}
);
layerId = "31EFE2D6-0164-4AD7-8F6B-9BF26915FE8D";
shapes = (
{
closed = 1;
nodes = (
(505,801,o),
(469,750,o),
(407,750,cs),
(358,750,o),
(320,781,o),
(320,819.252,cs),
(320,830,o),
(323,844,o),
(330,857,c),
(334,854,o),
(337,853,o),
(341,853,cs),
(351,853,o),
(359,860,o),
(359,870,cs),
(359,892,o),
(323,924,o),
(259,954,c),
(195,924,o),
(159,892,o),
(159,870,cs),
(159,860,o),
(167,853,o),
(177,853,cs),
(181,853,o),
(184,854,o),
(188,857,c),
(195,844,o),
(198,830,o),
(198,819.252,cs),
(198,781,o),
(160,750,o),
(111,750,cs),
(49,750,o),
(13,801,o),
(13,862,cs),
(13,986,o),
(163,1039,o),
(259,1081,c),
(355,1039,o),
(505,986,o),
(505,862,cs)
);
}
);
width = 518;
}
);
unicode = 710;
},
{
glyphname = caron;
lastChange = "2025-02-19 09:35:26 +0000";
layers = (
{
anchors = (
{
name = _top;
pos = (299,750);
}
);
guides = (
{
angle = 90;
pos = (299,0);
}
);
layerId = "31EFE2D6-0164-4AD7-8F6B-9BF26915FE8D";
shapes = (
{
closed = 1;
nodes = (
(545,1030,o),
(509,1081,o),
(447,1081,cs),
(398,1081,o),
(360,1050,o),
(360,1011.748,cs),
(360,1001,o),
(363,987,o),
(370,974,c),
(374,977,o),
(377,978,o),
(381,978,cs),
(391,978,o),
(399,971,o),
(399,961,cs),
(399,939,o),
(363,907,o),
(299,877,c),
(235,907,o),
(199,939,o),
(199,961,cs),
(199,971,o),
(207,978,o),
(217,978,cs),
(221,978,o),
(224,977,o),
(228,974,c),
(235,987,o),
(238,1001,o),
(238,1011.748,cs),
(238,1050,o),
(200,1081,o),
(151,1081,cs),
(89,1081,o),
(53,1030,o),
(53,969,cs),
(53,845,o),
(203,792,o),
(299,750,c),
(395,792,o),
(545,845,o),
(545,969,cs)
);
}
);
width = 598;
}
);
unicode = 711;
},
{
glyphname = breve;
kernRight = breve_1st;
lastChange = "2025-02-19 09:35:26 +0000";
layers = (
{
anchors = (
{
name = _top;
pos = (306,750);
}
);
guides = (
{
angle = 90;
pos = (306,0);
}
);
layerId = "31EFE2D6-0164-4AD7-8F6B-9BF26915FE8D";
shapes = (
{
closed = 1;
nodes = (
(25,991,o),
(70,1038,o),
(125,1038,cs),
(159,1038,o),
(191,1020,o),
(205,980,c),
(188,974,o),
(183,965,o),
(183,956,cs),
(183,936,o),
(226,901,o),
(306,901,cs),
(386,901,o),
(429,936,o),
(429,956,cs),
(429,965,o),
(424,974,o),
(407,980,c),
(421,1020,o),
(453,1038,o),
(487,1038,cs),
(542,1038,o),
(587,991,o),
(587,926,cs),
(587,818,o),
(474,750,o),
(306,750,cs),
(138,750,o),
(25,818,o),
(25,926,cs)
);
}
);
width = 612;
}
);
unicode = 728;
},
{
glyphname = ring;
lastChange = "2025-02-19 09:35:26 +0000";
layers = (
{
anchors = (
{
name = _top;
pos = (150,750);
}
);
layerId = "31EFE2D6-0164-4AD7-8F6B-9BF26915FE8D";
shapes = (
{
closed = 1;
nodes = (
(175,975,l),
(199,966,o),
(214,944,o),
(214,916,cs),
(214,888,o),
(199,865,o),
(175,857,c),
(175,752,l),
(264,761,o),
(324,826,o),
(324,918,cs),
(324,1010,o),
(264,1074,o),
(175,1084,c)
);
},
{
closed = 1;
nodes = (
(-22,826,o),
(35,763,o),
(125,752,c),
(125,857,l),
(100,865,o),
(85,888,o),
(85,916,cs),
(85,944,o),
(100,966,o),
(125,975,c),
(125,1084,l),
(35,1073,o),
(-22,1010,o),
(-22,918,cs)
);
}
);
width = 300;
}
);
unicode = 730;
},
{
glyphname = tilde;
lastChange = "2025-02-19 09:35:26 +0000";
layers = (
{
anchors = (
{
name = _top;
pos = (316,220);
}
);
guides = (
{
angle = 90;
pos = (316,0);
showMeasurement = 1;
}
);
layerId = "31EFE2D6-0164-4AD7-8F6B-9BF26915FE8D";
shapes = (
{
closed = 1;
nodes = (
(224,474,o),
(257,459,o),
(321,418,cs),
(364,390,o),
(387,378,o),
(411,378,cs),
(432,378,o),
(448,387,o),
(448,403.036,cs),
(448,412,o),
(443,421,o),
(426,427,c),
(440,467,o),
(472,485,o),
(506.023,485,cs),
(561,485,o),
(606,438,o),
(606,372.586,cs),
(606,291,o),
(536,227,o),
(445.823,227,cs),
(398,227,o),
(351,245,o),
(300,285,cs),
(278,302,o),
(253,318,o),
(224,318,cs),
(201,318,o),
(184,308,o),
(184,292.439,cs),
(184,284,o),
(189,275,o),
(206,269,c),
(192,229,o),
(160,211,o),
(125.818,211,cs),
(70,211,o),
(25,259,o),
(25,325.304,cs),
(25,408,o),
(95,474,o),
(182.355,474,cs)
);
}
);
width = 631;
}
);
unicode = 732;
},
{
glyphname = macron;
kernLeft = macron_2nd;
kernRight = macron1_1st;
lastChange = "2025-02-19 09:35:26 +0000";
layers = (
{
anchors = (
{
name = _top;
pos = (250,750);
}
);
layerId = "31EFE2D6-0164-4AD7-8F6B-9BF26915FE8D";
shapes = (
{
closed = 1;
nodes = (
(21,766,l),
(478,766,l),
(478,931,l),
(21,931,l)
);
}
);
width = 500;
}
);
unicode = 175;
},
{
glyphname = cedilla;
lastChange = "2025-02-19 09:35:26 +0000";
layers = (
{
anchors = (
{
name = _bottom;
pos = (171,-54);
}
);
guides = (
{
angle = 90;
pos = (171,0);
}
);
layerId = "31EFE2D6-0164-4AD7-8F6B-9BF26915FE8D";
shapes = (
{
closed = 1;
nodes = (
(239,-356,o),
(317,-305,o),
(317,-224,cs),
(317,-184,o),
(297,-116,o),
(171,-96,c),
(194,-54,l),
(98,-54,l),
(48,-146,l),
(81,-146,o),
(179,-147,o),
(179,-195.006,cs),
(179,-215,o),
(162,-224,o),
(146,-224,cs),
(124,-224,o),
(103,-208,o),
(103,-188,c),
(69,-188,o),
(25,-210,o),
(25,-263,cs),
(25,-334,o),
(105,-356,o),
(158,-356,cs)
);
}
);
width = 342;
}
);
unicode = 184;
},
